<?xml version="1.0" encoding="UTF-8" standalone="no"?>
<svg
   xmlns:dc="http://purl.org/dc/elements/1.1/"
   xmlns:cc="http://creativecommons.org/ns#"
   xmlns:rdf="http://www.w3.org/1999/02/22-rdf-syntax-ns#"
   xmlns:svg="http://www.w3.org/2000/svg"
   xmlns="http://www.w3.org/2000/svg"
   viewBox="0 0 235.52667 279.46533"
   height="279.46533"
   width="235.52667"
   xml:space="preserve"
   id="svg2"
   version="1.1"><metadata
     id="metadata8"><rdf:RDF><cc:Work
         rdf:about=""><dc:format>image/svg+xml</dc:format><dc:type
           rdf:resource="http://purl.org/dc/dcmitype/StillImage" /></cc:Work></rdf:RDF></metadata><defs
     id="defs6"><clipPath
       id="clipPath18"
       clipPathUnits="userSpaceOnUse"><path
         id="path16"
         d="M 0,209.599 H 176.645 V 0 H 0 Z" /></clipPath><clipPath
       id="clipPath30"
       clipPathUnits="userSpaceOnUse"><path
         id="path28"
         d="M 90.921,145.327 31.317,85.724 c -5.975,-5.975 -5.975,-15.663 0,-21.639 v 0 L 90.921,4.482 c 5.975,-5.976 15.663,-5.976 21.638,0 v 0 l 59.604,59.603 c 2.988,2.987 4.482,6.904 4.482,10.82 v 0 c 0,3.916 -1.494,7.832 -4.482,10.819 v 0 l -59.604,59.603 c -2.987,2.988 -6.903,4.482 -10.819,4.482 v 0 c -3.916,0 -7.832,-1.494 -10.819,-4.482" /></clipPath><clipPath
       id="clipPath38"
       clipPathUnits="userSpaceOnUse"><path
         id="path36"
         d="M -32768,32767 H 32767 V -32768 H -32768 Z" /></clipPath><linearGradient
       id="linearGradient46"
       spreadMethod="pad"
       gradientTransform="matrix(149.80899,0,0,-149.80899,26.835699,74.904503)"
       gradientUnits="userSpaceOnUse"
       y2="0"
       x2="1"
       y1="0"
       x1="0"><stop
         id="stop40"
         offset="0"
         style="stop-opacity:1;stop-color:#ffffff" /><stop
         id="stop42"
         offset="0.44952714"
         style="stop-opacity:1;stop-color:#ffffff" /><stop
         id="stop44"
         offset="1"
         style="stop-opacity:0;stop-color:#ffffff" /></linearGradient><mask
       id="mask48"
       height="1"
       width="1"
       y="0"
       x="0"
       maskUnits="userSpaceOnUse"><g
         id="g58"><g
           id="g56"
           clip-path="url(#clipPath38)"><g
             id="g54"><g
               id="g52"><path
                 id="path50"
                 style="fill:url(#linearGradient46);stroke:none"
                 d="M -32768,32767 H 32767 V -32768 H -32768 Z" /></g></g></g></g></mask><linearGradient
       id="linearGradient70"
       spreadMethod="pad"
       gradientTransform="matrix(149.80899,0,0,-149.80899,26.835699,74.904503)"
       gradientUnits="userSpaceOnUse"
       y2="0"
       x2="1"
       y1="0"
       x1="0"><stop
         id="stop64"
         offset="0"
         style="stop-opacity:1;stop-color:#3e83c0" /><stop
         id="stop66"
         offset="0.44952714"
         style="stop-opacity:1;stop-color:#3e83c0" /><stop
         id="stop68"
         offset="1"
         style="stop-opacity:1;stop-color:#3e83c0" /></linearGradient><clipPath
       id="clipPath80"
       clipPathUnits="userSpaceOnUse"><path
         id="path78"
         d="M 0,209.599 H 176.645 V 0 H 0 Z" /></clipPath><clipPath
       id="clipPath100"
       clipPathUnits="userSpaceOnUse"><path
         id="path98"
         d="m 92.2343,135.58 h 6.3179 v -6.947 h -6.3179 z" /></clipPath><clipPath
       id="clipPath116"
       clipPathUnits="userSpaceOnUse"><path
         id="path114"
         d="m 103.457,143.755 h 7.31 v -5.649 h -7.31 z" /></clipPath><clipPath
       id="clipPath132"
       clipPathUnits="userSpaceOnUse"><path
         id="path130"
         d="m 119.729,144.277 h 7.407 v -5.344 h -7.407 z" /></clipPath><clipPath
       id="clipPath148"
       clipPathUnits="userSpaceOnUse"><path
         id="path146"
         d="M 101.998,132.546 H 129.85 V 99.261 h -27.852 z" /></clipPath><clipPath
       id="clipPath260"
       clipPathUnits="userSpaceOnUse"><path
         id="path258"
         d="m 89.4507,169.77 h 6.2541 v -6.993 h -6.2541 z" /></clipPath><clipPath
       id="clipPath276"
       clipPathUnits="userSpaceOnUse"><path
         id="path274"
         d="m 85.8756,184.027 h 4.6992 v -7.49 h -4.6992 z" /></clipPath><clipPath
       id="clipPath292"
       clipPathUnits="userSpaceOnUse"><path
         id="path290"
         d="m 89.9837,199.38 h 6.2243 v -7.013 h -6.2243 z" /></clipPath><clipPath
       id="clipPath308"
       clipPathUnits="userSpaceOnUse"><path
         id="path306"
         d="m 101.203,195.253 h 27.562 v -29.92 h -27.562 z" /></clipPath><clipPath
       id="clipPath416"
       clipPathUnits="userSpaceOnUse"><path
         id="path414"
         d="M 64.085,145.327 4.482,85.724 c -5.976,-5.975 -5.976,-15.663 0,-21.639 v 0 L 64.085,4.482 c 5.976,-5.976 15.664,-5.976 21.639,0 v 0 l 59.603,59.603 c 5.976,5.976 5.976,15.664 0,21.639 v 0 l -59.603,59.603 c -2.987,2.988 -6.903,4.482 -10.819,4.482 v 0 c -3.916,0 -7.833,-1.494 -10.82,-4.482" /></clipPath><clipPath
       id="clipPath424"
       clipPathUnits="userSpaceOnUse"><path
         id="path422"
         d="M -32768,32767 H 32767 V -32768 H -32768 Z" /></clipPath><linearGradient
       id="linearGradient430"
       spreadMethod="pad"
       gradientTransform="matrix(149.80899,0,0,-149.80899,0,74.904503)"
       gradientUnits="userSpaceOnUse"
       y2="0"
       x2="1"
       y1="0"
       x1="0"><stop
         id="stop426"
         offset="0"
         style="stop-opacity:1;stop-color:#ffffff" /><stop
         id="stop428"
         offset="1"
         style="stop-opacity:0;stop-color:#ffffff" /></linearGradient><mask
       id="mask432"
       height="1"
       width="1"
       y="0"
       x="0"
       maskUnits="userSpaceOnUse"><g
         id="g442"><g
           id="g440"
           clip-path="url(#clipPath424)"><g
             id="g438"><g
               id="g436"><path
                 id="path434"
                 style="fill:url(#linearGradient430);stroke:none"
                 d="M -32768,32767 H 32767 V -32768 H -32768 Z" /></g></g></g></g></mask><linearGradient
       id="linearGradient452"
       spreadMethod="pad"
       gradientTransform="matrix(149.80899,0,0,-149.80899,0,74.904503)"
       gradientUnits="userSpaceOnUse"
       y2="0"
       x2="1"
       y1="0"
       x1="0"><stop
         id="stop448"
         offset="0"
         style="stop-opacity:1;stop-color:#3e83c0" /><stop
         id="stop450"
         offset="1"
         style="stop-opacity:1;stop-color:#3e83c0" /></linearGradient><clipPath
       id="clipPath462"
       clipPathUnits="userSpaceOnUse"><path
         id="path460"
         d="M 0,209.599 H 176.645 V 0 H 0 Z" /></clipPath><clipPath
       id="clipPath482"
       clipPathUnits="userSpaceOnUse"><path
         id="path480"
         d="m 74.9045,94.9468 h 9.0779 v -9.0779 h -9.0779 z" /></clipPath></defs><g
     transform="matrix(1.3333333,0,0,-1.3333333,0,279.46533)"
     id="g10"><g
       id="g12"><g
         clip-path="url(#clipPath18)"
         id="g14"><g
           transform="translate(172.1628,64.0845)"
           id="g20"><path
             id="path22"
             style="fill:#660e80;fill-opacity:1;fill-rule:nonzero;stroke:none"
             d="m 0,0 -59.603,-59.603 c -5.976,-5.975 -15.664,-5.975 -21.639,0 L -140.845,0 c -5.976,5.976 -5.976,15.664 0,21.64 l 59.603,59.603 c 5.975,5.975 15.663,5.975 21.639,0 L 0,21.64 C 5.976,15.664 5.976,5.976 0,0" /></g></g></g><g
       id="g24"><g
         clip-path="url(#clipPath30)"
         id="g26"><g
           id="g32"><g
             id="g34" /><g
             mask="url(#mask48)"
             id="g60"><g
               id="g62"><path
                 id="path72"
                 style="fill:url(#linearGradient70);stroke:none"
                 d="M 90.921,145.327 31.317,85.724 c -5.975,-5.975 -5.975,-15.663 0,-21.639 v 0 L 90.921,4.482 c 5.975,-5.976 15.663,-5.976 21.638,0 v 0 l 59.604,59.603 c 2.988,2.987 4.482,6.904 4.482,10.82 v 0 c 0,3.916 -1.494,7.832 -4.482,10.819 v 0 l -59.604,59.603 c -2.987,2.988 -6.903,4.482 -10.819,4.482 v 0 c -3.916,0 -7.832,-1.494 -10.819,-4.482" /></g></g></g></g></g><g
       id="g74"><g
         clip-path="url(#clipPath80)"
         id="g76"><g
           transform="translate(168.5373,64.0845)"
           id="g82"><path
             id="path84"
             style="fill:none;stroke:#2b73b6;stroke-width:1;stroke-linecap:round;stroke-linejoin:round;stroke-miterlimit:4;stroke-dasharray:0.995, 3.979;stroke-dashoffset:0;stroke-opacity:1"
             d="m 0,0 -55.978,-55.978 c -5.975,-5.975 -15.663,-5.975 -21.639,0 L -133.594,0 c -5.976,5.976 -5.976,15.664 0,21.64 l 55.977,55.977 c 5.976,5.976 15.664,5.976 21.639,0 L 0,21.64 C 5.976,15.664 5.976,5.976 0,0 Z" /></g><g
           transform="translate(141.345,101.7467)"
           id="g86"><path
             id="path88"
             style="fill:#ffb31b;fill-opacity:1;fill-rule:nonzero;stroke:none"
             d="m 0,0 c -8.046,-13.852 -25.797,-18.559 -39.649,-10.513 -13.852,8.046 -18.559,25.797 -10.514,39.65 8.046,13.851 25.798,18.558 39.65,10.512 C 3.339,31.604 8.045,13.853 0,0" /></g><g
           transform="translate(104.3869,95.8678)"
           id="g90"><path
             id="path92"
             style="fill:#ffe65b;fill-opacity:1;fill-rule:nonzero;stroke:none"
             d="M 0,0 C -11.292,6.56 -15.13,21.031 -8.571,32.323 -2.011,43.616 12.46,47.454 23.753,40.895 35.046,34.335 38.883,19.863 32.324,8.57 25.765,-2.722 11.293,-6.56 0,0 M 26.445,45.528 C 12.593,53.574 -5.159,48.867 -13.205,35.016 -21.25,21.163 -16.543,3.412 -2.691,-4.634 11.161,-12.68 28.912,-7.973 36.958,5.879 45.003,19.731 40.297,37.482 26.445,45.528" /></g><g
           id="g94"><g
             id="g96" /><g
             id="g108"><g
               style="opacity:0.30000299"
               id="g106"
               clip-path="url(#clipPath100)"><g
                 id="g104"
                 transform="translate(93.1955,129.0748)"><path
                   id="path102"
                   style="fill:#ffffff;fill-opacity:1;fill-rule:nonzero;stroke:none"
                   d="M 0,0 V 0 C -1.039,0.753 -1.272,2.219 -0.52,3.258 L 1.138,5.544 C 1.89,6.583 3.356,6.817 4.395,6.064 5.434,5.312 5.668,3.846 4.915,2.807 L 3.257,0.52 C 2.504,-0.519 1.039,-0.753 0,0" /></g></g></g></g><g
           id="g110"><g
             id="g112" /><g
             id="g124"><g
               style="opacity:0.30000299"
               id="g122"
               clip-path="url(#clipPath116)"><g
                 id="g120"
                 transform="translate(103.6023,139.6246)"><path
                   id="path118"
                   style="fill:#ffffff;fill-opacity:1;fill-rule:nonzero;stroke:none"
                   d="M 0,0 V 0 C -0.447,1.203 0.171,2.552 1.373,3 L 4.02,3.984 C 5.222,4.432 6.572,3.814 7.019,2.612 7.467,1.409 6.849,0.059 5.646,-0.388 L 2.999,-1.373 C 1.797,-1.82 0.447,-1.203 0,0" /></g></g></g></g><g
           id="g126"><g
             id="g128" /><g
             id="g140"><g
               style="opacity:0.30000299"
               id="g138"
               clip-path="url(#clipPath132)"><g
                 id="g136"
                 transform="translate(119.7976,142.5045)"><path
                   id="path134"
                   style="fill:#ffffff;fill-opacity:1;fill-rule:nonzero;stroke:none"
                   d="M 0,0 V 0 C 0.308,1.246 1.579,2.012 2.825,1.704 L 5.566,1.025 C 6.812,0.717 7.578,-0.554 7.27,-1.799 6.962,-3.044 5.691,-3.811 4.445,-3.503 L 1.704,-2.824 C 0.458,-2.516 -0.308,-1.245 0,0" /></g></g></g></g><g
           id="g142"><g
             id="g144" /><g
             id="g156"><g
               id="g154"
               clip-path="url(#clipPath148)"><g
                 id="g152"
                 transform="translate(113.3054,114.3922)"><path
                   id="path150"
                   style="fill:#ffe65b;fill-opacity:1;fill-rule:nonzero;stroke:none"
                   d="m 0,0 c -0.893,1.055 -1.679,2.053 -2.359,2.998 -0.681,0.944 -1.184,1.896 -1.511,2.853 -0.327,0.957 -0.442,1.935 -0.346,2.934 0.096,0.998 0.48,2.058 1.152,3.18 1.038,1.732 2.447,2.87 4.227,3.414 1.78,0.543 3.794,0.436 6.041,-0.321 l 1.855,3.095 c 0.259,-0.087 0.654,-0.236 1.184,-0.45 0.53,-0.213 1.049,-0.473 1.56,-0.778 0.993,-0.595 1.667,-1.233 2.022,-1.912 0.354,-0.68 0.196,-1.581 -0.475,-2.702 l -0.299,-0.498 c 1.458,-1.15 2.482,-2.317 3.071,-3.5 C 16.71,7.129 16.685,6.001 16.043,4.932 15.646,4.269 15.154,3.793 14.566,3.505 13.978,3.217 13.367,3.037 12.736,2.966 12.389,3.658 11.824,4.421 11.042,5.253 10.26,6.085 9.308,6.838 8.187,7.509 7.04,8.196 6.104,8.54 5.378,8.543 4.652,8.544 4.144,8.304 3.854,7.819 3.625,7.437 3.604,7.026 3.79,6.586 3.975,6.145 4.338,5.624 4.879,5.023 L 6.516,3.16 c 1.937,-2.199 3.194,-4.277 3.771,-6.233 0.577,-1.955 0.255,-3.952 -0.967,-5.991 -1.038,-1.733 -2.467,-2.876 -4.288,-3.43 -1.821,-0.554 -3.919,-0.413 -6.292,0.421 l -1.832,-3.058 c -0.261,0.086 -0.656,0.236 -1.185,0.449 -0.531,0.215 -1.05,0.474 -1.559,0.78 -0.994,0.594 -1.669,1.232 -2.023,1.912 -0.354,0.68 -0.196,1.581 0.476,2.702 l 0.229,0.382 c -0.856,0.652 -1.592,1.317 -2.205,1.997 -0.616,0.68 -1.09,1.361 -1.423,2.047 -0.335,0.684 -0.51,1.36 -0.525,2.028 -0.016,0.667 0.16,1.307 0.526,1.918 0.443,0.738 1.037,1.24 1.783,1.503 0.746,0.263 1.458,0.382 2.136,0.356 0.377,-0.988 0.96,-1.995 1.748,-3.021 0.787,-1.026 1.793,-1.905 3.016,-2.638 1.248,-0.748 2.242,-1.083 2.981,-1.007 0.738,0.077 1.26,0.37 1.566,0.88 0.305,0.51 0.333,1.021 0.086,1.532 -0.247,0.512 -0.664,1.117 -1.25,1.814 z" /></g></g></g></g><g
           transform="translate(112.8581,115.5679)"
           id="g158"><path
             id="path160"
             style="fill:#ffe65b;fill-opacity:1;fill-rule:nonzero;stroke:none"
             d="m 0,0 c -0.893,1.054 -1.679,2.052 -2.359,2.997 -0.681,0.944 -1.185,1.896 -1.511,2.854 -0.328,0.957 -0.443,1.934 -0.346,2.933 0.096,0.999 0.48,2.058 1.152,3.18 1.038,1.732 2.447,2.871 4.227,3.414 1.78,0.544 3.793,0.436 6.04,-0.32 l 1.855,3.095 c 0.26,-0.087 0.655,-0.236 1.185,-0.45 0.529,-0.214 1.049,-0.473 1.559,-0.778 0.994,-0.596 1.668,-1.233 2.022,-1.913 0.355,-0.68 0.197,-1.58 -0.475,-2.701 l -0.298,-0.498 c 1.457,-1.15 2.481,-2.317 3.07,-3.501 C 16.71,7.128 16.685,6.001 16.043,4.931 15.646,4.268 15.153,3.792 14.565,3.505 13.977,3.216 13.367,3.036 12.736,2.965 12.389,3.657 11.824,4.42 11.042,5.252 10.259,6.084 9.308,6.837 8.187,7.509 7.04,8.195 6.104,8.54 5.377,8.542 4.651,8.544 4.144,8.303 3.854,7.819 3.625,7.437 3.603,7.025 3.789,6.585 3.975,6.145 4.338,5.624 4.879,5.022 L 6.516,3.159 c 1.937,-2.199 3.193,-4.276 3.771,-6.232 0.576,-1.955 0.255,-3.953 -0.967,-5.991 -1.038,-1.734 -2.468,-2.876 -4.288,-3.43 -1.822,-0.555 -3.919,-0.414 -6.293,0.42 l -1.832,-3.058 c -0.26,0.086 -0.655,0.236 -1.185,0.45 -0.53,0.214 -1.05,0.474 -1.559,0.779 -0.994,0.595 -1.668,1.233 -2.022,1.912 -0.355,0.68 -0.196,1.581 0.476,2.702 l 0.229,0.382 c -0.857,0.652 -1.592,1.318 -2.206,1.997 -0.615,0.68 -1.089,1.361 -1.423,2.047 -0.334,0.684 -0.509,1.361 -0.524,2.028 -0.016,0.667 0.16,1.307 0.526,1.919 0.442,0.738 1.036,1.239 1.783,1.502 0.746,0.263 1.457,0.382 2.135,0.356 0.378,-0.987 0.96,-1.995 1.748,-3.02 0.788,-1.026 1.793,-1.906 3.016,-2.639 1.248,-0.747 2.242,-1.083 2.981,-1.007 0.739,0.078 1.261,0.37 1.566,0.88 0.305,0.51 0.334,1.021 0.087,1.532 -0.247,0.513 -0.664,1.118 -1.25,1.815 z" /></g><g
           transform="translate(130.279,139.1505)"
           id="g162"><path
             id="path164"
             style="fill:#ffb31b;fill-opacity:1;fill-rule:nonzero;stroke:none"
             d="m 0,0 c 0.623,-0.159 1,-0.793 0.841,-1.417 -0.159,-0.623 -0.793,-1 -1.416,-0.84 -0.624,0.158 -1,0.793 -0.842,1.416 0.159,0.623 0.793,1 1.417,0.841" /></g><g
           transform="translate(136.4104,133.9439)"
           id="g166"><path
             id="path168"
             style="fill:#ffb31b;fill-opacity:1;fill-rule:nonzero;stroke:none"
             d="M 0,0 C 0.549,-0.337 0.721,-1.054 0.384,-1.602 0.048,-2.15 -0.669,-2.322 -1.217,-1.986 -1.766,-1.65 -1.938,-0.933 -1.602,-0.385 -1.266,0.164 -0.548,0.336 0,0" /></g><g
           transform="translate(140.7258,127.1549)"
           id="g170"><path
             id="path172"
             style="fill:#ffb31b;fill-opacity:1;fill-rule:nonzero;stroke:none"
             d="m 0,0 c 0.424,-0.483 0.376,-1.22 -0.107,-1.644 -0.483,-0.423 -1.22,-0.376 -1.644,0.108 -0.424,0.483 -0.376,1.219 0.107,1.643 C -1.16,0.531 -0.424,0.483 0,0" /></g><g
           transform="translate(142.8381,119.3931)"
           id="g174"><path
             id="path176"
             style="fill:#ffb31b;fill-opacity:1;fill-rule:nonzero;stroke:none"
             d="m 0,0 c 0.262,-0.588 -0.001,-1.276 -0.589,-1.538 -0.587,-0.263 -1.276,0.001 -1.538,0.589 -0.263,0.587 0.002,1.276 0.589,1.538 C -0.951,0.852 -0.262,0.588 0,0" /></g><g
           transform="translate(142.5578,111.3541)"
           id="g178"><path
             id="path180"
             style="fill:#ffb31b;fill-opacity:1;fill-rule:nonzero;stroke:none"
             d="m 0,0 c 0.076,-0.639 -0.379,-1.219 -1.018,-1.295 -0.639,-0.077 -1.219,0.379 -1.295,1.018 -0.077,0.638 0.379,1.218 1.018,1.295 C -0.656,1.095 -0.077,0.639 0,0" /></g><g
           transform="translate(139.9099,103.7584)"
           id="g182"><path
             id="path184"
             style="fill:#ffb31b;fill-opacity:1;fill-rule:nonzero;stroke:none"
             d="m 0,0 c -0.116,-0.633 -0.723,-1.052 -1.356,-0.936 -0.632,0.116 -1.051,0.723 -0.936,1.356 0.117,0.633 0.724,1.052 1.356,0.935 C -0.303,1.239 0.116,0.632 0,0" /></g><g
           transform="translate(135.1321,97.2867)"
           id="g186"><path
             id="path188"
             style="fill:#ffb31b;fill-opacity:1;fill-rule:nonzero;stroke:none"
             d="m 0,0 c -0.298,-0.57 -1.002,-0.791 -1.572,-0.492 -0.57,0.298 -0.79,1.002 -0.492,1.572 0.298,0.569 1.002,0.79 1.572,0.492 C 0.078,1.273 0.298,0.569 0,0" /></g><g
           transform="translate(128.6526,92.5191)"
           id="g190"><path
             id="path192"
             style="fill:#ffb31b;fill-opacity:1;fill-rule:nonzero;stroke:none"
             d="M 0,0 C -0.454,-0.456 -1.191,-0.458 -1.647,-0.004 -2.104,0.449 -2.106,1.187 -1.652,1.643 -1.199,2.1 -0.461,2.102 -0.005,1.647 0.451,1.194 0.454,0.457 0,0" /></g><g
           transform="translate(121.052,89.8844)"
           id="g194"><path
             id="path196"
             style="fill:#ffb31b;fill-opacity:1;fill-rule:nonzero;stroke:none"
             d="M 0,0 C -0.568,-0.301 -1.273,-0.085 -1.575,0.483 -1.876,1.052 -1.66,1.757 -1.092,2.059 -0.523,2.359 0.182,2.144 0.483,1.575 0.785,1.007 0.568,0.302 0,0" /></g><g
           transform="translate(113.0124,89.6178)"
           id="g198"><path
             id="path200"
             style="fill:#ffb31b;fill-opacity:1;fill-rule:nonzero;stroke:none"
             d="M 0,0 C -0.632,-0.119 -1.242,0.296 -1.361,0.928 -1.481,1.56 -1.066,2.169 -0.434,2.289 0.198,2.409 0.808,1.993 0.928,1.361 1.047,0.729 0.632,0.12 0,0" /></g><g
           transform="translate(105.2541,91.7437)"
           id="g202"><path
             id="path204"
             style="fill:#ffb31b;fill-opacity:1;fill-rule:nonzero;stroke:none"
             d="M 0,0 C -0.639,0.072 -1.099,0.649 -1.025,1.289 -0.953,1.928 -0.376,2.387 0.263,2.314 0.902,2.241 1.362,1.664 1.289,1.025 1.216,0.386 0.639,-0.073 0,0" /></g><g
           transform="translate(98.4729,96.0699)"
           id="g206"><path
             id="path208"
             style="fill:#ffb31b;fill-opacity:1;fill-rule:nonzero;stroke:none"
             d="M 0,0 C -0.589,0.259 -0.857,0.946 -0.598,1.535 -0.339,2.124 0.348,2.392 0.937,2.133 1.526,1.874 1.793,1.187 1.535,0.599 1.276,0.01 0.589,-0.258 0,0" /></g><g
           transform="translate(93.2766,102.2105)"
           id="g210"><path
             id="path212"
             style="fill:#ffb31b;fill-opacity:1;fill-rule:nonzero;stroke:none"
             d="M 0,0 C -0.486,0.422 -0.539,1.157 -0.117,1.644 0.305,2.13 1.04,2.182 1.526,1.761 2.012,1.339 2.064,0.604 1.643,0.117 1.221,-0.369 0.486,-0.421 0,0" /></g><g
           transform="translate(90.1311,109.6148)"
           id="g214"><path
             id="path216"
             style="fill:#ffb31b;fill-opacity:1;fill-rule:nonzero;stroke:none"
             d="M 0,0 C -0.339,0.546 -0.172,1.265 0.375,1.604 0.921,1.943 1.64,1.775 1.979,1.229 2.318,0.683 2.15,-0.036 1.604,-0.375 1.058,-0.715 0.339,-0.547 0,0" /></g><g
           transform="translate(89.3181,117.6178)"
           id="g218"><path
             id="path220"
             style="fill:#ffb31b;fill-opacity:1;fill-rule:nonzero;stroke:none"
             d="M 0,0 C -0.162,0.622 0.211,1.259 0.833,1.421 1.456,1.583 2.092,1.21 2.254,0.588 2.417,-0.034 2.044,-0.671 1.421,-0.833 0.799,-0.995 0.163,-0.622 0,0" /></g><g
           transform="translate(90.9114,125.5025)"
           id="g222"><path
             id="path224"
             style="fill:#ffb31b;fill-opacity:1;fill-rule:nonzero;stroke:none"
             d="M 0,0 C 0.029,0.643 0.574,1.14 1.216,1.11 1.859,1.082 2.356,0.537 2.327,-0.105 2.298,-0.748 1.753,-1.246 1.111,-1.217 0.468,-1.187 -0.029,-0.643 0,0" /></g><g
           transform="translate(94.7673,132.5621)"
           id="g226"><path
             id="path228"
             style="fill:#ffb31b;fill-opacity:1;fill-rule:nonzero;stroke:none"
             d="M 0,0 C 0.218,0.605 0.886,0.919 1.491,0.701 2.096,0.483 2.41,-0.185 2.192,-0.79 1.974,-1.395 1.306,-1.709 0.701,-1.49 0.096,-1.272 -0.218,-0.605 0,0" /></g><g
           transform="translate(100.5408,138.1641)"
           id="g230"><path
             id="path232"
             style="fill:#ffb31b;fill-opacity:1;fill-rule:nonzero;stroke:none"
             d="M 0,0 C 0.387,0.513 1.118,0.615 1.631,0.228 2.145,-0.16 2.247,-0.89 1.859,-1.404 1.472,-1.917 0.741,-2.019 0.228,-1.631 -0.286,-1.244 -0.388,-0.514 0,0" /></g><g
           transform="translate(107.7136,141.8053)"
           id="g234"><path
             id="path236"
             style="fill:#ffb31b;fill-opacity:1;fill-rule:nonzero;stroke:none"
             d="M 0,0 C 0.522,0.376 1.25,0.257 1.625,-0.265 2.001,-0.787 1.883,-1.515 1.36,-1.891 0.838,-2.267 0.11,-2.148 -0.265,-1.625 -0.641,-1.104 -0.522,-0.375 0,0" /></g><g
           transform="translate(115.6428,143.1602)"
           id="g238"><path
             id="path240"
             style="fill:#ffb31b;fill-opacity:1;fill-rule:nonzero;stroke:none"
             d="M 0,0 C 0.61,0.204 1.27,-0.125 1.474,-0.735 1.679,-1.345 1.35,-2.005 0.74,-2.209 0.13,-2.414 -0.53,-2.084 -0.735,-1.475 -0.939,-0.865 -0.61,-0.205 0,0" /></g><g
           transform="translate(123.6174,142.1065)"
           id="g242"><path
             id="path244"
             style="fill:#ffb31b;fill-opacity:1;fill-rule:nonzero;stroke:none"
             d="M 0,0 C 0.643,0.015 1.176,-0.495 1.191,-1.138 1.206,-1.781 0.696,-2.314 0.053,-2.329 -0.59,-2.343 -1.124,-1.834 -1.138,-1.191 -1.153,-0.548 -0.643,-0.015 0,0" /></g><g
           transform="translate(136.6604,199.2891)"
           id="g246"><path
             id="path248"
             style="fill:#ffb31b;fill-opacity:1;fill-rule:nonzero;stroke:none"
             d="m 0,0 c 10.325,-12.247 8.768,-30.546 -3.479,-40.872 -12.248,-10.325 -30.546,-8.768 -40.872,3.479 -10.325,12.248 -8.768,30.547 3.479,40.872 C -28.625,13.805 -10.326,12.247 0,0" /></g><g
           transform="translate(129.7268,162.5147)"
           id="g250"><path
             id="path252"
             style="fill:#ffe65b;fill-opacity:1;fill-rule:nonzero;stroke:none"
             d="m 0,0 c -9.984,-8.418 -24.902,-7.148 -33.32,2.836 -8.418,9.985 -7.148,24.903 2.836,33.321 9.984,8.418 24.902,7.148 33.32,-2.837 C 11.254,23.336 9.984,8.418 0,0 M -33.938,40.253 C -46.185,29.928 -47.743,11.629 -37.417,-0.618 -27.092,-12.865 -8.793,-14.423 3.454,-4.097 15.701,6.229 17.259,24.527 6.934,36.774 -3.392,49.021 -21.691,50.579 -33.938,40.253" /></g><g
           id="g254"><g
             id="g256" /><g
             id="g268"><g
               style="opacity:0.30000299"
               id="g266"
               clip-path="url(#clipPath260)"><g
                 id="g264"
                 transform="translate(94.6907,163.1817)"><path
                   id="path262"
                   style="fill:#ffffff;fill-opacity:1;fill-rule:nonzero;stroke:none"
                   d="m 0,0 v 0 c -1.06,-0.724 -2.519,-0.449 -3.242,0.61 l -1.593,2.331 c -0.724,1.059 -0.45,2.518 0.609,3.243 1.059,0.724 2.518,0.449 3.242,-0.61 L 0.61,3.242 C 1.333,2.183 1.059,0.724 0,0" /></g></g></g></g><g
           id="g270"><g
             id="g272" /><g
             id="g284"><g
               style="opacity:0.30000299"
               id="g282"
               clip-path="url(#clipPath276)"><g
                 id="g280"
                 transform="translate(88.2702,176.5377)"><path
                   id="path278"
                   style="fill:#ffffff;fill-opacity:1;fill-rule:nonzero;stroke:none"
                   d="M 0,0 V 0 C -1.283,-0.015 -2.345,1.021 -2.36,2.304 L -2.395,5.128 C -2.41,6.411 -1.373,7.473 -0.09,7.489 1.192,7.504 2.255,6.467 2.271,5.185 L 2.304,2.36 C 2.32,1.077 1.283,0.015 0,0" /></g></g></g></g><g
           id="g286"><g
             id="g288" /><g
             id="g300"><g
               style="opacity:0.30000299"
               id="g298"
               clip-path="url(#clipPath292)"><g
                 id="g296"
                 transform="translate(91.0227,192.755)"><path
                   id="path294"
                   style="fill:#ffffff;fill-opacity:1;fill-rule:nonzero;stroke:none"
                   d="M 0,0 V 0 C -1.068,0.71 -1.361,2.166 -0.651,3.234 L 0.913,5.586 C 1.623,6.654 3.078,6.947 4.146,6.237 5.215,5.527 5.508,4.071 4.797,3.003 L 3.234,0.651 C 2.523,-0.417 1.068,-0.71 0,0" /></g></g></g></g><g
           id="g302"><g
             id="g304" /><g
             id="g316"><g
               id="g314"
               clip-path="url(#clipPath308)"><g
                 id="g312"
                 transform="translate(115.2966,177.1597)"><path
                   id="path310"
                   style="fill:#ffe65b;fill-opacity:1;fill-rule:nonzero;stroke:none"
                   d="m 0,0 c -1.293,-0.485 -2.499,-0.888 -3.618,-1.21 -1.118,-0.322 -2.184,-0.476 -3.195,-0.459 -1.012,0.014 -1.971,0.236 -2.879,0.664 -0.907,0.427 -1.775,1.146 -2.604,2.157 -1.281,1.561 -1.877,3.272 -1.789,5.131 0.089,1.859 0.869,3.718 2.34,5.578 l -2.288,2.79 c 0.169,0.216 0.443,0.537 0.823,0.964 0.38,0.427 0.799,0.828 1.259,1.205 0.896,0.735 1.723,1.154 2.483,1.259 0.76,0.104 1.554,-0.349 2.383,-1.359 l 0.367,-0.449 c 1.574,0.984 3.019,1.554 4.332,1.709 1.313,0.155 2.365,-0.249 3.157,-1.214 0.49,-0.597 0.771,-1.221 0.844,-1.872 C 1.687,14.243 1.651,13.608 1.505,12.99 0.736,12.896 -0.172,12.622 -1.22,12.167 -2.267,11.711 -3.296,11.068 -4.307,10.24 -5.34,9.392 -5.98,8.627 -6.228,7.944 -6.474,7.262 -6.418,6.702 -6.061,6.266 -5.778,5.921 -5.398,5.762 -4.92,5.789 c 0.477,0.026 1.089,0.192 1.837,0.499 L -0.776,7.2 C 1.947,8.281 4.327,8.764 6.363,8.647 8.398,8.53 10.17,7.553 11.677,5.716 12.958,4.154 13.552,2.422 13.459,0.522 13.366,-1.379 12.527,-3.307 10.941,-5.26 l 2.26,-2.756 c -0.169,-0.216 -0.444,-0.537 -0.823,-0.963 -0.38,-0.428 -0.8,-0.829 -1.259,-1.206 -0.896,-0.734 -1.723,-1.154 -2.483,-1.258 -0.76,-0.105 -1.554,0.348 -2.383,1.359 L 5.971,-9.74 c -0.903,-0.586 -1.777,-1.053 -2.624,-1.402 -0.847,-0.35 -1.649,-0.566 -2.407,-0.649 -0.757,-0.084 -1.453,-0.02 -2.086,0.19 -0.633,0.21 -1.177,0.592 -1.628,1.143 -0.546,0.666 -0.818,1.394 -0.814,2.186 0.005,0.79 0.133,1.5 0.385,2.13 1.057,0.022 2.203,0.23 3.434,0.626 1.231,0.396 2.398,1.045 3.501,1.95 1.125,0.922 1.776,1.745 1.953,2.466 0.177,0.721 0.077,1.311 -0.3,1.771 C 5.009,1.13 4.537,1.33 3.972,1.27 3.407,1.209 2.697,1.021 1.843,0.705 Z" /></g></g></g></g><g
           transform="translate(114.0393,177.1348)"
           id="g318"><path
             id="path320"
             style="fill:#ffe65b;fill-opacity:1;fill-rule:nonzero;stroke:none"
             d="m 0,0 c -1.293,-0.485 -2.499,-0.888 -3.618,-1.21 -1.118,-0.322 -2.183,-0.476 -3.195,-0.459 -1.012,0.014 -1.971,0.235 -2.879,0.664 -0.907,0.427 -1.775,1.146 -2.604,2.157 -1.281,1.561 -1.877,3.272 -1.788,5.131 0.088,1.859 0.868,3.718 2.339,5.578 l -2.288,2.79 c 0.169,0.216 0.443,0.537 0.824,0.964 0.379,0.427 0.798,0.828 1.258,1.205 0.896,0.735 1.723,1.154 2.483,1.259 0.76,0.104 1.554,-0.349 2.383,-1.359 l 0.367,-0.449 c 1.574,0.984 3.019,1.554 4.332,1.709 1.313,0.155 2.365,-0.249 3.157,-1.214 0.49,-0.598 0.771,-1.221 0.844,-1.872 C 1.687,14.243 1.651,13.608 1.505,12.99 0.736,12.896 -0.172,12.622 -1.22,12.167 -2.267,11.71 -3.296,11.068 -4.307,10.24 -5.34,9.392 -5.98,8.627 -6.227,7.944 -6.474,7.261 -6.418,6.702 -6.061,6.266 -5.778,5.921 -5.398,5.762 -4.92,5.789 c 0.477,0.026 1.089,0.192 1.837,0.499 L -0.776,7.2 C 1.948,8.281 4.328,8.764 6.364,8.647 8.399,8.53 10.17,7.553 11.678,5.716 12.958,4.154 13.552,2.422 13.459,0.522 13.367,-1.379 12.527,-3.307 10.941,-5.26 l 2.26,-2.756 c -0.169,-0.216 -0.444,-0.537 -0.823,-0.964 -0.38,-0.427 -0.8,-0.828 -1.259,-1.205 -0.895,-0.734 -1.723,-1.154 -2.483,-1.258 -0.76,-0.105 -1.554,0.348 -2.383,1.359 L 5.971,-9.74 c -0.903,-0.586 -1.777,-1.053 -2.624,-1.402 -0.847,-0.35 -1.649,-0.566 -2.407,-0.649 -0.757,-0.084 -1.453,-0.02 -2.086,0.19 -0.633,0.21 -1.176,0.592 -1.628,1.143 -0.546,0.666 -0.818,1.394 -0.813,2.186 0.004,0.79 0.132,1.5 0.384,2.13 1.057,0.022 2.203,0.23 3.434,0.626 1.231,0.396 2.398,1.045 3.501,1.95 1.125,0.922 1.776,1.744 1.953,2.466 0.177,0.721 0.077,1.311 -0.3,1.771 C 5.009,1.13 4.537,1.329 3.972,1.27 3.407,1.209 2.697,1.021 1.843,0.705 Z" /></g><g
           transform="translate(97.716,201.4903)"
           id="g322"><path
             id="path324"
             style="fill:#ffb31b;fill-opacity:1;fill-rule:nonzero;stroke:none"
             d="M 0,0 C 0.36,0.533 1.084,0.674 1.617,0.314 2.15,-0.046 2.291,-0.77 1.931,-1.303 1.571,-1.836 0.848,-1.977 0.314,-1.617 -0.219,-1.257 -0.36,-0.533 0,0" /></g><g
           transform="translate(104.6863,205.5059)"
           id="g326"><path
             id="path328"
             style="fill:#ffb31b;fill-opacity:1;fill-rule:nonzero;stroke:none"
             d="M 0,0 C 0.501,0.403 1.235,0.323 1.638,-0.179 2.041,-0.68 1.96,-1.414 1.459,-1.816 0.958,-2.219 0.224,-2.139 -0.179,-1.637 -0.582,-1.136 -0.501,-0.403 0,0" /></g><g
           transform="translate(112.5329,207.2784)"
           id="g330"><path
             id="path332"
             style="fill:#ffb31b;fill-opacity:1;fill-rule:nonzero;stroke:none"
             d="M 0,0 C 0.598,0.236 1.275,-0.057 1.511,-0.656 1.748,-1.254 1.454,-1.931 0.855,-2.167 0.257,-2.403 -0.419,-2.11 -0.656,-1.511 -0.892,-0.913 -0.599,-0.236 0,0" /></g><g
           transform="translate(120.5525,206.648)"
           id="g334"><path
             id="path336"
             style="fill:#ffb31b;fill-opacity:1;fill-rule:nonzero;stroke:none"
             d="M 0,0 C 0.641,0.048 1.201,-0.432 1.249,-1.074 1.298,-1.715 0.817,-2.274 0.176,-2.323 -0.466,-2.372 -1.025,-1.891 -1.074,-1.25 -1.122,-0.608 -0.642,-0.049 0,0" /></g><g
           transform="translate(128.0256,203.672)"
           id="g338"><path
             id="path340"
             style="fill:#ffb31b;fill-opacity:1;fill-rule:nonzero;stroke:none"
             d="M 0,0 C 0.627,-0.144 1.019,-0.768 0.875,-1.395 0.732,-2.022 0.107,-2.415 -0.52,-2.271 -1.146,-2.127 -1.539,-1.503 -1.395,-0.875 -1.252,-0.249 -0.627,0.144 0,0" /></g><g
           transform="translate(134.2829,198.6168)"
           id="g342"><path
             id="path344"
             style="fill:#ffb31b;fill-opacity:1;fill-rule:nonzero;stroke:none"
             d="M 0,0 C 0.557,-0.323 0.746,-1.036 0.423,-1.592 0.101,-2.148 -0.612,-2.338 -1.168,-2.015 -1.725,-1.692 -1.915,-0.98 -1.592,-0.423 -1.269,0.133 -0.557,0.323 0,0" /></g><g
           transform="translate(138.7634,191.9356)"
           id="g346"><path
             id="path348"
             style="fill:#ffb31b;fill-opacity:1;fill-rule:nonzero;stroke:none"
             d="m 0,0 c 0.436,-0.473 0.406,-1.21 -0.067,-1.646 -0.473,-0.436 -1.21,-0.406 -1.646,0.067 -0.436,0.473 -0.406,1.21 0.067,1.646 C -1.173,0.503 -0.436,0.473 0,0" /></g><g
           transform="translate(141.0647,184.2276)"
           id="g350"><path
             id="path352"
             style="fill:#ffb31b;fill-opacity:1;fill-rule:nonzero;stroke:none"
             d="M 0,0 C 0.276,-0.581 0.03,-1.275 -0.551,-1.552 -1.132,-1.829 -1.827,-1.582 -2.104,-1.001 -2.38,-0.42 -2.133,0.275 -1.552,0.551 -0.972,0.828 -0.276,0.581 0,0" /></g><g
           transform="translate(140.9812,176.1842)"
           id="g354"><path
             id="path356"
             style="fill:#ffb31b;fill-opacity:1;fill-rule:nonzero;stroke:none"
             d="m 0,0 c 0.092,-0.637 -0.35,-1.228 -0.986,-1.319 -0.637,-0.093 -1.228,0.349 -1.32,0.986 -0.092,0.636 0.35,1.227 0.986,1.319 C -0.683,1.078 -0.092,0.637 0,0" /></g><g
           transform="translate(138.5198,168.5255)"
           id="g358"><path
             id="path360"
             style="fill:#ffb31b;fill-opacity:1;fill-rule:nonzero;stroke:none"
             d="m 0,0 c -0.101,-0.635 -0.697,-1.069 -1.333,-0.968 -0.635,0.1 -1.068,0.697 -0.968,1.332 C -2.2,1 -1.604,1.433 -0.968,1.333 -0.333,1.232 0.101,0.636 0,0" /></g><g
           transform="translate(133.9016,161.9395)"
           id="g362"><path
             id="path364"
             style="fill:#ffb31b;fill-opacity:1;fill-rule:nonzero;stroke:none"
             d="m 0,0 c -0.284,-0.578 -0.982,-0.815 -1.56,-0.531 -0.577,0.284 -0.814,0.983 -0.53,1.56 0.284,0.577 0.983,0.814 1.56,0.53 C 0.047,1.275 0.284,0.577 0,0" /></g><g
           transform="translate(127.5408,157.0152)"
           id="g366"><path
             id="path368"
             style="fill:#ffb31b;fill-opacity:1;fill-rule:nonzero;stroke:none"
             d="m 0,0 c -0.442,-0.467 -1.18,-0.487 -1.647,-0.045 -0.467,0.442 -0.487,1.179 -0.045,1.647 0.442,0.467 1.18,0.487 1.647,0.044 C 0.422,1.205 0.442,0.467 0,0" /></g><g
           transform="translate(120.0071,154.1954)"
           id="g370"><path
             id="path372"
             style="fill:#ffb31b;fill-opacity:1;fill-rule:nonzero;stroke:none"
             d="M 0,0 C -0.561,-0.315 -1.271,-0.117 -1.586,0.444 -1.901,1.005 -1.703,1.715 -1.142,2.03 -0.581,2.346 0.129,2.146 0.444,1.586 0.76,1.025 0.561,0.315 0,0" /></g><g
           transform="translate(111.9763,153.732)"
           id="g374"><path
             id="path376"
             style="fill:#ffb31b;fill-opacity:1;fill-rule:nonzero;stroke:none"
             d="M 0,0 C -0.629,-0.135 -1.249,0.265 -1.383,0.894 -1.519,1.523 -1.118,2.142 -0.489,2.277 0.14,2.413 0.759,2.012 0.894,1.383 1.029,0.754 0.629,0.135 0,0" /></g><g
           transform="translate(104.1682,155.6666)"
           id="g378"><path
             id="path380"
             style="fill:#ffb31b;fill-opacity:1;fill-rule:nonzero;stroke:none"
             d="M 0,0 C -0.641,0.057 -1.114,0.623 -1.057,1.264 -1,1.904 -0.434,2.377 0.207,2.32 0.848,2.263 1.321,1.698 1.264,1.057 1.207,0.416 0.641,-0.057 0,0" /></g><g
           transform="translate(97.2829,159.8267)"
           id="g382"><path
             id="path384"
             style="fill:#ffb31b;fill-opacity:1;fill-rule:nonzero;stroke:none"
             d="M 0,0 C -0.595,0.244 -0.879,0.924 -0.635,1.52 -0.391,2.115 0.29,2.399 0.885,2.155 1.48,1.911 1.764,1.23 1.52,0.635 1.276,0.04 0.595,-0.245 0,0" /></g><g
           transform="translate(91.9382,165.838)"
           id="g386"><path
             id="path388"
             style="fill:#ffb31b;fill-opacity:1;fill-rule:nonzero;stroke:none"
             d="M 0,0 C -0.496,0.41 -0.566,1.144 -0.157,1.64 0.252,2.136 0.987,2.206 1.483,1.797 1.979,1.387 2.049,0.653 1.64,0.157 1.23,-0.339 0.496,-0.409 0,0" /></g><g
           transform="translate(88.6125,173.1627)"
           id="g390"><path
             id="path392"
             style="fill:#ffb31b;fill-opacity:1;fill-rule:nonzero;stroke:none"
             d="M 0,0 C -0.353,0.538 -0.203,1.26 0.335,1.613 0.874,1.965 1.596,1.815 1.948,1.277 2.301,0.739 2.15,0.017 1.613,-0.335 1.075,-0.688 0.353,-0.538 0,0" /></g><g
           transform="translate(87.6042,181.1431)"
           id="g394"><path
             id="path396"
             style="fill:#ffb31b;fill-opacity:1;fill-rule:nonzero;stroke:none"
             d="M 0,0 C -0.178,0.619 0.18,1.264 0.798,1.441 1.417,1.619 2.062,1.262 2.239,0.643 2.417,0.025 2.06,-0.62 1.441,-0.798 0.823,-0.976 0.178,-0.618 0,0" /></g><g
           transform="translate(89.0041,189.065)"
           id="g398"><path
             id="path400"
             style="fill:#ffb31b;fill-opacity:1;fill-rule:nonzero;stroke:none"
             d="M 0,0 C 0.013,0.643 0.545,1.153 1.188,1.14 1.832,1.126 2.342,0.594 2.329,-0.049 2.315,-0.692 1.783,-1.203 1.14,-1.189 0.497,-1.176 -0.014,-0.644 0,0" /></g><g
           transform="translate(92.6863,196.2169)"
           id="g402"><path
             id="path404"
             style="fill:#ffb31b;fill-opacity:1;fill-rule:nonzero;stroke:none"
             d="M 0,0 C 0.203,0.61 0.862,0.94 1.473,0.737 2.083,0.534 2.413,-0.126 2.21,-0.736 2.007,-1.347 1.347,-1.676 0.737,-1.473 0.126,-1.27 -0.204,-0.61 0,0" /></g><g
           transform="translate(145.3274,64.0845)"
           id="g406"><path
             id="path408"
             style="fill:#56acde;fill-opacity:1;fill-rule:nonzero;stroke:none"
             d="m 0,0 -59.603,-59.603 c -5.976,-5.975 -15.664,-5.975 -21.64,0 L -140.846,0 c -5.975,5.976 -5.975,15.664 0,21.64 l 59.603,59.603 c 5.976,5.975 15.664,5.975 21.64,0 L 0,21.64 C 5.976,15.664 5.976,5.976 0,0" /></g></g></g><g
       id="g410"><g
         clip-path="url(#clipPath416)"
         id="g412"><g
           id="g418"><g
             id="g420" /><g
             mask="url(#mask432)"
             id="g444"><g
               id="g446"><path
                 id="path454"
                 style="fill:url(#linearGradient452);stroke:none"
                 d="M 64.085,145.327 4.482,85.724 c -5.976,-5.975 -5.976,-15.663 0,-21.639 v 0 L 64.085,4.482 c 5.976,-5.976 15.664,-5.976 21.639,0 v 0 l 59.603,59.603 c 5.976,5.976 5.976,15.664 0,21.639 v 0 l -59.603,59.603 c -2.987,2.988 -6.903,4.482 -10.819,4.482 v 0 c -3.916,0 -7.833,-1.494 -10.82,-4.482" /></g></g></g></g></g><g
       id="g456"><g
         clip-path="url(#clipPath462)"
         id="g458"><g
           transform="translate(141.7014,64.0845)"
           id="g464"><path
             id="path466"
             style="fill:none;stroke:#2b73b6;stroke-width:1;stroke-linecap:round;stroke-linejoin:round;stroke-miterlimit:4;stroke-dasharray:0.995, 3.979;stroke-dashoffset:0;stroke-opacity:1"
             d="m 0,0 -55.977,-55.978 c -5.976,-5.975 -15.664,-5.975 -21.64,0 L -133.594,0 c -5.976,5.976 -5.976,15.664 0,21.64 l 55.977,55.977 c 5.976,5.976 15.664,5.976 21.64,0 L 0,21.64 C 5.976,15.664 5.976,5.976 0,0 Z" /></g><g
           transform="translate(26.6545,30.2144)"
           id="g468"><path
             id="path470"
             style="fill:#660e80;fill-opacity:1;fill-rule:nonzero;stroke:none"
             d="m 0,0 v 0 c -5.883,5.871 -5.892,15.4 -0.02,21.282 l 45.657,45.744 c 5.872,5.883 15.401,5.892 21.283,0.021 5.883,-5.872 5.892,-15.401 0.02,-21.283 L 21.283,0.02 C 15.412,-5.863 5.883,-5.872 0,0" /></g><g
           transform="translate(91.7107,85.8687)"
           id="g472"><path
             id="path474"
             style="fill:#ffe65b;fill-opacity:1;fill-rule:nonzero;stroke:none"
             d="m 0,0 c 0,-5.384 -4.364,-9.747 -9.748,-9.747 -5.383,0 -9.747,4.363 -9.747,9.747 0,5.384 4.364,9.748 9.747,9.748 C -4.364,9.748 0,5.384 0,0" /></g><g
           id="g476"><g
             id="g478" /><g
             id="g490"><g
               style="opacity:0.30000299"
               id="g488"
               clip-path="url(#clipPath482)"><g
                 id="g486"
                 transform="translate(83.9822,90.4078)"><path
                   id="path484"
                   style="fill:#ffffff;fill-opacity:1;fill-rule:nonzero;stroke:none"
                   d="m 0,0 c 0,-2.507 -2.032,-4.539 -4.539,-4.539 -2.506,0 -4.539,2.032 -4.539,4.539 0,2.507 2.033,4.539 4.539,4.539 C -2.032,4.539 0,2.507 0,0" /></g></g></g></g></g></g></g></svg>