<?xml version="1.0" encoding="UTF-8" standalone="no"?>
<svg
   xmlns:dc="http://purl.org/dc/elements/1.1/"
   xmlns:cc="http://creativecommons.org/ns#"
   xmlns:rdf="http://www.w3.org/1999/02/22-rdf-syntax-ns#"
   xmlns:svg="http://www.w3.org/2000/svg"
   xmlns="http://www.w3.org/2000/svg"
   viewBox="0 0 191.20132 189.73734"
   height="189.73734"
   width="191.20132"
   xml:space="preserve"
   id="svg2"
   version="1.1"><metadata
     id="metadata8"><rdf:RDF><cc:Work
         rdf:about=""><dc:format>image/svg+xml</dc:format><dc:type
           rdf:resource="http://purl.org/dc/dcmitype/StillImage" /></cc:Work></rdf:RDF></metadata><defs
     id="defs6"><clipPath
       id="clipPath18"
       clipPathUnits="userSpaceOnUse"><path
         id="path16"
         d="M 79.794,109.487 79.792,75.12 64.059,65.973 v 34.372 z" /></clipPath><linearGradient
       id="linearGradient28"
       spreadMethod="pad"
       gradientTransform="matrix(21.908197,-51.503475,-51.503475,-21.908197,62.347519,110.24989)"
       gradientUnits="userSpaceOnUse"
       y2="0"
       x2="1"
       y1="0"
       x1="0"><stop
         id="stop24"
         offset="0"
         style="stop-opacity:1;stop-color:#ff99c7" /><stop
         id="stop26"
         offset="1"
         style="stop-opacity:1;stop-color:#ed5599" /></linearGradient><clipPath
       id="clipPath38"
       clipPathUnits="userSpaceOnUse"><path
         id="path36"
         d="M 64.059,100.345 V 65.973 l -15.846,9.149 v 34.374 z" /></clipPath><linearGradient
       id="linearGradient48"
       spreadMethod="pad"
       gradientTransform="matrix(12.927488,-47.596493,-47.596493,-12.927488,46.324753,123.85596)"
       gradientUnits="userSpaceOnUse"
       y2="0"
       x2="1"
       y1="0"
       x1="0"><stop
         id="stop44"
         offset="0"
         style="stop-opacity:1;stop-color:#ff99c7" /><stop
         id="stop46"
         offset="1"
         style="stop-opacity:1;stop-color:#ed5599" /></linearGradient><clipPath
       id="clipPath58"
       clipPathUnits="userSpaceOnUse"><path
         id="path56"
         d="M 0,142.303 H 143.401 V 0 H 0 Z" /></clipPath><clipPath
       id="clipPath66"
       clipPathUnits="userSpaceOnUse"><path
         id="path64"
         d="M 48.2124,109.496 H 79.7945 V 99.8137 H 48.2124 Z" /></clipPath><clipPath
       id="clipPath82"
       clipPathUnits="userSpaceOnUse"><path
         id="path80"
         d="m 79.794,109.487 -15.735,-9.142 -15.846,9.151 15.736,9.142 z" /></clipPath><linearGradient
       id="linearGradient92"
       spreadMethod="pad"
       gradientTransform="matrix(73.744507,-10.01874,-10.01874,-73.744507,62.765045,109.65991)"
       gradientUnits="userSpaceOnUse"
       y2="0"
       x2="1"
       y1="0"
       x1="0"><stop
         id="stop88"
         offset="0"
         style="stop-opacity:1;stop-color:#ff99c7" /><stop
         id="stop90"
         offset="1"
         style="stop-opacity:1;stop-color:#ed5599" /></linearGradient><clipPath
       id="clipPath102"
       clipPathUnits="userSpaceOnUse"><path
         id="path100"
         d="M 100.998,133.153 V 62.878 L 85.264,53.734 v 70.276 z" /></clipPath><linearGradient
       id="linearGradient112"
       spreadMethod="pad"
       gradientTransform="matrix(15.733778,0,0,-15.733778,85.264252,93.44339)"
       gradientUnits="userSpaceOnUse"
       y2="0"
       x2="1"
       y1="0"
       x1="0"><stop
         id="stop108"
         offset="0"
         style="stop-opacity:1;stop-color:#ffa408" /><stop
         id="stop110"
         offset="1"
         style="stop-opacity:1;stop-color:#ffdb0d" /></linearGradient><clipPath
       id="clipPath122"
       clipPathUnits="userSpaceOnUse"><path
         id="path120"
         d="M 85.264,124.01 V 53.734 l -15.847,9.148 0.003,70.275 z" /></clipPath><linearGradient
       id="linearGradient132"
       spreadMethod="pad"
       gradientTransform="matrix(-39.866253,122.64183,122.64183,39.866253,97.648743,30.97224)"
       gradientUnits="userSpaceOnUse"
       y2="0"
       x2="1"
       y1="0"
       x1="0"><stop
         id="stop128"
         offset="0"
         style="stop-opacity:1;stop-color:#ffa408" /><stop
         id="stop130"
         offset="1"
         style="stop-opacity:1;stop-color:#ffdb0d" /></linearGradient><clipPath
       id="clipPath142"
       clipPathUnits="userSpaceOnUse"><path
         id="path140"
         d="M 0,142.303 H 143.401 V 0 H 0 Z" /></clipPath><clipPath
       id="clipPath150"
       clipPathUnits="userSpaceOnUse"><path
         id="path148"
         d="m 69.4174,133.157 h 31.5806 v -9.702 H 69.4174 Z" /></clipPath><clipPath
       id="clipPath166"
       clipPathUnits="userSpaceOnUse"><path
         id="path164"
         d="m 85.154,142.303 -15.734,-9.145 15.844,-9.148 15.734,9.143 z" /></clipPath><linearGradient
       id="linearGradient176"
       spreadMethod="pad"
       gradientTransform="matrix(-49.70501,0,0,49.70501,129.22723,133.1566)"
       gradientUnits="userSpaceOnUse"
       y2="0"
       x2="1"
       y1="0"
       x1="0"><stop
         id="stop172"
         offset="0"
         style="stop-opacity:1;stop-color:#ffa408" /><stop
         id="stop174"
         offset="1"
         style="stop-opacity:1;stop-color:#ffdb0d" /></linearGradient><clipPath
       id="clipPath186"
       clipPathUnits="userSpaceOnUse"><path
         id="path184"
         d="M 122.196,79.134 122.195,50.639 106.462,41.495 V 69.993 Z" /></clipPath><linearGradient
       id="linearGradient196"
       spreadMethod="pad"
       gradientTransform="matrix(35.680267,-16.442034,-16.442034,-35.680267,108.37861,63.056549)"
       gradientUnits="userSpaceOnUse"
       y2="0"
       x2="1"
       y1="0"
       x1="0"><stop
         id="stop192"
         offset="0"
         style="stop-opacity:1;stop-color:#0080ff" /><stop
         id="stop194"
         offset="1"
         style="stop-opacity:1;stop-color:#14dcff" /></linearGradient><clipPath
       id="clipPath206"
       clipPathUnits="userSpaceOnUse"><path
         id="path204"
         d="M 106.462,69.993 V 41.495 l -15.836,9.144 v 28.495 z" /></clipPath><linearGradient
       id="linearGradient216"
       spreadMethod="pad"
       gradientTransform="matrix(-17.82147,42.876392,42.876392,17.82147,105.18678,44.334976)"
       gradientUnits="userSpaceOnUse"
       y2="0"
       x2="1"
       y1="0"
       x1="0"><stop
         id="stop212"
         offset="0"
         style="stop-opacity:1;stop-color:#0080ff" /><stop
         id="stop214"
         offset="1"
         style="stop-opacity:1;stop-color:#14dcff" /></linearGradient><clipPath
       id="clipPath226"
       clipPathUnits="userSpaceOnUse"><path
         id="path224"
         d="M 0,142.303 H 143.401 V 0 H 0 Z" /></clipPath><clipPath
       id="clipPath234"
       clipPathUnits="userSpaceOnUse"><path
         id="path232"
         d="M 90.6265,79.1342 H 122.196 V 69.171 H 90.6265 Z" /></clipPath><clipPath
       id="clipPath250"
       clipPathUnits="userSpaceOnUse"><path
         id="path248"
         d="m 122.196,79.134 -15.734,-9.141 -15.836,9.141 15.733,9.145 z" /></clipPath><linearGradient
       id="linearGradient260"
       spreadMethod="pad"
       gradientTransform="matrix(-54.353611,-0.4926471,-0.4926471,54.353611,163.92529,79.657547)"
       gradientUnits="userSpaceOnUse"
       y2="0"
       x2="1"
       y1="0"
       x1="0"><stop
         id="stop256"
         offset="0"
         style="stop-opacity:1;stop-color:#0080ff" /><stop
         id="stop258"
         offset="1"
         style="stop-opacity:1;stop-color:#14dcff" /></linearGradient><clipPath
       id="clipPath270"
       clipPathUnits="userSpaceOnUse"><path
         id="path268"
         d="M 127.669,76.508 V 29.25 l 15.732,9.143 v 47.256 z" /></clipPath><linearGradient
       id="linearGradient280"
       spreadMethod="pad"
       gradientTransform="matrix(-0.4196324,-46.058426,-46.058426,0.4196324,135.74644,80.691795)"
       gradientUnits="userSpaceOnUse"
       y2="0"
       x2="1"
       y1="0"
       x1="0"><stop
         id="stop276"
         offset="0"
         style="stop-opacity:1;stop-color:#96df78" /><stop
         id="stop278"
         offset="1"
         style="stop-opacity:1;stop-color:#76cb74" /></linearGradient><clipPath
       id="clipPath290"
       clipPathUnits="userSpaceOnUse"><path
         id="path288"
         d="M 127.668,76.508 V 29.25 l -15.847,9.147 v 47.259 z" /></clipPath><linearGradient
       id="linearGradient300"
       spreadMethod="pad"
       gradientTransform="matrix(-31.415943,61.074272,61.074272,31.415943,129.88301,37.743763)"
       gradientUnits="userSpaceOnUse"
       y2="0"
       x2="1"
       y1="0"
       x1="0"><stop
         id="stop296"
         offset="0"
         style="stop-opacity:1;stop-color:#468e53" /><stop
         id="stop298"
         offset="1"
         style="stop-opacity:1;stop-color:#76cb74" /></linearGradient><clipPath
       id="clipPath310"
       clipPathUnits="userSpaceOnUse"><path
         id="path308"
         d="M 0,142.303 H 143.401 V 0 H 0 Z" /></clipPath><clipPath
       id="clipPath318"
       clipPathUnits="userSpaceOnUse"><path
         id="path316"
         d="m 111.822,85.6564 h 31.579 v -9.6921 h -31.579 z" /></clipPath><clipPath
       id="clipPath334"
       clipPathUnits="userSpaceOnUse"><path
         id="path332"
         d="m 111.821,85.657 15.848,-9.149 15.732,9.141 -15.847,9.15 z" /></clipPath><linearGradient
       id="linearGradient344"
       spreadMethod="pad"
       gradientTransform="matrix(31.579229,0,0,-31.579229,111.8217,85.65345)"
       gradientUnits="userSpaceOnUse"
       y2="0"
       x2="1"
       y1="0"
       x1="0"><stop
         id="stop340"
         offset="0"
         style="stop-opacity:1;stop-color:#96df78" /><stop
         id="stop342"
         offset="1"
         style="stop-opacity:1;stop-color:#76cb74" /></linearGradient><clipPath
       id="clipPath354"
       clipPathUnits="userSpaceOnUse"><path
         id="path352"
         d="M 0,142.303 H 143.401 V 0 H 0 Z" /></clipPath><clipPath
       id="clipPath362"
       clipPathUnits="userSpaceOnUse"><path
         id="path360"
         d="M 0,97.8898 H 68.3769 V 21.6183 H 0 Z" /></clipPath><clipPath
       id="clipPath366"
       clipPathUnits="userSpaceOnUse"><path
         id="path364"
         d="m 61.214,97.813 c -0.205,0.12 -0.488,0.104 -0.802,-0.079 L 1.122,63.504 C 0.503,63.146 -0.002,62.279 0,61.568 V 26.389 c 0.002,-0.356 0.125,-0.606 0.327,-0.722 2.164,-1.258 4.33,-2.515 6.494,-3.775 0.103,-0.059 0.238,-0.138 0.342,-0.198 -0.202,0.117 -0.327,0.367 -0.328,0.72 l 0.001,35.182 c -0.003,0.712 0.501,1.577 1.121,1.936 l 59.291,34.231 c 0.313,0.18 0.598,0.199 0.801,0.079 -2.278,1.324 -4.556,2.648 -6.835,3.971" /></clipPath><linearGradient
       id="linearGradient372"
       spreadMethod="pad"
       gradientTransform="matrix(-52.93824,-60.111122,-60.111122,52.93824,53.312199,98.50325)"
       gradientUnits="userSpaceOnUse"
       y2="0"
       x2="1"
       y1="0"
       x1="0"><stop
         id="stop368"
         offset="0"
         style="stop-opacity:1;stop-color:#96df78" /><stop
         id="stop370"
         offset="1"
         style="stop-opacity:1;stop-color:#76cb74" /></linearGradient><clipPath
       id="clipPath376"
       clipPathUnits="userSpaceOnUse"><path
         id="path374"
         d="m 6.5498,94.1179 h 61.499 V 21.8089 H 6.5498 Z" /></clipPath><clipPath
       id="clipPath380"
       clipPathUnits="userSpaceOnUse"><path
         id="path378"
         d="m 67.248,93.763 c 0.618,0.358 1.127,0.075 1.129,-0.638 v -35.18 c 0,-0.716 -0.504,-1.584 -1.122,-1.94 L 7.964,21.774 c -0.62,-0.36 -1.126,-0.076 -1.129,0.64 l 0.001,35.182 c -0.003,0.712 0.501,1.577 1.121,1.936 z" /></clipPath><linearGradient
       id="linearGradient386"
       spreadMethod="pad"
       gradientTransform="matrix(-1.1113362,58.292587,58.292587,1.1113362,38.26469,23.215237)"
       gradientUnits="userSpaceOnUse"
       y2="0"
       x2="1"
       y1="0"
       x1="0"><stop
         id="stop382"
         offset="0"
         style="stop-opacity:1;stop-color:#468e53" /><stop
         id="stop384"
         offset="1"
         style="stop-opacity:1;stop-color:#76cb74" /></linearGradient><clipPath
       id="clipPath390"
       clipPathUnits="userSpaceOnUse"><path
         id="path388"
         d="m 56.492,64.178 c -2.141,-1.237 -3.885,-0.243 -3.892,2.218 -0.007,2.46 1.725,5.463 3.866,6.699 2.143,1.237 3.887,0.242 3.894,-2.219 0.007,-2.459 -1.726,-5.461 -3.868,-6.698 M 37.682,48.481 c -4.462,-2.577 -8.099,-0.51 -8.113,4.619 -0.014,5.129 3.597,11.382 8.06,13.96 4.464,2.577 8.097,0.507 8.113,-4.622 0.013,-5.13 -3.597,-11.38 -8.06,-13.957 m -18.838,-6.04 c -2.143,-1.237 -3.885,-0.242 -3.893,2.218 -0.006,2.461 1.726,5.463 3.869,6.698 2.139,1.236 3.884,0.244 3.892,-2.218 0.007,-2.459 -1.727,-5.463 -3.868,-6.698 m 46.963,41.818 c -0.002,0.403 -0.179,0.812 -0.668,0.589 -1.732,-0.674 -3.092,0.103 -3.387,1.916 -0.047,0.39 -0.384,0.557 -0.904,0.257 L 14.374,60.19 c -0.521,-0.3 -0.855,-0.857 -0.9,-1.298 C 13.19,56.745 11.838,54.401 10.114,53.079 9.62,52.734 9.45,52.129 9.451,51.725 L 9.509,31.283 c 0,-0.402 0.174,-0.813 0.671,-0.592 1.723,0.668 3.084,-0.107 3.38,-1.914 0.047,-0.396 0.384,-0.558 0.904,-0.256 l 46.475,26.831 c 0.519,0.301 0.854,0.852 0.904,1.296 0.278,2.143 1.631,4.486 3.354,5.814 0.494,0.344 0.668,0.956 0.667,1.358 z" /></clipPath><linearGradient
       id="linearGradient396"
       spreadMethod="pad"
       gradientTransform="matrix(34.551418,45.765472,45.765472,-34.551418,17.550404,31.139368)"
       gradientUnits="userSpaceOnUse"
       y2="0"
       x2="1"
       y1="0"
       x1="0"><stop
         id="stop392"
         offset="0"
         style="stop-opacity:1;stop-color:#a1ffa7" /><stop
         id="stop394"
         offset="1"
         style="stop-opacity:1;stop-color:#d5ffc4" /></linearGradient><clipPath
       id="clipPath400"
       clipPathUnits="userSpaceOnUse"><path
         id="path398"
         d="m 36.986,59.186 c 0,0.375 0.292,0.726 0.731,0.981 0.54,0.313 1.425,0.495 2.127,0.433 l 0.631,1.884 c -0.569,0.094 -1.349,-0.047 -2.15,-0.409 l -0.004,1.554 -1.249,-0.722 0.005,-1.611 c -1.149,-0.915 -1.865,-2.134 -1.862,-3.304 0.009,-2.704 3.515,0.129 3.52,-1.222 10e-4,-0.433 -0.33,-0.855 -0.868,-1.165 -0.69,-0.398 -1.713,-0.534 -2.4,-0.243 l -0.652,-1.871 c 0.61,-0.224 1.426,-0.168 2.285,0.171 l 0.004,-1.689 1.247,0.721 -0.003,1.648 c 1.242,0.879 2.163,2.2 2.16,3.552 -0.009,2.758 -3.519,-0.023 -3.522,1.292" /></clipPath><linearGradient
       id="linearGradient406"
       spreadMethod="pad"
       gradientTransform="matrix(34.555416,45.770767,45.770767,-34.555416,17.569054,31.120398)"
       gradientUnits="userSpaceOnUse"
       y2="0"
       x2="1"
       y1="0"
       x1="0"><stop
         id="stop402"
         offset="0"
         style="stop-opacity:1;stop-color:#a1ffa7" /><stop
         id="stop404"
         offset="1"
         style="stop-opacity:1;stop-color:#d5ffc4" /></linearGradient><clipPath
       id="clipPath470"
       clipPathUnits="userSpaceOnUse"><path
         id="path468"
         d="M 71.529,59.487 12.624,25.254 c -0.616,-0.357 -0.612,-0.941 0.008,-1.3 v 0 L 43.249,6.278 c 0.617,-0.356 1.625,-0.356 2.241,0 v 0 l 58.905,34.233 c 0.615,0.358 0.612,0.943 -0.008,1.298 v 0 L 73.772,59.487 c -0.309,0.179 -0.716,0.268 -1.123,0.268 v 0 c -0.406,0 -0.812,-0.089 -1.12,-0.268" /></clipPath><linearGradient
       id="linearGradient480"
       spreadMethod="pad"
       gradientTransform="matrix(-56.372997,-42.734405,-42.734405,56.372997,77.608833,47.361099)"
       gradientUnits="userSpaceOnUse"
       y2="0"
       x2="1"
       y1="0"
       x1="0"><stop
         id="stop476"
         offset="0"
         style="stop-opacity:1;stop-color:#96df78" /><stop
         id="stop478"
         offset="1"
         style="stop-opacity:1;stop-color:#76cb74" /></linearGradient><clipPath
       id="clipPath490"
       clipPathUnits="userSpaceOnUse"><path
         id="path488"
         d="M 104.395,40.511 45.49,6.278 c -0.616,-0.356 -1.624,-0.356 -2.241,0 v 0 L 12.632,23.954 c -0.312,0.181 -0.467,0.42 -0.467,0.655 v 0 -6.011 c 0,-0.236 0.155,-0.475 0.467,-0.656 v 0 L 43.249,0.267 C 43.545,0.096 43.932,0.007 44.322,0 v 0 h 0.094 c 0.391,0.007 0.778,0.096 1.074,0.269 v 0 L 104.395,34.5 c 0.305,0.178 0.458,0.412 0.458,0.647 v 0 6.007 c 0,-0.232 -0.153,-0.464 -0.458,-0.643" /></clipPath><linearGradient
       id="linearGradient500"
       spreadMethod="pad"
       gradientTransform="matrix(92.6875,0,0,-92.6875,12.165006,20.577312)"
       gradientUnits="userSpaceOnUse"
       y2="0"
       x2="1"
       y1="0"
       x1="0"><stop
         id="stop496"
         offset="0"
         style="stop-opacity:1;stop-color:#468e53" /><stop
         id="stop498"
         offset="1"
         style="stop-opacity:1;stop-color:#76cb74" /></linearGradient><clipPath
       id="clipPath510"
       clipPathUnits="userSpaceOnUse"><path
         id="path508"
         d="M 0,142.303 H 143.401 V 0 H 0 Z" /></clipPath><clipPath
       id="clipPath518"
       clipPathUnits="userSpaceOnUse"><path
         id="path516"
         d="m 12.164,41.0238 h 92.668 V 5.58089 H 12.164 Z" /></clipPath><clipPath
       id="clipPath534"
       clipPathUnits="userSpaceOnUse"><path
         id="path532"
         d="m 55.784,35.24 -1.358,0.784 -1.24,-0.721 1.408,-0.812 C 53.667,33.7 53.651,32.879 54.667,32.29 v 0 c 1.292,-0.746 2.715,-0.348 3.931,0.05 v 0 c 0.999,0.326 1.858,0.652 2.389,0.346 v 0 c 0.378,-0.219 0.245,-0.526 -0.284,-0.832 v 0 c -0.687,-0.4 -2.109,-0.762 -3.378,-0.812 v 0 l 0.648,-1.13 c 1.107,0.063 2.275,0.326 3.262,0.744 v 0 l 1.472,-0.849 1.239,0.72 -1.435,0.829 c 1.096,0.798 1.328,1.726 0.151,2.407 v 0 c -1.326,0.765 -2.785,0.371 -4.019,-0.021 v 0 c -0.998,-0.318 -1.849,-0.635 -2.362,-0.339 v 0 c -0.324,0.187 -0.198,0.451 0.239,0.705 v 0 c 0.536,0.313 1.702,0.657 2.808,0.826 v 0 l -0.689,1.127 C 57.708,35.946 56.664,35.653 55.784,35.24" /></clipPath><linearGradient
       id="linearGradient544"
       spreadMethod="pad"
       gradientTransform="matrix(40.310139,34.248428,34.248428,-40.310139,32.744953,10.977272)"
       gradientUnits="userSpaceOnUse"
       y2="0"
       x2="1"
       y1="0"
       x1="0"><stop
         id="stop540"
         offset="0"
         style="stop-opacity:1;stop-color:#a1ffa7" /><stop
         id="stop542"
         offset="1"
         style="stop-opacity:1;stop-color:#d5ffc4" /></linearGradient><clipPath
       id="clipPath554"
       clipPathUnits="userSpaceOnUse"><path
         id="path552"
         d="m 76.094,54.391 c -1.991,-0.834 -4.695,-0.834 -6.707,-0.006 v 0 c -0.408,0.183 -1.056,0.169 -1.575,-0.131 v 0 L 21.644,27.423 c -0.519,-0.3 -0.537,-0.677 -0.227,-0.908 v 0 c 1.441,-1.167 1.449,-2.734 0.022,-3.892 v 0 c -0.165,-0.117 -0.228,-0.238 -0.228,-0.358 v 0 c 0,-0.011 0.001,-0.022 0.001,-0.034 v 0 -0.003 c 0.002,-0.01 0.004,-0.02 0.007,-0.03 v 0 c 0,-0.004 10e-4,-0.008 0.002,-0.011 v 0 c 0.004,-0.007 0.004,-0.016 0.007,-0.024 v 0 c 0.002,-0.004 0.004,-0.008 0.005,-0.011 v 0 c 0.003,-0.008 0.005,-0.017 0.009,-0.025 v 0 c 10e-4,-0.002 0.003,-0.004 0.004,-0.008 v 0 c 0.004,-0.011 0.01,-0.022 0.016,-0.033 v 0 c 0,-0.002 0.002,-0.004 0.002,-0.005 v 0 c 0.006,-0.01 0.01,-0.017 0.017,-0.027 v 0 c 0.001,-0.002 0.004,-0.007 0.007,-0.01 v 0 c 0.005,-0.007 0.009,-0.016 0.015,-0.023 v 0 c 0.003,-0.003 0.004,-0.007 0.008,-0.011 v 0 c 0.007,-0.005 0.013,-0.014 0.018,-0.021 v 0 c 0.003,-0.004 0.006,-0.007 0.007,-0.008 v 0 c 0.007,-0.011 0.016,-0.02 0.027,-0.029 v 0 c 0.001,-0.004 0.005,-0.006 0.007,-0.008 v 0 c 0.006,-0.007 0.014,-0.016 0.021,-0.022 v 0 c 0.005,-0.004 0.007,-0.007 0.013,-0.01 v 0 c 0.006,-0.007 0.013,-0.014 0.02,-0.02 v 0 c 0.003,-0.002 0.006,-0.005 0.01,-0.009 v 0 c 0.009,-0.007 0.018,-0.015 0.029,-0.024 v 0 c 0.002,0 0.004,-0.002 0.004,-0.002 v 0 c 0.011,-0.011 0.021,-0.018 0.034,-0.026 v 0 c 0.003,-0.002 0.007,-0.006 0.011,-0.008 v 0 c 0.009,-0.005 0.017,-0.012 0.026,-0.018 v 0 c 0.003,-0.003 0.008,-0.005 0.01,-0.008 v 0 c 0.01,-0.006 0.019,-0.011 0.027,-0.017 v 0 c 0.005,-0.002 0.009,-0.004 0.013,-0.006 v 0 c 0.013,-0.009 0.023,-0.017 0.036,-0.024 v 0 L 39.412,11.48 c 0.351,-0.201 0.963,-0.36 1.506,-0.111 v 0 c 1.996,0.838 4.708,0.834 6.713,0.01 v 0 c 0.413,-0.186 1.055,-0.169 1.572,0.132 v 0 l 46.171,26.831 c 0.517,0.3 0.543,0.674 0.226,0.908 v 0 c -1.436,1.164 -1.449,2.732 -0.021,3.891 v 0 c 0.44,0.316 0.166,0.671 -0.185,0.874 v 0 L 77.607,54.284 c -0.221,0.129 -0.547,0.239 -0.895,0.239 v 0 c -0.204,0 -0.415,-0.038 -0.618,-0.132 m -2.735,-12.88 c -2.149,1.238 -2.153,3.243 -0.026,4.479 v 0 c 2.128,1.236 5.588,1.239 7.735,0 v 0 c 2.142,-1.236 2.148,-3.24 0.02,-4.478 v 0 c -1.064,-0.619 -2.464,-0.929 -3.865,-0.929 v 0 c -1.397,0 -2.795,0.309 -3.864,0.928 M 50.478,28.212 c -0.83,0.479 -1.505,1.013 -2.029,1.581 v 0 c -2.293,2.495 -1.635,5.657 1.975,7.757 v 0 c 2.96,1.718 7.158,2.29 10.951,1.716 v 0 c 0.055,-0.007 0.109,-0.016 0.165,-0.025 v 0 c 0.288,-0.046 0.574,-0.098 0.856,-0.158 v 0 c 0.077,-0.017 0.152,-0.034 0.227,-0.05 v 0 c 0.092,-0.021 0.184,-0.043 0.273,-0.064 v 0 c 0.238,-0.058 0.473,-0.121 0.705,-0.189 v 0 c 0.198,-0.058 0.395,-0.12 0.587,-0.184 v 0 c 0.517,-0.172 1.013,-0.368 1.489,-0.593 v 0 c 0.074,-0.035 0.147,-0.072 0.22,-0.108 v 0 c 0.15,-0.073 0.294,-0.149 0.438,-0.227 v 0 c 0.07,-0.038 0.139,-0.079 0.21,-0.118 v 0 c 0.348,-0.204 0.67,-0.413 0.966,-0.633 v 0 c 0.116,-0.087 0.229,-0.176 0.339,-0.266 v 0 c 0.109,-0.091 0.213,-0.181 0.314,-0.273 v 0 c 2.259,-2.086 2.32,-4.74 0.182,-6.85 v 0 c -0.002,0 -0.002,-10e-4 -0.003,-0.003 v 0 c -0.259,-0.251 -0.549,-0.496 -0.868,-0.733 v 0 c -0.093,-0.069 -0.191,-0.138 -0.287,-0.204 v 0 c -0.065,-0.042 -0.127,-0.084 -0.194,-0.126 v 0 C 66.865,28.378 66.73,28.295 66.593,28.215 v 0 C 65.969,27.854 65.29,27.542 64.572,27.279 v 0 c -0.16,-0.056 -0.322,-0.111 -0.485,-0.163 v 0 C 63.84,27.037 63.594,26.962 63.341,26.894 v 0 c -0.169,-0.045 -0.339,-0.089 -0.509,-0.129 v 0 c -0.171,-0.04 -0.346,-0.078 -0.519,-0.112 v 0 c -1.219,-0.248 -2.497,-0.372 -3.775,-0.372 v 0 c -2.914,0 -5.83,0.643 -8.06,1.931 M 35.954,19.771 c -2.147,1.24 -2.153,3.246 -0.025,4.481 v 0 c 2.128,1.236 5.589,1.241 7.736,0 v 0 c 2.14,-1.235 2.148,-3.241 0.021,-4.477 v 0 C 42.62,19.156 41.22,18.846 39.819,18.846 v 0 c -1.397,0 -2.796,0.308 -3.865,0.925" /></clipPath><linearGradient
       id="linearGradient564"
       spreadMethod="pad"
       gradientTransform="matrix(40.309528,34.247909,34.247909,-40.309528,32.738106,10.987145)"
       gradientUnits="userSpaceOnUse"
       y2="0"
       x2="1"
       y1="0"
       x1="0"><stop
         id="stop560"
         offset="0"
         style="stop-opacity:1;stop-color:#a1ffa7" /><stop
         id="stop562"
         offset="1"
         style="stop-opacity:1;stop-color:#d5ffc4" /></linearGradient><clipPath
       id="clipPath574"
       clipPathUnits="userSpaceOnUse"><path
         id="path572"
         d="M 71.529,66.227 12.624,31.995 c -0.616,-0.357 -0.612,-0.941 0.008,-1.3 v 0 L 43.249,13.018 c 0.617,-0.357 1.625,-0.357 2.241,0 v 0 l 58.905,34.235 c 0.615,0.356 0.612,0.941 -0.008,1.297 v 0 L 73.772,66.227 c -0.309,0.179 -0.716,0.268 -1.123,0.268 v 0 c -0.406,0 -0.812,-0.089 -1.12,-0.268" /></clipPath><linearGradient
       id="linearGradient584"
       spreadMethod="pad"
       gradientTransform="matrix(-56.373203,-42.734562,-42.734562,56.373203,77.608627,54.10207)"
       gradientUnits="userSpaceOnUse"
       y2="0"
       x2="1"
       y1="0"
       x1="0"><stop
         id="stop580"
         offset="0"
         style="stop-opacity:1;stop-color:#96df78" /><stop
         id="stop582"
         offset="1"
         style="stop-opacity:1;stop-color:#76cb74" /></linearGradient><clipPath
       id="clipPath594"
       clipPathUnits="userSpaceOnUse"><path
         id="path592"
         d="M 104.395,47.253 45.49,13.018 c -0.616,-0.357 -1.624,-0.357 -2.241,0 v 0 L 12.632,30.695 c -0.312,0.18 -0.467,0.418 -0.467,0.654 v 0 -6.011 c 0,-0.236 0.155,-0.473 0.467,-0.654 v 0 L 43.249,7.009 C 43.866,6.653 44.876,6.653 45.49,7.01 v 0 l 58.905,34.231 c 0.305,0.177 0.458,0.412 0.458,0.643 v 0 6.012 c 0,-0.234 -0.153,-0.466 -0.458,-0.643" /></clipPath><linearGradient
       id="linearGradient604"
       spreadMethod="pad"
       gradientTransform="matrix(92.6875,0,0,-92.6875,12.165006,27.319387)"
       gradientUnits="userSpaceOnUse"
       y2="0"
       x2="1"
       y1="0"
       x1="0"><stop
         id="stop600"
         offset="0"
         style="stop-opacity:1;stop-color:#468e53" /><stop
         id="stop602"
         offset="1"
         style="stop-opacity:1;stop-color:#76cb74" /></linearGradient><clipPath
       id="clipPath614"
       clipPathUnits="userSpaceOnUse"><path
         id="path612"
         d="M 0,142.303 H 143.401 V 0 H 0 Z" /></clipPath><clipPath
       id="clipPath622"
       clipPathUnits="userSpaceOnUse"><path
         id="path620"
         d="m 12.164,47.765 h 92.668 V 12.3222 H 12.164 Z" /></clipPath><clipPath
       id="clipPath638"
       clipPathUnits="userSpaceOnUse"><path
         id="path636"
         d="m 55.784,41.98 -1.358,0.785 -1.24,-0.721 1.408,-0.814 c -0.927,-0.79 -0.943,-1.61 0.073,-2.198 v 0 c 1.292,-0.747 2.716,-0.349 3.932,0.049 v 0 c 0.998,0.326 1.857,0.653 2.388,0.347 v 0 c 0.378,-0.219 0.245,-0.527 -0.284,-0.835 v 0 c -0.687,-0.398 -2.109,-0.76 -3.378,-0.81 v 0 l 0.648,-1.129 c 1.107,0.063 2.275,0.325 3.262,0.743 v 0 l 1.472,-0.851 1.239,0.723 -1.435,0.827 c 1.096,0.798 1.328,1.729 0.151,2.408 v 0 c -1.325,0.764 -2.785,0.371 -4.018,-0.022 v 0 c -0.999,-0.318 -1.85,-0.636 -2.363,-0.339 v 0 c -0.324,0.189 -0.198,0.452 0.239,0.705 v 0 c 0.536,0.313 1.702,0.655 2.808,0.826 v 0 l -0.689,1.128 c -0.931,-0.115 -1.975,-0.41 -2.855,-0.822" /></clipPath><linearGradient
       id="linearGradient648"
       spreadMethod="pad"
       gradientTransform="matrix(40.311603,34.249672,34.249672,-40.311603,32.744049,17.717701)"
       gradientUnits="userSpaceOnUse"
       y2="0"
       x2="1"
       y1="0"
       x1="0"><stop
         id="stop644"
         offset="0"
         style="stop-opacity:1;stop-color:#a1ffa7" /><stop
         id="stop646"
         offset="1"
         style="stop-opacity:1;stop-color:#d5ffc4" /></linearGradient><clipPath
       id="clipPath658"
       clipPathUnits="userSpaceOnUse"><path
         id="path656"
         d="m 76.094,61.133 c -1.991,-0.835 -4.695,-0.835 -6.707,-0.008 v 0 c -0.408,0.183 -1.056,0.17 -1.575,-0.129 v 0 L 21.644,34.163 c -0.519,-0.301 -0.537,-0.676 -0.227,-0.91 v 0 c 1.441,-1.163 1.449,-2.731 0.022,-3.888 v 0 c -0.165,-0.119 -0.228,-0.24 -0.228,-0.359 v 0 c 0,-0.011 0.001,-0.023 0.001,-0.032 v 0 -0.005 c 0.002,-0.011 0.004,-0.021 0.007,-0.03 v 0 c 0,-0.004 10e-4,-0.008 0.002,-0.011 v 0 c 0.004,-0.01 0.004,-0.016 0.007,-0.024 v 0 c 0.002,-0.004 0.004,-0.009 0.005,-0.011 v 0 c 0.003,-0.008 0.005,-0.016 0.009,-0.025 v 0 c 10e-4,-0.002 0.003,-0.006 0.004,-0.009 v 0 c 0.004,-0.01 0.01,-0.021 0.016,-0.034 v 0 c 0,0 0.002,-0.002 0.002,-0.003 v 0 c 0.006,-0.009 0.01,-0.018 0.017,-0.027 v 0 c 0.001,-0.003 0.004,-0.008 0.007,-0.012 v 0 c 0.005,-0.006 0.009,-0.013 0.015,-0.02 v 0 c 0.003,-0.004 0.004,-0.006 0.008,-0.011 v 0 c 0.007,-0.007 0.013,-0.018 0.018,-0.024 v 0 c 0.003,-0.004 0.006,-0.005 0.007,-0.006 v 0 c 0.007,-0.01 0.016,-0.021 0.027,-0.031 v 0 c 0.001,-0.004 0.005,-0.004 0.007,-0.007 v 0 c 0.006,-0.008 0.014,-0.015 0.021,-0.021 v 0 c 0.005,-0.003 0.007,-0.009 0.013,-0.01 v 0 c 0.006,-0.006 0.013,-0.013 0.02,-0.02 v 0 c 0.003,-0.003 0.006,-0.006 0.01,-0.009 v 0 c 0.009,-0.008 0.018,-0.017 0.029,-0.025 v 0 c 0.002,0 0.004,-0.001 0.004,-0.002 v 0 c 0.011,-0.009 0.021,-0.017 0.034,-0.024 v 0 c 0.003,-0.004 0.007,-0.008 0.011,-0.011 v 0 c 0.009,-0.005 0.017,-0.009 0.026,-0.017 v 0 c 0.003,-0.001 0.008,-0.004 0.01,-0.007 v 0 c 0.01,-0.006 0.019,-0.013 0.027,-0.017 v 0 c 0.005,-0.005 0.009,-0.005 0.013,-0.007 v 0 c 0.013,-0.009 0.023,-0.016 0.036,-0.024 v 0 L 39.412,18.221 c 0.351,-0.202 0.963,-0.36 1.506,-0.109 v 0 c 1.996,0.836 4.708,0.833 6.713,0.007 v 0 c 0.413,-0.185 1.055,-0.168 1.572,0.132 v 0 l 46.171,26.832 c 0.517,0.301 0.543,0.671 0.226,0.908 v 0 c -1.436,1.162 -1.449,2.73 -0.021,3.891 v 0 c 0.44,0.317 0.166,0.67 -0.185,0.873 v 0 L 77.607,61.024 c -0.222,0.128 -0.549,0.239 -0.899,0.239 v 0 c -0.202,0 -0.412,-0.038 -0.614,-0.13 M 73.359,48.249 c -2.149,1.239 -2.153,3.245 -0.026,4.48 v 0 c 2.128,1.239 5.588,1.241 7.735,0 v 0 c 2.142,-1.235 2.148,-3.241 0.02,-4.478 v 0 c -1.064,-0.619 -2.463,-0.928 -3.863,-0.928 v 0 c -1.398,0 -2.797,0.308 -3.866,0.926 M 50.478,34.952 c -0.83,0.479 -1.505,1.015 -2.029,1.583 v 0 c -2.293,2.494 -1.635,5.656 1.975,7.755 v 0 c 2.96,1.719 7.158,2.292 10.951,1.717 v 0 C 61.43,46 61.484,45.991 61.54,45.981 v 0 c 0.288,-0.045 0.574,-0.099 0.856,-0.158 v 0 c 0.077,-0.016 0.152,-0.034 0.227,-0.05 v 0 c 0.092,-0.022 0.184,-0.041 0.273,-0.066 v 0 c 0.238,-0.057 0.473,-0.119 0.705,-0.185 v 0 c 0.198,-0.058 0.395,-0.12 0.587,-0.185 v 0 c 0.517,-0.172 1.013,-0.37 1.489,-0.594 v 0 c 0.074,-0.035 0.147,-0.07 0.22,-0.108 v 0 c 0.15,-0.072 0.294,-0.148 0.438,-0.226 v 0 c 0.07,-0.038 0.139,-0.079 0.21,-0.119 v 0 c 0.348,-0.202 0.67,-0.411 0.966,-0.632 v 0 c 0.116,-0.087 0.229,-0.177 0.339,-0.267 v 0 c 0.109,-0.091 0.213,-0.182 0.314,-0.275 v 0 c 2.259,-2.084 2.32,-4.737 0.182,-6.847 v 0 c -0.002,-0.002 -0.002,-0.003 -0.003,-0.003 v 0 c -0.259,-0.253 -0.549,-0.495 -0.868,-0.733 v 0 c -0.093,-0.068 -0.191,-0.138 -0.287,-0.204 v 0 c -0.065,-0.043 -0.127,-0.085 -0.194,-0.126 v 0 C 66.865,35.119 66.73,35.036 66.593,34.955 v 0 C 65.969,34.593 65.29,34.283 64.572,34.021 v 0 c -0.16,-0.058 -0.322,-0.113 -0.485,-0.167 v 0 c -0.247,-0.077 -0.493,-0.153 -0.746,-0.22 v 0 c -0.169,-0.046 -0.339,-0.088 -0.509,-0.128 v 0 c -0.171,-0.041 -0.346,-0.078 -0.519,-0.113 v 0 c -1.218,-0.247 -2.495,-0.371 -3.772,-0.371 v 0 c -2.915,0 -5.832,0.643 -8.063,1.93 M 35.954,26.513 c -2.147,1.239 -2.153,3.245 -0.025,4.481 v 0 c 2.128,1.235 5.589,1.239 7.736,0 v 0 c 2.14,-1.236 2.148,-3.242 0.021,-4.478 v 0 C 42.62,25.897 41.22,25.587 39.819,25.587 v 0 c -1.397,0 -2.796,0.308 -3.865,0.926" /></clipPath><linearGradient
       id="linearGradient668"
       spreadMethod="pad"
       gradientTransform="matrix(40.309624,34.24799,34.24799,-40.309624,32.738014,17.727377)"
       gradientUnits="userSpaceOnUse"
       y2="0"
       x2="1"
       y1="0"
       x1="0"><stop
         id="stop664"
         offset="0"
         style="stop-opacity:1;stop-color:#a1ffa7" /><stop
         id="stop666"
         offset="1"
         style="stop-opacity:1;stop-color:#d5ffc4" /></linearGradient><clipPath
       id="clipPath678"
       clipPathUnits="userSpaceOnUse"><path
         id="path676"
         d="M 71.529,72.967 12.624,38.734 c -0.616,-0.356 -0.612,-0.941 0.008,-1.298 v 0 L 43.249,19.76 c 0.617,-0.358 1.625,-0.358 2.241,0 v 0 l 58.905,34.231 c 0.615,0.358 0.612,0.942 -0.008,1.3 v 0 L 73.772,72.967 c -0.309,0.179 -0.716,0.269 -1.123,0.269 v 0 c -0.406,0 -0.812,-0.09 -1.12,-0.269" /></clipPath><linearGradient
       id="linearGradient688"
       spreadMethod="pad"
       gradientTransform="matrix(-56.372986,-42.734398,-42.734398,56.372986,77.608871,60.841976)"
       gradientUnits="userSpaceOnUse"
       y2="0"
       x2="1"
       y1="0"
       x1="0"><stop
         id="stop684"
         offset="0"
         style="stop-opacity:1;stop-color:#96df78" /><stop
         id="stop686"
         offset="1"
         style="stop-opacity:1;stop-color:#76cb74" /></linearGradient><clipPath
       id="clipPath698"
       clipPathUnits="userSpaceOnUse"><path
         id="path696"
         d="M 104.395,53.991 45.49,19.76 c -0.616,-0.358 -1.624,-0.358 -2.241,0 v 0 L 12.632,37.436 c -0.312,0.179 -0.467,0.418 -0.467,0.655 v 0 -6.012 c 0,-0.237 0.155,-0.474 0.467,-0.654 v 0 L 43.249,13.748 c 0.617,-0.357 1.627,-0.357 2.241,0.001 v 0 l 58.905,34.233 c 0.305,0.176 0.458,0.409 0.458,0.643 v 0 6.012 c 0,-0.234 -0.153,-0.468 -0.458,-0.646" /></clipPath><linearGradient
       id="linearGradient708"
       spreadMethod="pad"
       gradientTransform="matrix(92.6875,0,0,-92.6875,12.165006,34.058811)"
       gradientUnits="userSpaceOnUse"
       y2="0"
       x2="1"
       y1="0"
       x1="0"><stop
         id="stop704"
         offset="0"
         style="stop-opacity:1;stop-color:#468e53" /><stop
         id="stop706"
         offset="1"
         style="stop-opacity:1;stop-color:#76cb74" /></linearGradient><clipPath
       id="clipPath718"
       clipPathUnits="userSpaceOnUse"><path
         id="path716"
         d="M 0,142.303 H 143.401 V 0 H 0 Z" /></clipPath><clipPath
       id="clipPath726"
       clipPathUnits="userSpaceOnUse"><path
         id="path724"
         d="m 12.164,54.5042 h 92.668 V 19.0623 H 12.164 Z" /></clipPath><clipPath
       id="clipPath742"
       clipPathUnits="userSpaceOnUse"><path
         id="path740"
         d="m 55.784,48.721 -1.358,0.785 -1.24,-0.722 1.408,-0.813 c -0.927,-0.789 -0.943,-1.613 0.073,-2.2 v 0 c 1.292,-0.746 2.715,-0.348 3.931,0.05 v 0 c 0.999,0.327 1.858,0.653 2.389,0.347 v 0 c 0.378,-0.217 0.245,-0.527 -0.284,-0.832 v 0 c -0.687,-0.402 -2.109,-0.761 -3.378,-0.815 v 0 l 0.648,-1.126 c 1.107,0.062 2.275,0.322 3.262,0.74 v 0 l 1.472,-0.849 1.239,0.722 -1.435,0.828 c 1.096,0.799 1.328,1.727 0.151,2.408 v 0 c -1.326,0.765 -2.785,0.371 -4.019,-0.021 v 0 c -0.998,-0.319 -1.849,-0.637 -2.362,-0.34 v 0 c -0.324,0.187 -0.198,0.452 0.239,0.707 v 0 c 0.536,0.312 1.702,0.655 2.808,0.823 v 0 l -0.689,1.13 c -0.931,-0.116 -1.975,-0.41 -2.855,-0.822" /></clipPath><linearGradient
       id="linearGradient752"
       spreadMethod="pad"
       gradientTransform="matrix(40.311577,34.249649,34.249649,-40.311577,32.744175,24.457508)"
       gradientUnits="userSpaceOnUse"
       y2="0"
       x2="1"
       y1="0"
       x1="0"><stop
         id="stop748"
         offset="0"
         style="stop-opacity:1;stop-color:#a1ffa7" /><stop
         id="stop750"
         offset="1"
         style="stop-opacity:1;stop-color:#d5ffc4" /></linearGradient><clipPath
       id="clipPath762"
       clipPathUnits="userSpaceOnUse"><path
         id="path760"
         d="m 76.094,67.871 c -1.991,-0.833 -4.695,-0.833 -6.707,-0.006 v 0 c -0.408,0.183 -1.056,0.17 -1.575,-0.13 v 0 L 21.644,40.903 c -0.519,-0.299 -0.537,-0.678 -0.227,-0.907 v 0 c 1.441,-1.165 1.449,-2.733 0.022,-3.892 v 0 c -0.165,-0.117 -0.228,-0.239 -0.228,-0.357 v 0 c 0,-0.011 0.001,-0.022 0.001,-0.036 v 0 -0.002 c 0.002,-0.01 0.004,-0.019 0.007,-0.03 v 0 c 0,-0.003 10e-4,-0.007 0.002,-0.012 v 0 c 0.004,-0.009 0.004,-0.014 0.007,-0.022 v 0 c 0.002,-0.004 0.004,-0.008 0.005,-0.013 v 0 c 0.003,-0.008 0.005,-0.014 0.009,-0.024 v 0 c 10e-4,-0.002 0.003,-0.004 0.004,-0.008 v 0 c 0.004,-0.01 0.01,-0.024 0.016,-0.034 v 0 c 0,-0.002 0.002,-0.003 0.002,-0.004 v 0 c 0.006,-0.008 0.01,-0.019 0.017,-0.026 v 0 c 0.001,-0.004 0.004,-0.008 0.007,-0.012 v 0 c 0.005,-0.007 0.009,-0.015 0.015,-0.021 v 0 c 0.003,-0.004 0.004,-0.008 0.008,-0.011 v 0 c 0.007,-0.009 0.013,-0.015 0.018,-0.023 v 0 c 0.003,-0.002 0.006,-0.004 0.007,-0.007 v 0 c 0.007,-0.012 0.016,-0.021 0.027,-0.029 v 0 c 0.001,-0.005 0.005,-0.005 0.007,-0.008 v 0 c 0.006,-0.008 0.014,-0.014 0.021,-0.022 v 0 c 0.005,-0.003 0.007,-0.008 0.013,-0.011 v 0 c 0.006,-0.006 0.013,-0.014 0.02,-0.02 v 0 c 0.003,-10e-4 0.006,-0.005 0.01,-0.007 v 0 c 0.009,-0.008 0.018,-0.016 0.029,-0.024 v 0 c 0.002,-10e-4 0.004,-0.003 0.004,-0.004 v 0 c 0.011,-0.008 0.021,-0.017 0.034,-0.025 v 0 c 0.003,-0.003 0.007,-0.006 0.011,-0.009 v 0 c 0.009,-0.004 0.017,-0.011 0.026,-0.017 v 0 c 0.003,-0.001 0.008,-0.004 0.01,-0.008 v 0 c 0.01,-0.006 0.019,-0.012 0.027,-0.016 v 0 c 0.005,-0.004 0.009,-0.005 0.013,-0.008 v 0 c 0.013,-0.008 0.023,-0.015 0.036,-0.024 v 0 L 39.412,24.962 c 0.351,-0.203 0.963,-0.361 1.506,-0.111 v 0 c 1.996,0.837 4.708,0.835 6.713,0.01 v 0 c 0.413,-0.185 1.055,-0.171 1.572,0.13 v 0 l 46.171,26.83 c 0.517,0.303 0.543,0.675 0.226,0.912 v 0 c -1.436,1.161 -1.449,2.73 -0.021,3.888 v 0 c 0.44,0.317 0.166,0.671 -0.185,0.874 v 0 L 77.607,67.766 c -0.221,0.127 -0.546,0.237 -0.894,0.237 v 0 c -0.204,0 -0.416,-0.038 -0.619,-0.132 M 73.359,54.99 c -2.149,1.239 -2.153,3.244 -0.026,4.48 v 0 c 2.128,1.237 5.588,1.238 7.735,0 v 0 c 2.142,-1.236 2.148,-3.241 0.02,-4.476 v 0 c -1.065,-0.62 -2.465,-0.93 -3.865,-0.93 v 0 c -1.397,0 -2.795,0.309 -3.864,0.926 M 50.478,41.694 c -0.83,0.478 -1.505,1.013 -2.029,1.58 v 0 c -2.293,2.496 -1.635,5.658 1.975,7.755 v 0 c 2.96,1.721 7.158,2.294 10.951,1.718 v 0 c 0.055,-0.007 0.109,-0.014 0.165,-0.025 v 0 c 0.288,-0.047 0.574,-0.098 0.856,-0.159 v 0 c 0.077,-0.017 0.152,-0.033 0.227,-0.049 v 0 c 0.092,-0.021 0.184,-0.043 0.273,-0.064 v 0 c 0.238,-0.058 0.473,-0.121 0.705,-0.189 v 0 c 0.198,-0.058 0.395,-0.12 0.587,-0.184 v 0 c 0.517,-0.174 1.013,-0.37 1.489,-0.593 v 0 c 0.074,-0.036 0.147,-0.071 0.22,-0.109 v 0 c 0.15,-0.072 0.294,-0.148 0.438,-0.226 v 0 c 0.07,-0.037 0.139,-0.079 0.21,-0.12 v 0 c 0.348,-0.202 0.67,-0.412 0.966,-0.631 v 0 c 0.116,-0.087 0.229,-0.176 0.339,-0.265 v 0 c 0.109,-0.092 0.213,-0.183 0.314,-0.276 v 0 c 2.259,-2.084 2.32,-4.738 0.182,-6.848 v 0 c -0.002,-10e-4 -0.002,-0.002 -0.003,-0.004 v 0 c -0.259,-0.251 -0.549,-0.497 -0.868,-0.732 v 0 C 67.382,42.204 67.284,42.138 67.188,42.07 v 0 c -0.065,-0.045 -0.127,-0.087 -0.194,-0.129 v 0 C 66.865,41.86 66.73,41.777 66.593,41.695 v 0 C 65.969,41.334 65.29,41.022 64.572,40.762 v 0 c -0.16,-0.059 -0.322,-0.114 -0.485,-0.167 v 0 c -0.247,-0.078 -0.493,-0.153 -0.746,-0.22 v 0 c -0.169,-0.046 -0.339,-0.088 -0.509,-0.13 v 0 c -0.171,-0.038 -0.346,-0.078 -0.519,-0.112 v 0 C 61.095,39.885 59.818,39.762 58.54,39.762 v 0 c -2.914,0 -5.831,0.643 -8.062,1.932 M 35.954,33.252 c -2.147,1.241 -2.153,3.245 -0.025,4.482 v 0 c 2.128,1.237 5.589,1.241 7.736,0 v 0 c 2.14,-1.237 2.148,-3.241 0.021,-4.479 v 0 C 42.621,32.637 41.221,32.327 39.82,32.327 v 0 c -1.398,0 -2.796,0.308 -3.866,0.925" /></clipPath><linearGradient
       id="linearGradient772"
       spreadMethod="pad"
       gradientTransform="matrix(40.309463,34.247852,34.247852,-40.309463,32.738171,24.467333)"
       gradientUnits="userSpaceOnUse"
       y2="0"
       x2="1"
       y1="0"
       x1="0"><stop
         id="stop768"
         offset="0"
         style="stop-opacity:1;stop-color:#a1ffa7" /><stop
         id="stop770"
         offset="1"
         style="stop-opacity:1;stop-color:#d5ffc4" /></linearGradient></defs><g
     transform="matrix(1.3333333,0,0,-1.3333333,0,189.73733)"
     id="g10"><g
       id="g12"><g
         clip-path="url(#clipPath18)"
         id="g14"><g
           id="g20"><g
             id="g22"><path
               id="path30"
               style="fill:url(#linearGradient28);stroke:none"
               d="M 79.794,109.487 79.792,75.12 64.059,65.973 v 34.372 z" /></g></g></g></g><g
       id="g32"><g
         clip-path="url(#clipPath38)"
         id="g34"><g
           id="g40"><g
             id="g42"><path
               id="path50"
               style="fill:url(#linearGradient48);stroke:none"
               d="M 64.059,100.345 V 65.973 l -15.846,9.149 v 34.374 z" /></g></g></g></g><g
       id="g52"><g
         clip-path="url(#clipPath58)"
         id="g54"><g
           id="g60"><g
             id="g62" /><g
             id="g74"><g
               style="opacity:0.69999701"
               id="g72"
               clip-path="url(#clipPath66)"><g
                 id="g70"
                 transform="translate(64.0593,100.3448)"><path
                   id="path68"
                   style="fill:#ffffff;fill-opacity:1;fill-rule:nonzero;stroke:none"
                   d="M 0,0 -15.847,9.151 V 8.616 L 0,-0.531 l 15.733,9.144 0.002,0.53 z" /></g></g></g></g></g></g><g
       id="g76"><g
         clip-path="url(#clipPath82)"
         id="g78"><g
           id="g84"><g
             id="g86"><path
               id="path94"
               style="fill:url(#linearGradient92);stroke:none"
               d="m 79.794,109.487 -15.735,-9.142 -15.846,9.151 15.736,9.142 z" /></g></g></g></g><g
       id="g96"><g
         clip-path="url(#clipPath102)"
         id="g98"><g
           id="g104"><g
             id="g106"><path
               id="path114"
               style="fill:url(#linearGradient112);stroke:none"
               d="M 100.998,133.153 V 62.878 L 85.264,53.734 v 70.276 z" /></g></g></g></g><g
       id="g116"><g
         clip-path="url(#clipPath122)"
         id="g118"><g
           id="g124"><g
             id="g126"><path
               id="path134"
               style="fill:url(#linearGradient132);stroke:none"
               d="M 85.264,124.01 V 53.734 l -15.847,9.148 0.003,70.275 z" /></g></g></g></g><g
       id="g136"><g
         clip-path="url(#clipPath142)"
         id="g138"><g
           id="g144"><g
             id="g146" /><g
             id="g158"><g
               style="opacity:0.69999701"
               id="g156"
               clip-path="url(#clipPath150)"><g
                 id="g154"
                 transform="translate(85.2639,124.0104)"><path
                   id="path152"
                   style="fill:#ffffff;fill-opacity:1;fill-rule:nonzero;stroke:none"
                   d="M 0,0 -15.844,9.147 -15.847,8.592 0,-0.555 15.734,8.587 v 0.556 z" /></g></g></g></g></g></g><g
       id="g160"><g
         clip-path="url(#clipPath166)"
         id="g162"><g
           id="g168"><g
             id="g170"><path
               id="path178"
               style="fill:url(#linearGradient176);stroke:none"
               d="m 85.154,142.303 -15.734,-9.145 15.844,-9.148 15.734,9.143 z" /></g></g></g></g><g
       id="g180"><g
         clip-path="url(#clipPath186)"
         id="g182"><g
           id="g188"><g
             id="g190"><path
               id="path198"
               style="fill:url(#linearGradient196);stroke:none"
               d="M 122.196,79.134 122.195,50.639 106.462,41.495 V 69.993 Z" /></g></g></g></g><g
       id="g200"><g
         clip-path="url(#clipPath206)"
         id="g202"><g
           id="g208"><g
             id="g210"><path
               id="path218"
               style="fill:url(#linearGradient216);stroke:none"
               d="M 106.462,69.993 V 41.495 l -15.836,9.144 v 28.495 z" /></g></g></g></g><g
       id="g220"><g
         clip-path="url(#clipPath226)"
         id="g222"><g
           id="g228"><g
             id="g230" /><g
             id="g242"><g
               style="opacity:0.69999701"
               id="g240"
               clip-path="url(#clipPath234)"><g
                 id="g238"
                 transform="translate(106.4621,69.9928)"><path
                   id="path236"
                   style="fill:#ffffff;fill-opacity:1;fill-rule:nonzero;stroke:none"
                   d="M 0,0 -15.836,9.142 V 8.322 L 0,-0.822 l 15.732,9.144 0.001,0.82 z" /></g></g></g></g></g></g><g
       id="g244"><g
         clip-path="url(#clipPath250)"
         id="g246"><g
           id="g252"><g
             id="g254"><path
               id="path262"
               style="fill:url(#linearGradient260);stroke:none"
               d="m 122.196,79.134 -15.734,-9.141 -15.836,9.141 15.733,9.145 z" /></g></g></g></g><g
       id="g264"><g
         clip-path="url(#clipPath270)"
         id="g266"><g
           id="g272"><g
             id="g274"><path
               id="path282"
               style="fill:url(#linearGradient280);stroke:none"
               d="M 127.669,76.508 V 29.25 l 15.732,9.143 v 47.256 z" /></g></g></g></g><g
       id="g284"><g
         clip-path="url(#clipPath290)"
         id="g286"><g
           id="g292"><g
             id="g294"><path
               id="path302"
               style="fill:url(#linearGradient300);stroke:none"
               d="M 127.668,76.508 V 29.25 l -15.847,9.147 v 47.259 z" /></g></g></g></g><g
       id="g304"><g
         clip-path="url(#clipPath310)"
         id="g306"><g
           id="g312"><g
             id="g314" /><g
             id="g326"><g
               style="opacity:0.69999701"
               id="g324"
               clip-path="url(#clipPath318)"><g
                 id="g322"
                 transform="translate(127.6682,76.5079)"><path
                   id="path320"
                   style="fill:#ffffff;fill-opacity:1;fill-rule:nonzero;stroke:none"
                   d="M 0,0 -15.847,9.148 V 8.606 L 0,-0.543 15.732,8.599 v 0.542 z" /></g></g></g></g></g></g><g
       id="g328"><g
         clip-path="url(#clipPath334)"
         id="g330"><g
           id="g336"><g
             id="g338"><path
               id="path346"
               style="fill:url(#linearGradient344);stroke:none"
               d="m 111.821,85.657 15.848,-9.149 15.732,9.141 -15.847,9.15 z" /></g></g></g></g><g
       id="g348"><g
         clip-path="url(#clipPath354)"
         id="g350"><g
           id="g356"><g
             id="g358" /><g
             id="g462"><g
               id="g460"
               clip-path="url(#clipPath362)"><g
                 id="g416"><g
                   id="g414"
                   clip-path="url(#clipPath366)"><g
                     id="g412"><g
                       id="g410"><path
                         id="path408"
                         style="fill:url(#linearGradient372);stroke:none"
                         d="m 61.214,97.813 c -0.205,0.12 -0.488,0.104 -0.802,-0.079 L 1.122,63.504 C 0.503,63.146 -0.002,62.279 0,61.568 V 26.389 c 0.002,-0.356 0.125,-0.606 0.327,-0.722 2.164,-1.258 4.33,-2.515 6.494,-3.775 0.103,-0.059 0.238,-0.138 0.342,-0.198 -0.202,0.117 -0.327,0.367 -0.328,0.72 l 0.001,35.182 c -0.003,0.712 0.501,1.577 1.121,1.936 l 59.291,34.231 c 0.313,0.18 0.598,0.199 0.801,0.079 -2.278,1.324 -4.556,2.648 -6.835,3.971" /></g></g></g></g><g
                 id="g428"><g
                   id="g418" /><g
                   id="g426"><g
                     style="opacity:0.30000299"
                     id="g424"
                     clip-path="url(#clipPath376)"><g
                       id="g422"
                       transform="translate(66.9611,93.963)"><path
                         id="path420"
                         style="fill:#ffffff;fill-opacity:1;fill-rule:nonzero;stroke:none"
                         d="m 0,0 -59.291,-34.231 c -0.617,-0.357 -1.122,-1.224 -1.12,-1.936 v -35.179 c 0,-0.355 0.126,-0.606 0.326,-0.723 0.052,-0.028 0.1,-0.057 0.149,-0.085 -0.119,0.136 -0.189,0.341 -0.19,0.605 l 10e-4,35.182 c -0.003,0.712 0.501,1.577 1.121,1.936 L 0.287,-0.2 C 0.6,-0.021 0.885,-0.001 1.088,-0.121 0.937,-0.034 0.786,0.055 0.635,0.143 0.453,0.179 0.236,0.135 0,0" /></g></g></g></g><g
                 id="g438"><g
                   id="g436"
                   clip-path="url(#clipPath380)"><g
                     id="g434"><g
                       id="g432"><path
                         id="path430"
                         style="fill:url(#linearGradient386);stroke:none"
                         d="m 67.248,93.763 c 0.618,0.358 1.127,0.075 1.129,-0.638 v -35.18 c 0,-0.716 -0.504,-1.584 -1.122,-1.94 L 7.964,21.774 c -0.62,-0.36 -1.126,-0.076 -1.129,0.64 l 0.001,35.182 c -0.003,0.712 0.501,1.577 1.121,1.936 z" /></g></g></g></g><g
                 id="g448"><g
                   id="g446"
                   clip-path="url(#clipPath390)"><g
                     id="g444"><g
                       id="g442"><path
                         id="path440"
                         style="fill:url(#linearGradient396);stroke:none"
                         d="m 56.492,64.178 c -2.141,-1.237 -3.885,-0.243 -3.892,2.218 -0.007,2.46 1.725,5.463 3.866,6.699 2.143,1.237 3.887,0.242 3.894,-2.219 0.007,-2.459 -1.726,-5.461 -3.868,-6.698 M 37.682,48.481 c -4.462,-2.577 -8.099,-0.51 -8.113,4.619 -0.014,5.129 3.597,11.382 8.06,13.96 4.464,2.577 8.097,0.507 8.113,-4.622 0.013,-5.13 -3.597,-11.38 -8.06,-13.957 m -18.838,-6.04 c -2.143,-1.237 -3.885,-0.242 -3.893,2.218 -0.006,2.461 1.726,5.463 3.869,6.698 2.139,1.236 3.884,0.244 3.892,-2.218 0.007,-2.459 -1.727,-5.463 -3.868,-6.698 m 46.963,41.818 c -0.002,0.403 -0.179,0.812 -0.668,0.589 -1.732,-0.674 -3.092,0.103 -3.387,1.916 -0.047,0.39 -0.384,0.557 -0.904,0.257 L 14.374,60.19 c -0.521,-0.3 -0.855,-0.857 -0.9,-1.298 C 13.19,56.745 11.838,54.401 10.114,53.079 9.62,52.734 9.45,52.129 9.451,51.725 L 9.509,31.283 c 0,-0.402 0.174,-0.813 0.671,-0.592 1.723,0.668 3.084,-0.107 3.38,-1.914 0.047,-0.396 0.384,-0.558 0.904,-0.256 l 46.475,26.831 c 0.519,0.301 0.854,0.852 0.904,1.296 0.278,2.143 1.631,4.486 3.354,5.814 0.494,0.344 0.668,0.956 0.667,1.358 z" /></g></g></g></g><g
                 id="g458"><g
                   id="g456"
                   clip-path="url(#clipPath400)"><g
                     id="g454"><g
                       id="g452"><path
                         id="path450"
                         style="fill:url(#linearGradient406);stroke:none"
                         d="m 36.986,59.186 c 0,0.375 0.292,0.726 0.731,0.981 0.54,0.313 1.425,0.495 2.127,0.433 l 0.631,1.884 c -0.569,0.094 -1.349,-0.047 -2.15,-0.409 l -0.004,1.554 -1.249,-0.722 0.005,-1.611 c -1.149,-0.915 -1.865,-2.134 -1.862,-3.304 0.009,-2.704 3.515,0.129 3.52,-1.222 10e-4,-0.433 -0.33,-0.855 -0.868,-1.165 -0.69,-0.398 -1.713,-0.534 -2.4,-0.243 l -0.652,-1.871 c 0.61,-0.224 1.426,-0.168 2.285,0.171 l 0.004,-1.689 1.247,0.721 -0.003,1.648 c 1.242,0.879 2.163,2.2 2.16,3.552 -0.009,2.758 -3.519,-0.023 -3.522,1.292" /></g></g></g></g></g></g></g></g></g><g
       id="g464"><g
         clip-path="url(#clipPath470)"
         id="g466"><g
           id="g472"><g
             id="g474"><path
               id="path482"
               style="fill:url(#linearGradient480);stroke:none"
               d="M 71.529,59.487 12.624,25.254 c -0.616,-0.357 -0.612,-0.941 0.008,-1.3 v 0 L 43.249,6.278 c 0.617,-0.356 1.625,-0.356 2.241,0 v 0 l 58.905,34.233 c 0.615,0.358 0.612,0.943 -0.008,1.298 v 0 L 73.772,59.487 c -0.309,0.179 -0.716,0.268 -1.123,0.268 v 0 c -0.406,0 -0.812,-0.089 -1.12,-0.268" /></g></g></g></g><g
       id="g484"><g
         clip-path="url(#clipPath490)"
         id="g486"><g
           id="g492"><g
             id="g494"><path
               id="path502"
               style="fill:url(#linearGradient500);stroke:none"
               d="M 104.395,40.511 45.49,6.278 c -0.616,-0.356 -1.624,-0.356 -2.241,0 v 0 L 12.632,23.954 c -0.312,0.181 -0.467,0.42 -0.467,0.655 v 0 -6.011 c 0,-0.236 0.155,-0.475 0.467,-0.656 v 0 L 43.249,0.267 C 43.545,0.096 43.932,0.007 44.322,0 v 0 h 0.094 c 0.391,0.007 0.778,0.096 1.074,0.269 v 0 L 104.395,34.5 c 0.305,0.178 0.458,0.412 0.458,0.647 v 0 6.007 c 0,-0.232 -0.153,-0.464 -0.458,-0.643" /></g></g></g></g><g
       id="g504"><g
         clip-path="url(#clipPath510)"
         id="g506"><g
           id="g512"><g
             id="g514" /><g
             id="g526"><g
               style="opacity:0.69999701"
               id="g524"
               clip-path="url(#clipPath518)"><g
                 id="g522"
                 transform="translate(104.3947,40.5104)"><path
                   id="path520"
                   style="fill:#ffffff;fill-opacity:1;fill-rule:nonzero;stroke:none"
                   d="m 0,0 -58.905,-34.232 c -0.616,-0.356 -1.623,-0.356 -2.241,0 l -30.617,17.676 c -0.311,0.181 -0.467,0.419 -0.467,0.654 l -10e-4,-0.559 c 0.046,-0.192 0.191,-0.377 0.445,-0.524 l 30.615,-17.678 c 0.618,-0.356 1.628,-0.356 2.243,0.002 L -0.023,-0.43 c 0.305,0.179 0.459,0.412 0.46,0.647 V 0.514 C 0.39,0.326 0.248,0.145 0,0" /></g></g></g></g></g></g><g
       id="g528"><g
         clip-path="url(#clipPath534)"
         id="g530"><g
           id="g536"><g
             id="g538"><path
               id="path546"
               style="fill:url(#linearGradient544);stroke:none"
               d="m 55.784,35.24 -1.358,0.784 -1.24,-0.721 1.408,-0.812 C 53.667,33.7 53.651,32.879 54.667,32.29 v 0 c 1.292,-0.746 2.715,-0.348 3.931,0.05 v 0 c 0.999,0.326 1.858,0.652 2.389,0.346 v 0 c 0.378,-0.219 0.245,-0.526 -0.284,-0.832 v 0 c -0.687,-0.4 -2.109,-0.762 -3.378,-0.812 v 0 l 0.648,-1.13 c 1.107,0.063 2.275,0.326 3.262,0.744 v 0 l 1.472,-0.849 1.239,0.72 -1.435,0.829 c 1.096,0.798 1.328,1.726 0.151,2.407 v 0 c -1.326,0.765 -2.785,0.371 -4.019,-0.021 v 0 c -0.998,-0.318 -1.849,-0.635 -2.362,-0.339 v 0 c -0.324,0.187 -0.198,0.451 0.239,0.705 v 0 c 0.536,0.313 1.702,0.657 2.808,0.826 v 0 l -0.689,1.127 C 57.708,35.946 56.664,35.653 55.784,35.24" /></g></g></g></g><g
       id="g548"><g
         clip-path="url(#clipPath554)"
         id="g550"><g
           id="g556"><g
             id="g558"><path
               id="path566"
               style="fill:url(#linearGradient564);stroke:none"
               d="m 76.094,54.391 c -1.991,-0.834 -4.695,-0.834 -6.707,-0.006 v 0 c -0.408,0.183 -1.056,0.169 -1.575,-0.131 v 0 L 21.644,27.423 c -0.519,-0.3 -0.537,-0.677 -0.227,-0.908 v 0 c 1.441,-1.167 1.449,-2.734 0.022,-3.892 v 0 c -0.165,-0.117 -0.228,-0.238 -0.228,-0.358 v 0 c 0,-0.011 0.001,-0.022 0.001,-0.034 v 0 -0.003 c 0.002,-0.01 0.004,-0.02 0.007,-0.03 v 0 c 0,-0.004 10e-4,-0.008 0.002,-0.011 v 0 c 0.004,-0.007 0.004,-0.016 0.007,-0.024 v 0 c 0.002,-0.004 0.004,-0.008 0.005,-0.011 v 0 c 0.003,-0.008 0.005,-0.017 0.009,-0.025 v 0 c 10e-4,-0.002 0.003,-0.004 0.004,-0.008 v 0 c 0.004,-0.011 0.01,-0.022 0.016,-0.033 v 0 c 0,-0.002 0.002,-0.004 0.002,-0.005 v 0 c 0.006,-0.01 0.01,-0.017 0.017,-0.027 v 0 c 0.001,-0.002 0.004,-0.007 0.007,-0.01 v 0 c 0.005,-0.007 0.009,-0.016 0.015,-0.023 v 0 c 0.003,-0.003 0.004,-0.007 0.008,-0.011 v 0 c 0.007,-0.005 0.013,-0.014 0.018,-0.021 v 0 c 0.003,-0.004 0.006,-0.007 0.007,-0.008 v 0 c 0.007,-0.011 0.016,-0.02 0.027,-0.029 v 0 c 0.001,-0.004 0.005,-0.006 0.007,-0.008 v 0 c 0.006,-0.007 0.014,-0.016 0.021,-0.022 v 0 c 0.005,-0.004 0.007,-0.007 0.013,-0.01 v 0 c 0.006,-0.007 0.013,-0.014 0.02,-0.02 v 0 c 0.003,-0.002 0.006,-0.005 0.01,-0.009 v 0 c 0.009,-0.007 0.018,-0.015 0.029,-0.024 v 0 c 0.002,0 0.004,-0.002 0.004,-0.002 v 0 c 0.011,-0.011 0.021,-0.018 0.034,-0.026 v 0 c 0.003,-0.002 0.007,-0.006 0.011,-0.008 v 0 c 0.009,-0.005 0.017,-0.012 0.026,-0.018 v 0 c 0.003,-0.003 0.008,-0.005 0.01,-0.008 v 0 c 0.01,-0.006 0.019,-0.011 0.027,-0.017 v 0 c 0.005,-0.002 0.009,-0.004 0.013,-0.006 v 0 c 0.013,-0.009 0.023,-0.017 0.036,-0.024 v 0 L 39.412,11.48 c 0.351,-0.201 0.963,-0.36 1.506,-0.111 v 0 c 1.996,0.838 4.708,0.834 6.713,0.01 v 0 c 0.413,-0.186 1.055,-0.169 1.572,0.132 v 0 l 46.171,26.831 c 0.517,0.3 0.543,0.674 0.226,0.908 v 0 c -1.436,1.164 -1.449,2.732 -0.021,3.891 v 0 c 0.44,0.316 0.166,0.671 -0.185,0.874 v 0 L 77.607,54.284 c -0.221,0.129 -0.547,0.239 -0.895,0.239 v 0 c -0.204,0 -0.415,-0.038 -0.618,-0.132 m -2.735,-12.88 c -2.149,1.238 -2.153,3.243 -0.026,4.479 v 0 c 2.128,1.236 5.588,1.239 7.735,0 v 0 c 2.142,-1.236 2.148,-3.24 0.02,-4.478 v 0 c -1.064,-0.619 -2.464,-0.929 -3.865,-0.929 v 0 c -1.397,0 -2.795,0.309 -3.864,0.928 M 50.478,28.212 c -0.83,0.479 -1.505,1.013 -2.029,1.581 v 0 c -2.293,2.495 -1.635,5.657 1.975,7.757 v 0 c 2.96,1.718 7.158,2.29 10.951,1.716 v 0 c 0.055,-0.007 0.109,-0.016 0.165,-0.025 v 0 c 0.288,-0.046 0.574,-0.098 0.856,-0.158 v 0 c 0.077,-0.017 0.152,-0.034 0.227,-0.05 v 0 c 0.092,-0.021 0.184,-0.043 0.273,-0.064 v 0 c 0.238,-0.058 0.473,-0.121 0.705,-0.189 v 0 c 0.198,-0.058 0.395,-0.12 0.587,-0.184 v 0 c 0.517,-0.172 1.013,-0.368 1.489,-0.593 v 0 c 0.074,-0.035 0.147,-0.072 0.22,-0.108 v 0 c 0.15,-0.073 0.294,-0.149 0.438,-0.227 v 0 c 0.07,-0.038 0.139,-0.079 0.21,-0.118 v 0 c 0.348,-0.204 0.67,-0.413 0.966,-0.633 v 0 c 0.116,-0.087 0.229,-0.176 0.339,-0.266 v 0 c 0.109,-0.091 0.213,-0.181 0.314,-0.273 v 0 c 2.259,-2.086 2.32,-4.74 0.182,-6.85 v 0 c -0.002,0 -0.002,-10e-4 -0.003,-0.003 v 0 c -0.259,-0.251 -0.549,-0.496 -0.868,-0.733 v 0 c -0.093,-0.069 -0.191,-0.138 -0.287,-0.204 v 0 c -0.065,-0.042 -0.127,-0.084 -0.194,-0.126 v 0 C 66.865,28.378 66.73,28.295 66.593,28.215 v 0 C 65.969,27.854 65.29,27.542 64.572,27.279 v 0 c -0.16,-0.056 -0.322,-0.111 -0.485,-0.163 v 0 C 63.84,27.037 63.594,26.962 63.341,26.894 v 0 c -0.169,-0.045 -0.339,-0.089 -0.509,-0.129 v 0 c -0.171,-0.04 -0.346,-0.078 -0.519,-0.112 v 0 c -1.219,-0.248 -2.497,-0.372 -3.775,-0.372 v 0 c -2.914,0 -5.83,0.643 -8.06,1.931 M 35.954,19.771 c -2.147,1.24 -2.153,3.246 -0.025,4.481 v 0 c 2.128,1.236 5.589,1.241 7.736,0 v 0 c 2.14,-1.235 2.148,-3.241 0.021,-4.477 v 0 C 42.62,19.156 41.22,18.846 39.819,18.846 v 0 c -1.397,0 -2.796,0.308 -3.865,0.925" /></g></g></g></g><g
       id="g568"><g
         clip-path="url(#clipPath574)"
         id="g570"><g
           id="g576"><g
             id="g578"><path
               id="path586"
               style="fill:url(#linearGradient584);stroke:none"
               d="M 71.529,66.227 12.624,31.995 c -0.616,-0.357 -0.612,-0.941 0.008,-1.3 v 0 L 43.249,13.018 c 0.617,-0.357 1.625,-0.357 2.241,0 v 0 l 58.905,34.235 c 0.615,0.356 0.612,0.941 -0.008,1.297 v 0 L 73.772,66.227 c -0.309,0.179 -0.716,0.268 -1.123,0.268 v 0 c -0.406,0 -0.812,-0.089 -1.12,-0.268" /></g></g></g></g><g
       id="g588"><g
         clip-path="url(#clipPath594)"
         id="g590"><g
           id="g596"><g
             id="g598"><path
               id="path606"
               style="fill:url(#linearGradient604);stroke:none"
               d="M 104.395,47.253 45.49,13.018 c -0.616,-0.357 -1.624,-0.357 -2.241,0 v 0 L 12.632,30.695 c -0.312,0.18 -0.467,0.418 -0.467,0.654 v 0 -6.011 c 0,-0.236 0.155,-0.473 0.467,-0.654 v 0 L 43.249,7.009 C 43.866,6.653 44.876,6.653 45.49,7.01 v 0 l 58.905,34.231 c 0.305,0.177 0.458,0.412 0.458,0.643 v 0 6.012 c 0,-0.234 -0.153,-0.466 -0.458,-0.643" /></g></g></g></g><g
       id="g608"><g
         clip-path="url(#clipPath614)"
         id="g610"><g
           id="g616"><g
             id="g618" /><g
             id="g630"><g
               style="opacity:0.69999701"
               id="g628"
               clip-path="url(#clipPath622)"><g
                 id="g626"
                 transform="translate(104.3947,47.2526)"><path
                   id="path624"
                   style="fill:#ffffff;fill-opacity:1;fill-rule:nonzero;stroke:none"
                   d="m 0,0 -58.905,-34.234 c -0.616,-0.357 -1.623,-0.357 -2.241,0 l -30.617,17.676 c -0.311,0.181 -0.467,0.419 -0.467,0.655 l -10e-4,-0.56 c 0.046,-0.193 0.191,-0.376 0.445,-0.523 l 30.615,-17.678 c 0.618,-0.356 1.628,-0.356 2.243,0.002 l 58.905,34.231 c 0.305,0.178 0.459,0.41 0.46,0.645 V 0.513 C 0.39,0.325 0.248,0.143 0,0" /></g></g></g></g></g></g><g
       id="g632"><g
         clip-path="url(#clipPath638)"
         id="g634"><g
           id="g640"><g
             id="g642"><path
               id="path650"
               style="fill:url(#linearGradient648);stroke:none"
               d="m 55.784,41.98 -1.358,0.785 -1.24,-0.721 1.408,-0.814 c -0.927,-0.79 -0.943,-1.61 0.073,-2.198 v 0 c 1.292,-0.747 2.716,-0.349 3.932,0.049 v 0 c 0.998,0.326 1.857,0.653 2.388,0.347 v 0 c 0.378,-0.219 0.245,-0.527 -0.284,-0.835 v 0 c -0.687,-0.398 -2.109,-0.76 -3.378,-0.81 v 0 l 0.648,-1.129 c 1.107,0.063 2.275,0.325 3.262,0.743 v 0 l 1.472,-0.851 1.239,0.723 -1.435,0.827 c 1.096,0.798 1.328,1.729 0.151,2.408 v 0 c -1.325,0.764 -2.785,0.371 -4.018,-0.022 v 0 c -0.999,-0.318 -1.85,-0.636 -2.363,-0.339 v 0 c -0.324,0.189 -0.198,0.452 0.239,0.705 v 0 c 0.536,0.313 1.702,0.655 2.808,0.826 v 0 l -0.689,1.128 c -0.931,-0.115 -1.975,-0.41 -2.855,-0.822" /></g></g></g></g><g
       id="g652"><g
         clip-path="url(#clipPath658)"
         id="g654"><g
           id="g660"><g
             id="g662"><path
               id="path670"
               style="fill:url(#linearGradient668);stroke:none"
               d="m 76.094,61.133 c -1.991,-0.835 -4.695,-0.835 -6.707,-0.008 v 0 c -0.408,0.183 -1.056,0.17 -1.575,-0.129 v 0 L 21.644,34.163 c -0.519,-0.301 -0.537,-0.676 -0.227,-0.91 v 0 c 1.441,-1.163 1.449,-2.731 0.022,-3.888 v 0 c -0.165,-0.119 -0.228,-0.24 -0.228,-0.359 v 0 c 0,-0.011 0.001,-0.023 0.001,-0.032 v 0 -0.005 c 0.002,-0.011 0.004,-0.021 0.007,-0.03 v 0 c 0,-0.004 10e-4,-0.008 0.002,-0.011 v 0 c 0.004,-0.01 0.004,-0.016 0.007,-0.024 v 0 c 0.002,-0.004 0.004,-0.009 0.005,-0.011 v 0 c 0.003,-0.008 0.005,-0.016 0.009,-0.025 v 0 c 10e-4,-0.002 0.003,-0.006 0.004,-0.009 v 0 c 0.004,-0.01 0.01,-0.021 0.016,-0.034 v 0 c 0,0 0.002,-0.002 0.002,-0.003 v 0 c 0.006,-0.009 0.01,-0.018 0.017,-0.027 v 0 c 0.001,-0.003 0.004,-0.008 0.007,-0.012 v 0 c 0.005,-0.006 0.009,-0.013 0.015,-0.02 v 0 c 0.003,-0.004 0.004,-0.006 0.008,-0.011 v 0 c 0.007,-0.007 0.013,-0.018 0.018,-0.024 v 0 c 0.003,-0.004 0.006,-0.005 0.007,-0.006 v 0 c 0.007,-0.01 0.016,-0.021 0.027,-0.031 v 0 c 0.001,-0.004 0.005,-0.004 0.007,-0.007 v 0 c 0.006,-0.008 0.014,-0.015 0.021,-0.021 v 0 c 0.005,-0.003 0.007,-0.009 0.013,-0.01 v 0 c 0.006,-0.006 0.013,-0.013 0.02,-0.02 v 0 c 0.003,-0.003 0.006,-0.006 0.01,-0.009 v 0 c 0.009,-0.008 0.018,-0.017 0.029,-0.025 v 0 c 0.002,0 0.004,-0.001 0.004,-0.002 v 0 c 0.011,-0.009 0.021,-0.017 0.034,-0.024 v 0 c 0.003,-0.004 0.007,-0.008 0.011,-0.011 v 0 c 0.009,-0.005 0.017,-0.009 0.026,-0.017 v 0 c 0.003,-0.001 0.008,-0.004 0.01,-0.007 v 0 c 0.01,-0.006 0.019,-0.013 0.027,-0.017 v 0 c 0.005,-0.005 0.009,-0.005 0.013,-0.007 v 0 c 0.013,-0.009 0.023,-0.016 0.036,-0.024 v 0 L 39.412,18.221 c 0.351,-0.202 0.963,-0.36 1.506,-0.109 v 0 c 1.996,0.836 4.708,0.833 6.713,0.007 v 0 c 0.413,-0.185 1.055,-0.168 1.572,0.132 v 0 l 46.171,26.832 c 0.517,0.301 0.543,0.671 0.226,0.908 v 0 c -1.436,1.162 -1.449,2.73 -0.021,3.891 v 0 c 0.44,0.317 0.166,0.67 -0.185,0.873 v 0 L 77.607,61.024 c -0.222,0.128 -0.549,0.239 -0.899,0.239 v 0 c -0.202,0 -0.412,-0.038 -0.614,-0.13 M 73.359,48.249 c -2.149,1.239 -2.153,3.245 -0.026,4.48 v 0 c 2.128,1.239 5.588,1.241 7.735,0 v 0 c 2.142,-1.235 2.148,-3.241 0.02,-4.478 v 0 c -1.064,-0.619 -2.463,-0.928 -3.863,-0.928 v 0 c -1.398,0 -2.797,0.308 -3.866,0.926 M 50.478,34.952 c -0.83,0.479 -1.505,1.015 -2.029,1.583 v 0 c -2.293,2.494 -1.635,5.656 1.975,7.755 v 0 c 2.96,1.719 7.158,2.292 10.951,1.717 v 0 C 61.43,46 61.484,45.991 61.54,45.981 v 0 c 0.288,-0.045 0.574,-0.099 0.856,-0.158 v 0 c 0.077,-0.016 0.152,-0.034 0.227,-0.05 v 0 c 0.092,-0.022 0.184,-0.041 0.273,-0.066 v 0 c 0.238,-0.057 0.473,-0.119 0.705,-0.185 v 0 c 0.198,-0.058 0.395,-0.12 0.587,-0.185 v 0 c 0.517,-0.172 1.013,-0.37 1.489,-0.594 v 0 c 0.074,-0.035 0.147,-0.07 0.22,-0.108 v 0 c 0.15,-0.072 0.294,-0.148 0.438,-0.226 v 0 c 0.07,-0.038 0.139,-0.079 0.21,-0.119 v 0 c 0.348,-0.202 0.67,-0.411 0.966,-0.632 v 0 c 0.116,-0.087 0.229,-0.177 0.339,-0.267 v 0 c 0.109,-0.091 0.213,-0.182 0.314,-0.275 v 0 c 2.259,-2.084 2.32,-4.737 0.182,-6.847 v 0 c -0.002,-0.002 -0.002,-0.003 -0.003,-0.003 v 0 c -0.259,-0.253 -0.549,-0.495 -0.868,-0.733 v 0 c -0.093,-0.068 -0.191,-0.138 -0.287,-0.204 v 0 c -0.065,-0.043 -0.127,-0.085 -0.194,-0.126 v 0 C 66.865,35.119 66.73,35.036 66.593,34.955 v 0 C 65.969,34.593 65.29,34.283 64.572,34.021 v 0 c -0.16,-0.058 -0.322,-0.113 -0.485,-0.167 v 0 c -0.247,-0.077 -0.493,-0.153 -0.746,-0.22 v 0 c -0.169,-0.046 -0.339,-0.088 -0.509,-0.128 v 0 c -0.171,-0.041 -0.346,-0.078 -0.519,-0.113 v 0 c -1.218,-0.247 -2.495,-0.371 -3.772,-0.371 v 0 c -2.915,0 -5.832,0.643 -8.063,1.93 M 35.954,26.513 c -2.147,1.239 -2.153,3.245 -0.025,4.481 v 0 c 2.128,1.235 5.589,1.239 7.736,0 v 0 c 2.14,-1.236 2.148,-3.242 0.021,-4.478 v 0 C 42.62,25.897 41.22,25.587 39.819,25.587 v 0 c -1.397,0 -2.796,0.308 -3.865,0.926" /></g></g></g></g><g
       id="g672"><g
         clip-path="url(#clipPath678)"
         id="g674"><g
           id="g680"><g
             id="g682"><path
               id="path690"
               style="fill:url(#linearGradient688);stroke:none"
               d="M 71.529,72.967 12.624,38.734 c -0.616,-0.356 -0.612,-0.941 0.008,-1.298 v 0 L 43.249,19.76 c 0.617,-0.358 1.625,-0.358 2.241,0 v 0 l 58.905,34.231 c 0.615,0.358 0.612,0.942 -0.008,1.3 v 0 L 73.772,72.967 c -0.309,0.179 -0.716,0.269 -1.123,0.269 v 0 c -0.406,0 -0.812,-0.09 -1.12,-0.269" /></g></g></g></g><g
       id="g692"><g
         clip-path="url(#clipPath698)"
         id="g694"><g
           id="g700"><g
             id="g702"><path
               id="path710"
               style="fill:url(#linearGradient708);stroke:none"
               d="M 104.395,53.991 45.49,19.76 c -0.616,-0.358 -1.624,-0.358 -2.241,0 v 0 L 12.632,37.436 c -0.312,0.179 -0.467,0.418 -0.467,0.655 v 0 -6.012 c 0,-0.237 0.155,-0.474 0.467,-0.654 v 0 L 43.249,13.748 c 0.617,-0.357 1.627,-0.357 2.241,0.001 v 0 l 58.905,34.233 c 0.305,0.176 0.458,0.409 0.458,0.643 v 0 6.012 c 0,-0.234 -0.153,-0.468 -0.458,-0.646" /></g></g></g></g><g
       id="g712"><g
         clip-path="url(#clipPath718)"
         id="g714"><g
           id="g720"><g
             id="g722" /><g
             id="g734"><g
               style="opacity:0.69999701"
               id="g732"
               clip-path="url(#clipPath726)"><g
                 id="g730"
                 transform="translate(104.3947,53.9913)"><path
                   id="path728"
                   style="fill:#ffffff;fill-opacity:1;fill-rule:nonzero;stroke:none"
                   d="m 0,0 -58.905,-34.231 c -0.616,-0.358 -1.623,-0.358 -2.241,0 l -30.617,17.676 c -0.311,0.18 -0.467,0.418 -0.467,0.654 l -10e-4,-0.561 c 0.046,-0.191 0.191,-0.376 0.445,-0.523 l 30.615,-17.677 c 0.618,-0.357 1.628,-0.357 2.243,10e-4 l 58.905,34.232 c 0.305,0.176 0.459,0.412 0.46,0.645 V 0.513 C 0.39,0.325 0.248,0.146 0,0" /></g></g></g></g></g></g><g
       id="g736"><g
         clip-path="url(#clipPath742)"
         id="g738"><g
           id="g744"><g
             id="g746"><path
               id="path754"
               style="fill:url(#linearGradient752);stroke:none"
               d="m 55.784,48.721 -1.358,0.785 -1.24,-0.722 1.408,-0.813 c -0.927,-0.789 -0.943,-1.613 0.073,-2.2 v 0 c 1.292,-0.746 2.715,-0.348 3.931,0.05 v 0 c 0.999,0.327 1.858,0.653 2.389,0.347 v 0 c 0.378,-0.217 0.245,-0.527 -0.284,-0.832 v 0 c -0.687,-0.402 -2.109,-0.761 -3.378,-0.815 v 0 l 0.648,-1.126 c 1.107,0.062 2.275,0.322 3.262,0.74 v 0 l 1.472,-0.849 1.239,0.722 -1.435,0.828 c 1.096,0.799 1.328,1.727 0.151,2.408 v 0 c -1.326,0.765 -2.785,0.371 -4.019,-0.021 v 0 c -0.998,-0.319 -1.849,-0.637 -2.362,-0.34 v 0 c -0.324,0.187 -0.198,0.452 0.239,0.707 v 0 c 0.536,0.312 1.702,0.655 2.808,0.823 v 0 l -0.689,1.13 c -0.931,-0.116 -1.975,-0.41 -2.855,-0.822" /></g></g></g></g><g
       id="g756"><g
         clip-path="url(#clipPath762)"
         id="g758"><g
           id="g764"><g
             id="g766"><path
               id="path774"
               style="fill:url(#linearGradient772);stroke:none"
               d="m 76.094,67.871 c -1.991,-0.833 -4.695,-0.833 -6.707,-0.006 v 0 c -0.408,0.183 -1.056,0.17 -1.575,-0.13 v 0 L 21.644,40.903 c -0.519,-0.299 -0.537,-0.678 -0.227,-0.907 v 0 c 1.441,-1.165 1.449,-2.733 0.022,-3.892 v 0 c -0.165,-0.117 -0.228,-0.239 -0.228,-0.357 v 0 c 0,-0.011 0.001,-0.022 0.001,-0.036 v 0 -0.002 c 0.002,-0.01 0.004,-0.019 0.007,-0.03 v 0 c 0,-0.003 10e-4,-0.007 0.002,-0.012 v 0 c 0.004,-0.009 0.004,-0.014 0.007,-0.022 v 0 c 0.002,-0.004 0.004,-0.008 0.005,-0.013 v 0 c 0.003,-0.008 0.005,-0.014 0.009,-0.024 v 0 c 10e-4,-0.002 0.003,-0.004 0.004,-0.008 v 0 c 0.004,-0.01 0.01,-0.024 0.016,-0.034 v 0 c 0,-0.002 0.002,-0.003 0.002,-0.004 v 0 c 0.006,-0.008 0.01,-0.019 0.017,-0.026 v 0 c 0.001,-0.004 0.004,-0.008 0.007,-0.012 v 0 c 0.005,-0.007 0.009,-0.015 0.015,-0.021 v 0 c 0.003,-0.004 0.004,-0.008 0.008,-0.011 v 0 c 0.007,-0.009 0.013,-0.015 0.018,-0.023 v 0 c 0.003,-0.002 0.006,-0.004 0.007,-0.007 v 0 c 0.007,-0.012 0.016,-0.021 0.027,-0.029 v 0 c 0.001,-0.005 0.005,-0.005 0.007,-0.008 v 0 c 0.006,-0.008 0.014,-0.014 0.021,-0.022 v 0 c 0.005,-0.003 0.007,-0.008 0.013,-0.011 v 0 c 0.006,-0.006 0.013,-0.014 0.02,-0.02 v 0 c 0.003,-10e-4 0.006,-0.005 0.01,-0.007 v 0 c 0.009,-0.008 0.018,-0.016 0.029,-0.024 v 0 c 0.002,-10e-4 0.004,-0.003 0.004,-0.004 v 0 c 0.011,-0.008 0.021,-0.017 0.034,-0.025 v 0 c 0.003,-0.003 0.007,-0.006 0.011,-0.009 v 0 c 0.009,-0.004 0.017,-0.011 0.026,-0.017 v 0 c 0.003,-0.001 0.008,-0.004 0.01,-0.008 v 0 c 0.01,-0.006 0.019,-0.012 0.027,-0.016 v 0 c 0.005,-0.004 0.009,-0.005 0.013,-0.008 v 0 c 0.013,-0.008 0.023,-0.015 0.036,-0.024 v 0 L 39.412,24.962 c 0.351,-0.203 0.963,-0.361 1.506,-0.111 v 0 c 1.996,0.837 4.708,0.835 6.713,0.01 v 0 c 0.413,-0.185 1.055,-0.171 1.572,0.13 v 0 l 46.171,26.83 c 0.517,0.303 0.543,0.675 0.226,0.912 v 0 c -1.436,1.161 -1.449,2.73 -0.021,3.888 v 0 c 0.44,0.317 0.166,0.671 -0.185,0.874 v 0 L 77.607,67.766 c -0.221,0.127 -0.546,0.237 -0.894,0.237 v 0 c -0.204,0 -0.416,-0.038 -0.619,-0.132 M 73.359,54.99 c -2.149,1.239 -2.153,3.244 -0.026,4.48 v 0 c 2.128,1.237 5.588,1.238 7.735,0 v 0 c 2.142,-1.236 2.148,-3.241 0.02,-4.476 v 0 c -1.065,-0.62 -2.465,-0.93 -3.865,-0.93 v 0 c -1.397,0 -2.795,0.309 -3.864,0.926 M 50.478,41.694 c -0.83,0.478 -1.505,1.013 -2.029,1.58 v 0 c -2.293,2.496 -1.635,5.658 1.975,7.755 v 0 c 2.96,1.721 7.158,2.294 10.951,1.718 v 0 c 0.055,-0.007 0.109,-0.014 0.165,-0.025 v 0 c 0.288,-0.047 0.574,-0.098 0.856,-0.159 v 0 c 0.077,-0.017 0.152,-0.033 0.227,-0.049 v 0 c 0.092,-0.021 0.184,-0.043 0.273,-0.064 v 0 c 0.238,-0.058 0.473,-0.121 0.705,-0.189 v 0 c 0.198,-0.058 0.395,-0.12 0.587,-0.184 v 0 c 0.517,-0.174 1.013,-0.37 1.489,-0.593 v 0 c 0.074,-0.036 0.147,-0.071 0.22,-0.109 v 0 c 0.15,-0.072 0.294,-0.148 0.438,-0.226 v 0 c 0.07,-0.037 0.139,-0.079 0.21,-0.12 v 0 c 0.348,-0.202 0.67,-0.412 0.966,-0.631 v 0 c 0.116,-0.087 0.229,-0.176 0.339,-0.265 v 0 c 0.109,-0.092 0.213,-0.183 0.314,-0.276 v 0 c 2.259,-2.084 2.32,-4.738 0.182,-6.848 v 0 c -0.002,-10e-4 -0.002,-0.002 -0.003,-0.004 v 0 c -0.259,-0.251 -0.549,-0.497 -0.868,-0.732 v 0 C 67.382,42.204 67.284,42.138 67.188,42.07 v 0 c -0.065,-0.045 -0.127,-0.087 -0.194,-0.129 v 0 C 66.865,41.86 66.73,41.777 66.593,41.695 v 0 C 65.969,41.334 65.29,41.022 64.572,40.762 v 0 c -0.16,-0.059 -0.322,-0.114 -0.485,-0.167 v 0 c -0.247,-0.078 -0.493,-0.153 -0.746,-0.22 v 0 c -0.169,-0.046 -0.339,-0.088 -0.509,-0.13 v 0 c -0.171,-0.038 -0.346,-0.078 -0.519,-0.112 v 0 C 61.095,39.885 59.818,39.762 58.54,39.762 v 0 c -2.914,0 -5.831,0.643 -8.062,1.932 M 35.954,33.252 c -2.147,1.241 -2.153,3.245 -0.025,4.482 v 0 c 2.128,1.237 5.589,1.241 7.736,0 v 0 c 2.14,-1.237 2.148,-3.241 0.021,-4.479 v 0 C 42.621,32.637 41.221,32.327 39.82,32.327 v 0 c -1.398,0 -2.796,0.308 -3.866,0.925" /></g></g></g></g></g></svg>