<?xml version="1.0" encoding="UTF-8" standalone="no"?>
<svg
   xmlns:dc="http://purl.org/dc/elements/1.1/"
   xmlns:cc="http://creativecommons.org/ns#"
   xmlns:rdf="http://www.w3.org/1999/02/22-rdf-syntax-ns#"
   xmlns:svg="http://www.w3.org/2000/svg"
   xmlns="http://www.w3.org/2000/svg"
   viewBox="0 0 574.0387 136.95067"
   height="136.95067"
   width="574.0387"
   xml:space="preserve"
   id="svg2"
   version="1.1"><metadata
     id="metadata8"><rdf:RDF><cc:Work
         rdf:about=""><dc:format>image/svg+xml</dc:format><dc:type
           rdf:resource="http://purl.org/dc/dcmitype/StillImage" /></cc:Work></rdf:RDF></metadata><defs
     id="defs6"><clipPath
       id="clipPath18"
       clipPathUnits="userSpaceOnUse"><path
         id="path16"
         d="M 0,102.713 H 430.529 V 0 H 0 Z" /></clipPath></defs><g
     transform="matrix(1.3333333,0,0,-1.3333333,0,136.95067)"
     id="g10"><g
       id="g12"><g
         clip-path="url(#clipPath18)"
         id="g14"><g
           transform="translate(3.3996,66.6387)"
           id="g20"><path
             id="path22"
             style="fill:#f4ba02;fill-opacity:1;fill-rule:nonzero;stroke:none"
             d="M 0,0 C 0.01,2.521 1.861,4.656 4.355,5.024 10.508,-2.374 21.28,-3.877 29.224,1.555 29.018,0.481 28.909,-0.607 28.897,-1.7 28.903,-3.426 29.149,-5.143 29.63,-6.8 H 5.1 C 2.283,-6.8 0,-4.517 0,-1.7 Z m 18.698,32.296 c 8.449,0 15.299,-6.849 15.299,-15.298 0,-8.449 -6.85,-15.299 -15.299,-15.299 -8.449,0 -15.298,6.85 -15.298,15.299 0.01,8.444 6.853,15.288 15.298,15.298 M 60.83,5.949 c 1.348,-2.324 2.06,-4.963 2.064,-7.649 0.002,-1.738 -0.295,-3.463 -0.879,-5.1 h -3.682 c 2.556,5.343 0.778,11.752 -4.165,15.015 -3.997,2.596 -9.148,2.596 -13.146,0 C 36.08,4.952 34.302,-1.457 36.857,-6.8 h -3.681 c -0.584,1.637 -0.882,3.362 -0.879,5.1 -0.008,8.443 6.831,15.294 15.274,15.302 5.471,0.004 10.527,-2.914 13.259,-7.653 M 71.393,0 v -1.7 c 0,-2.817 -2.283,-5.1 -5.1,-5.1 h -0.732 c 1.147,3.919 0.942,8.11 -0.58,11.899 h 1.312 c 2.817,0 5.1,-2.283 5.1,-5.099 m 0,-27.197 V -37.396 H 42.496 c -2.817,0 -5.1,2.283 -5.1,5.099 0,2.817 2.283,5.1 5.1,5.1 z M 39.096,-1.7 c -10e-4,2.85 1.428,5.511 3.806,7.083 2.854,1.852 6.532,1.852 9.387,0 3.886,-2.542 4.976,-7.754 2.434,-11.641 -0.121,-0.185 -0.25,-0.366 -0.386,-0.542 H 40.854 c -1.128,1.462 -1.746,3.253 -1.758,5.1 M 6.799,-30.598 c 0,0.94 0.762,1.701 1.7,1.701 0.939,0 1.7,-0.761 1.7,-1.701 0,-0.938 -0.761,-1.699 -1.7,-1.699 -0.938,0 -1.7,0.761 -1.7,1.699 m 37.397,-18.698 c 0,0.94 0.761,1.7 1.7,1.7 0.938,0 1.699,-0.76 1.699,-1.7 0,-0.938 -0.761,-1.699 -1.699,-1.699 -0.939,0 -1.7,0.761 -1.7,1.699 M 66.293,-62.895 H 32.297 v 7.65 l 5.665,4.25 h 3.147 c 0.938,-2.655 3.852,-4.047 6.507,-3.109 2.655,0.94 4.047,3.853 3.109,6.508 -0.939,2.656 -3.853,4.047 -6.508,3.109 -1.452,-0.514 -2.595,-1.657 -3.108,-3.109 h -3.713 c -0.368,0 -0.726,-0.119 -1.02,-0.34 l -6.799,-5.099 c -0.428,-0.321 -0.68,-0.825 -0.68,-1.36 v -8.5 h -5.099 v 20.711 c 2.655,0.94 4.047,3.853 3.108,6.508 -0.939,2.655 -3.853,4.047 -6.508,3.109 -2.655,-0.94 -4.047,-3.853 -3.108,-6.508 0.513,-1.452 1.656,-2.595 3.108,-3.109 v -20.711 h -5.1 v 13.599 c 0,0.451 -0.179,0.884 -0.498,1.202 l -4.601,4.602 v 8.108 c 2.655,0.939 4.047,3.853 3.108,6.508 -0.939,2.655 -3.852,4.046 -6.508,3.107 -2.655,-0.938 -4.047,-3.852 -3.108,-6.507 0.514,-1.453 1.656,-2.595 3.108,-3.108 v -8.812 c 0,-0.45 0.18,-0.883 0.498,-1.201 l 4.602,-4.602 V -62.895 H 5.1 c -2.817,0 -5.1,2.284 -5.1,5.1 v 49.34 c 1.462,-1.125 3.254,-1.738 5.1,-1.744 h 61.193 c 1.846,0.006 3.637,0.619 5.1,1.744 V -23.798 H 42.496 c -4.694,0 -8.499,-3.806 -8.499,-8.499 0,-4.694 3.805,-8.499 8.499,-8.499 h 28.897 v -16.999 c 0,-2.816 -2.283,-5.1 -5.1,-5.1 m -45.895,25.499 c 0,0.938 0.761,1.699 1.7,1.699 0.939,0 1.7,-0.761 1.7,-1.699 0,-0.94 -0.761,-1.701 -1.7,-1.701 -0.939,0 -1.7,0.761 -1.7,1.701 M -3.399,0 v -57.795 c 0.005,-4.691 3.807,-8.493 8.499,-8.499 h 61.193 c 4.692,0.006 8.494,3.808 8.499,8.499 V 0 c -0.005,4.691 -3.807,8.493 -8.499,8.499 h -3.09 C 57.676,17.096 46.227,19.586 37.629,14.059 37.446,13.941 37.266,13.82 37.087,13.696 38.927,23.858 32.181,33.587 22.02,35.428 11.858,37.268 2.129,30.521 0.289,20.36 -0.478,16.126 0.24,11.756 2.32,7.988 -1.091,6.812 -3.385,3.607 -3.399,0" /></g><g
           transform="translate(22.0978,92.1357)"
           id="g24"><path
             id="path26"
             style="fill:#f4ba02;fill-opacity:1;fill-rule:nonzero;stroke:none"
             d="m 0,0 c 4.694,0 8.499,-3.806 8.499,-8.499 0,-4.694 -3.805,-8.499 -8.499,-8.499 -4.694,0 -8.499,3.805 -8.499,8.499 C -8.494,-3.808 -4.692,-0.006 0,0 m 0,-20.398 c 6.571,0 11.899,5.328 11.899,11.899 0,6.571 -5.328,11.898 -11.899,11.898 -6.572,0 -11.899,-5.327 -11.899,-11.898 0.008,-6.568 5.331,-11.892 11.899,-11.899" /></g><text
           id="text30"
           style="font-variant:normal;font-weight:normal;font-stretch:normal;font-size:94.79730225px;font-family:'Futura PT Book';-inkscape-font-specification:FuturaPT-Book;writing-mode:lr-tb;fill:#000000;fill-opacity:1;fill-rule:nonzero;stroke:none"
           transform="matrix(1,0,0,-1,104.7217,23.6992)"><tspan
             id="tspan28"
             y="0"
             x="0 14.219595 50.242569 94.418114 133.47459 192.62811 236.99326 251.21284 265.43243 305.53171">iconwallet</tspan></text>
</g></g></g></svg>