<?xml version="1.0" encoding="utf-8"?>
<!-- Generator: Adobe Illustrator 21.0.0, SVG Export Plug-In . SVG Version: 6.00 Build 0)  -->
<svg version="1.1" id="Capa_1" xmlns="http://www.w3.org/2000/svg" xmlns:xlink="http://www.w3.org/1999/xlink" x="0px" y="0px"
	 viewBox="0 0 512 512" style="enable-background:new 0 0 512 512;" xml:space="preserve">
<style type="text/css">
	.st0{fill:#1E87F0;}
</style>
<g>
	<g>
		<path class="st0" d="M125.1,512H387c42.5,0,77-33.5,77-76V266c0-34.4-21.7-63.9-55.9-73.5v-53.7C408,62.7,347.5,0,271.5,0h-31
			c-76,0-139.6,62.4-139.6,138.7v53.7c-31,9.6-52.8,39.1-52.8,73.5v170C48.1,478.5,82.5,512,125.1,512z M240.5,37.2h31
			c55.5,0,99.3,45.9,99.3,101.5v50.6H138.1v-50.6C138.1,83.2,184.9,37.2,240.5,37.2z M426.7,435c0,22-17.7,39.7-39.7,39.7H125.1
			c-22,0-39.7-17.7-39.7-39.7V266.2c0-22,17.7-39.7,39.7-39.7H387c22,0,39.7,17.7,39.7,39.7V435L426.7,435z"/>
		<path class="st0" d="M249.8,428.2c10.2,0,18.6-8.4,18.6-18.6v-59c0-10.2-8.4-18.6-18.6-18.6s-18.6,8.4-18.6,18.6v59
			C231.2,419.8,239.6,428.2,249.8,428.2z"/>
	</g>
</g>
</svg>
