<?xml version="1.0" encoding="utf-8"?>
<!-- Generator: Adobe Illustrator 21.0.0, SVG Export Plug-In . SVG Version: 6.00 Build 0)  -->
<svg version="1.1" id="Capa_1" xmlns="http://www.w3.org/2000/svg" xmlns:xlink="http://www.w3.org/1999/xlink" x="0px" y="0px"
	 viewBox="0 0 512 512" style="enable-background:new 0 0 512 512;" xml:space="preserve">
<style type="text/css">
	.st0{fill:#1E87F0;}
	.st1{fill:#666666;}
</style>
<g>
	<g>
		<g>
			<path class="st0" d="M59.7,34.1c-14.1,0-25.6,11.5-25.6,25.6s11.5,25.6,25.6,25.6s25.6-11.5,25.6-25.6S73.9,34.1,59.7,34.1z
				 M59.7,68.3c-4.7,0-8.5-3.8-8.5-8.5s3.8-8.5,8.5-8.5s8.5,3.8,8.5,8.5S64.4,68.3,59.7,68.3z"/>
			<path class="st0" d="M128,51.2h-17.1c-4.7,0-8.5,3.8-8.5,8.5s3.8,8.5,8.5,8.5H128c4.7,0,8.5-3.8,8.5-8.5S132.7,51.2,128,51.2z"/>
			<path class="st0" d="M179.2,51.2h-17.1c-4.7,0-8.5,3.8-8.5,8.5s3.8,8.5,8.5,8.5h17.1c4.7,0,8.5-3.8,8.5-8.5
				S183.9,51.2,179.2,51.2z"/>
			<path class="st0" d="M59.7,187.7c-14.1,0-25.6,11.5-25.6,25.6c0,14.1,11.5,25.6,25.6,25.6s25.6-11.5,25.6-25.6
				C85.3,199.2,73.9,187.7,59.7,187.7z M59.7,221.9c-4.7,0-8.5-3.8-8.5-8.5c0-4.7,3.8-8.5,8.5-8.5s8.5,3.8,8.5,8.5
				C68.3,218,64.4,221.9,59.7,221.9z"/>
			<path class="st0" d="M128,204.8h-17.1c-4.7,0-8.5,3.8-8.5,8.5c0,4.7,3.8,8.5,8.5,8.5H128c4.7,0,8.5-3.8,8.5-8.5
				S132.7,204.8,128,204.8z"/>
			<path class="st0" d="M179.2,204.8h-17.1c-4.7,0-8.5,3.8-8.5,8.5c0,4.7,3.8,8.5,8.5,8.5h17.1c4.7,0,8.5-3.8,8.5-8.5
				S183.9,204.8,179.2,204.8z"/>
			<path class="st0" d="M59.7,341.3c-14.1,0-25.6,11.5-25.6,25.6s11.5,25.6,25.6,25.6s25.6-11.5,25.6-25.6S73.9,341.3,59.7,341.3z
				 M59.7,375.5c-4.7,0-8.5-3.8-8.5-8.5s3.8-8.5,8.5-8.5s8.5,3.8,8.5,8.5S64.4,375.5,59.7,375.5z"/>
			<path class="st0" d="M128,358.4h-17.1c-4.7,0-8.5,3.8-8.5,8.5s3.8,8.5,8.5,8.5H128c4.7,0,8.5-3.8,8.5-8.5S132.7,358.4,128,358.4z
				"/>
			<path class="st0" d="M179.2,358.4h-17.1c-4.7,0-8.5,3.8-8.5,8.5s3.8,8.5,8.5,8.5h17.1c4.7,0,8.5-3.8,8.5-8.5
				S183.9,358.4,179.2,358.4z"/>
			<path class="st1" d="M486.4,187.7h-59.7v-8.5c0-14.1-11.5-25.6-25.6-25.6h-25.6v-34.1h25.6c14.1,0,25.6-11.5,25.6-25.6V25.6
				c0-14.1-11.5-25.6-25.6-25.6H25.6C11.5,0,0,11.5,0,25.6v68.3c0,14.1,11.5,25.6,25.6,25.6h25.6v34.1H25.6
				C11.5,153.6,0,165.1,0,179.2v68.3c0,14.1,11.5,25.6,25.6,25.6h25.6v34.1H25.6C11.5,307.2,0,318.7,0,332.8v68.3
				c0,14.1,11.5,25.6,25.6,25.6h162.1v34.1H8.5c-4.7,0-8.5,3.8-8.5,8.5s3.8,8.5,8.5,8.5h324.3c0.2,0,0.3-0.1,0.5-0.1
				c6.9,6.1,14.1,11.8,21.6,17.2H8.5c-4.7,0-8.5,3.8-8.5,8.5s3.8,8.5,8.5,8.5H384c1,0,2-0.2,2.9-0.6c0.2-0.1,0.5-0.2,0.7-0.3
				c0.2-0.1,0.4-0.1,0.6-0.2C510.6,441.4,512,327.5,512,322.7V213.3C512,199.2,500.5,187.7,486.4,187.7z M25.6,102.4
				c-4.7,0-8.5-3.8-8.5-8.5V25.6c0-4.7,3.8-8.5,8.5-8.5h375.5c4.7,0,8.5,3.8,8.5,8.5v68.3c0,4.7-3.8,8.5-8.5,8.5H25.6z M358.4,119.5
				v34.1H68.3v-34.1C68.3,119.5,358.4,119.5,358.4,119.5z M25.6,256c-4.7,0-8.5-3.8-8.5-8.5v-68.3c0-4.7,3.8-8.5,8.5-8.5h375.5
				c4.7,0,8.5,3.8,8.5,8.5v8.5h-128c-14.1,0-25.6,11.5-25.6,25.6V256H25.6z M256,273.1v34.1H68.3v-34.1L256,273.1L256,273.1z
				 M25.6,409.6c-4.7,0-8.5-3.8-8.5-8.5v-68.3c0-4.7,3.8-8.5,8.5-8.5H256c1.8,29.8,9.9,58.9,23.9,85.3H25.6z M221.9,460.8h-17.1
				v-34.1h17.1V460.8z M238.9,460.8v-34.1h50.8c7.6,12.2,16.4,23.6,26.1,34.1H238.9z M494.9,322.7c0,4.4-1.6,106.4-110.9,170.9
				C274.7,429.1,273.1,327,273.1,322.7V213.3c0-4.7,3.8-8.5,8.5-8.5h204.8c4.7,0,8.5,3.8,8.5,8.5L494.9,322.7L494.9,322.7z"/>
			<path class="st0" d="M460.8,221.9c-4.7,0-8.5,3.8-8.5,8.5s3.8,8.5,8.5,8.5v83.6c-0.1,3.2-2.1,79.5-81.6,133.7
				c-2.6,1.7-4.1,4.6-3.9,7.7c0.2,3.1,2.1,5.8,4.9,7.2s6.1,1,8.6-0.8c86.8-59.1,89-144,89.1-147.7v-83.7
				C477.9,229.5,470.2,221.9,460.8,221.9z"/>
			<path class="st0" d="M307.2,322.7v-83.7h93.9c4.7,0,8.5-3.8,8.5-8.5s-3.8-8.5-8.5-8.5h-93.9c-9.4,0-17.1,7.6-17.1,17.1v83.7
				c2.4,34.9,14.8,68.4,35.8,96.4c1.8,2.5,4.8,3.8,7.8,3.5c3-0.3,5.7-2.2,6.9-5c1.2-2.8,0.9-6-0.9-8.5
				C320.9,383.9,309.7,354,307.2,322.7z"/>
			<path class="st0" d="M441.2,283c-3.3-3.3-8.7-3.3-12.1,0l-63.3,63.3l-10-10c-3.3-3.2-8.7-3.2-12,0.1c-3.3,3.3-3.3,8.6-0.1,12
				l16,16c3.3,3.3,8.7,3.3,12.1,0l69.3-69.3C444.6,291.8,444.6,286.4,441.2,283z"/>
		</g>
	</g>
</g>
</svg>
