<?xml version="1.0" encoding="utf-8"?>
<!-- Generator: Adobe Illustrator 21.0.0, SVG Export Plug-In . SVG Version: 6.00 Build 0)  -->
<svg version="1.1" id="Capa_1" xmlns="http://www.w3.org/2000/svg" xmlns:xlink="http://www.w3.org/1999/xlink" x="0px" y="0px"
	 viewBox="0 0 512 512" style="enable-background:new 0 0 512 512;" xml:space="preserve">
<style type="text/css">
	.st0{fill:#666666;}
	.st1{fill:#1E87F0;}
</style>
<g>
	<g>
		<path class="st0" d="M388.3,0H46.9C23.4,0,4.3,19.1,4.3,42.7v273.1c0,19.5,13.2,36.5,32,41.3l4.3-16.5
			c-11.3-2.9-19.2-13.1-19.2-24.8V42.7c0-14.1,11.5-25.6,25.6-25.6h341.3c14.1,0,25.6,11.5,25.6,25.6v8.5h17.1v-8.5
			C430.9,19.1,411.8,0,388.3,0z"/>
	</g>
</g>
<g>
	<g>
		<rect x="38.4" y="34.1" class="st0" width="17.1" height="17.1"/>
	</g>
</g>
<g>
	<g>
		<rect x="72.5" y="34.1" class="st0" width="17.1" height="17.1"/>
	</g>
</g>
<g>
	<g>
		<rect x="106.7" y="34.1" class="st0" width="17.1" height="17.1"/>
	</g>
</g>
<g>
	<g>
		<path class="st1" d="M505.2,471.8l-80.9-80.9c4.3-7.6,7.7-15.6,10.1-24H448v-17.1h-9.9c3.2-20.7,0.7-41.8-7.2-61.2v-83.9h-17.1
			v54.3c-5.1-6.5-10.8-12.4-17.1-17.7v-70.8h-17.1v58.8c-5.5-3.2-11.2-5.9-17.1-8.1v-84.8h-17.1v79.6c-5.6-1.2-11.3-2-17.1-2.4
			v-60.2h-17.1v60.2c-5.7,0.4-11.4,1.2-17.1,2.4v-28.4h-17.1v33.6c-5.9,2.3-11.6,5-17.1,8.1v-50.3h-17.1v62.2
			c-6.3,5.3-12,11.2-17.1,17.7v-62.9h-17.1v92.5c-7.9,19.4-10.4,40.5-7.2,61.2H89.6v17.1h116c18.7,63.1,85.1,99.1,148.2,80.4
			c12.4-3.7,24.2-9.4,34.8-16.9l79,79c3.3,3.3,8.7,3.3,12.1,0l25.6-25.6C508.6,480.6,508.6,475.2,505.2,471.8z M320,435.2
			c-56.5-0.1-102.3-45.9-102.4-102.4c0-56.6,45.8-102.4,102.4-102.4s102.4,45.8,102.4,102.4S376.6,435.2,320,435.2z M473.6,491.4
			l-71.8-71.8c4.7-4.4,8.9-9.2,12.8-14.2l72.5,72.5L473.6,491.4z"/>
	</g>
</g>
<g>
	<g>
		<path class="st1" d="M320,247.5c-47.1,0-85.3,38.2-85.3,85.3s38.2,85.3,85.3,85.3s85.3-38.2,85.3-85.3
			C405.3,285.7,367.1,247.5,320,247.5z M320,401.1c-24.4,0-46.9-13-59-34.1H379C366.9,388,344.4,401,320,401.1z M254,349.9
			c-6.9-26,2.3-53.6,23.4-70.3v53.2h17.1v-63.2c5.5-2.2,11.2-3.7,17.1-4.4v67.7h17.1v-67.7c5.9,0.7,11.6,2.2,17.1,4.4v63.2h17.1
			v-53.2c21.1,16.7,30.2,44.3,23.4,70.3H254z"/>
	</g>
</g>
<g>
	<g>
		<path class="st0" d="M439.5,68.3H98.1c-23.6,0-42.6,19.1-42.7,42.7V384c0,23.6,19.1,42.6,42.7,42.7h110.9v-17.1H98.1
			c-14.1,0-25.6-11.5-25.6-25.6V110.9c0-14.1,11.5-25.6,25.6-25.6h341.3c14.1,0,25.6,11.5,25.6,25.6V384c0,6.2-2.3,12.3-6.4,16.9
			l12.8,11.3c6.9-7.8,10.7-17.8,10.7-28.2V110.9C482.1,87.4,463,68.3,439.5,68.3z"/>
	</g>
</g>
<g>
	<g>
		<rect x="89.6" y="102.4" class="st0" width="17.1" height="17.1"/>
	</g>
</g>
<g>
	<g>
		<rect x="123.7" y="102.4" class="st0" width="17.1" height="17.1"/>
	</g>
</g>
<g>
	<g>
		<rect x="157.9" y="102.4" class="st0" width="17.1" height="17.1"/>
	</g>
</g>
<g>
	<g>
		<rect x="106.7" y="281.6" class="st1" width="17.1" height="51.2"/>
	</g>
</g>
<g>
	<g>
		<rect x="140.8" y="230.4" class="st1" width="17.1" height="102.4"/>
	</g>
</g>
<g>
	<g>
		<rect x="174.9" y="256" class="st1" width="17.1" height="76.8"/>
	</g>
</g>
</svg>
