<?xml version="1.0" encoding="utf-8"?>
<!-- Generator: Adobe Illustrator 21.0.0, SVG Export Plug-In . SVG Version: 6.00 Build 0)  -->
<svg version="1.1" id="Capa_1" xmlns="http://www.w3.org/2000/svg" xmlns:xlink="http://www.w3.org/1999/xlink" x="0px" y="0px"
	 viewBox="0 0 512 512" style="enable-background:new 0 0 512 512;" xml:space="preserve">
<style type="text/css">
	.st0{fill:#1E87F0;}
	.st1{fill:#666666;}
</style>
<g>
	<g>
		
			<rect x="86.9" y="346.8" transform="matrix(0.7071 -0.7071 0.7071 0.7071 -205.1238 214.9776)" class="st0" width="140.1" height="16.5"/>
	</g>
</g>
<g>
	<g>
		<path class="st1" d="M167.2,214.7h14.5h16.5h33v-82.6h-33v-33h-32c0.1,5.3,0.2,11.1,0.1,16.5h15.4v16.5v66.1h-14.9 M198.2,148.6
			h16.5v49.5h-16.5V148.6z"/>
		<path class="st1" d="M129.5,52c34.9-21.1,77.4-33.8,118.2-35.2v230.9H16.8C18.1,211.1,38,147.2,55,115.3c0.9-11.8-4.4-1.1-4-12.8
			C20.4,145.8,0,202.7,0,256c0,141.2,114.8,256,256,256c31.5,0,62.2-5.7,91.3-16.8c16.6,10.6,36.3,16.8,57.4,16.8
			c25.7,0,50.7-9.3,70.1-26.1L464,473.4c-16.5,14.2-37.5,22-59.3,22c-50.1,0-90.8-40.8-90.8-90.8s40.8-90.8,90.8-90.8
			s90.8,40.8,90.8,90.8c0,20.9-6.9,40.6-20,56.9l12.9,10.4c15.3-19,23.7-42.9,23.7-67.3c0-21.1-6.2-40.8-16.8-57.4
			c11.1-29.1,16.8-59.8,16.8-91.2C512,114.8,397.2,0,256,0c-44.3,0-87.4,11.5-125.6,33 M247.7,495.3C122.3,491,21,389.7,16.7,264.3
			h231V495.3z M495.3,247.7h-70.7l60.7-60.7C491.1,206.3,494.6,226.7,495.3,247.7z M453.7,121l-92.2,92.2l11.7,11.7l89.6-89.6
			c6.4,10.9,12,22.4,16.6,34.4l-78.1,78.1h-51l10.7-10.7l-11.7-11.7l-22.4,22.4h-51l155-155C439.2,101.5,446.8,111,453.7,121z
			 M264.3,16.7c21,0.7,41.4,4.1,60.7,10l-60.7,60.7V16.7z M264.3,160.7v-49.9l78.1-78.1c11.9,4.6,23.4,10.2,34.4,16.6l-13.3,13.3
			l11.7,11.7L391,58.3c10,6.9,19.4,14.5,28.3,22.7l-155,155v-48.2C262.6,179.9,262.4,170.1,264.3,160.7z M404.6,297.3
			c-59.2,0-107.4,48.2-107.4,107.4c0,31.1,13.3,59,34.5,78.6c-21.8,7.3-44.4,11.3-67.5,12v-231h231c-0.8,23.1-4.8,45.7-12.1,67.5
			C463.6,310.6,435.7,297.3,404.6,297.3z"/>
		<path class="st0" d="M49.2,134.9C50.8,131.8,47.5,137.9,49.2,134.9v79.8h33h16.5h16.5h16.5h16.5h16.8c0.1-6.7-0.3-16.5-0.3-16.5
			v-82.6l-0.1-1.9c0.1-5.4-0.2-7.4,0-13.1l0.1-1.5v-2.9c-0.1-0.4-0.1-0.8-0.2-1.2c0.1,0.4,0.1,0.8,0.2,1.2V66.1h-33
			c0,0,0.5-25.3,0.5-32.9L98.8,33V0H49.2 M131.8,82.6h16.5v16.5v99.1h-16.5V82.6z M98.8,49.5h16.5v16.5v132.1H98.8V49.5z M65.7,16.5
			h16.5V33v165.2H65.7V16.5z"/>
		<path class="st0" d="M264.3,187.8v-2.7L364.6,84.7l-11.7-11.7l-88.7,88.7v-1C262.4,170.1,262.6,179.9,264.3,187.8z"/>
	</g>
</g>
<g>
	<g>
		<path class="st0" d="M189.9,363.4c-13.7,0-24.8,11.1-24.8,24.8c0,13.7,11.1,24.8,24.8,24.8c13.7,0,24.8-11.1,24.8-24.8
			C214.7,374.5,203.6,363.4,189.9,363.4z M189.9,396.4c-4.6,0-8.3-3.7-8.3-8.3s3.7-8.3,8.3-8.3c4.6,0,8.3,3.7,8.3,8.3
			S194.5,396.4,189.9,396.4z"/>
	</g>
</g>
<g>
	<g>
		<path class="st0" d="M123.9,297.3c-13.7,0-24.8,11.1-24.8,24.8c0,13.7,11.1,24.8,24.8,24.8s24.8-11.1,24.8-24.8
			C148.6,308.4,137.5,297.3,123.9,297.3z M123.9,330.3c-4.6,0-8.3-3.7-8.3-8.3s3.7-8.3,8.3-8.3s8.3,3.7,8.3,8.3
			S128.4,330.3,123.9,330.3z"/>
	</g>
</g>
<g>
	<g>
		<path class="st0" d="M404.6,396.4c-9.1,0-16.5-7.4-16.5-16.5c0-9.1,7.4-16.5,16.5-16.5s16.5,7.4,16.5,16.5h16.5
			c0-15.4-10.6-28.2-24.8-31.9v-17.7h-16.5V348c-14.2,3.7-24.8,16.5-24.8,31.9c0,18.2,14.8,33,33,33c9.1,0,16.5,7.4,16.5,16.5
			s-7.4,16.5-16.5,16.5s-16.5-7.4-16.5-16.5h-16.5c0,15.4,10.6,28.2,24.8,31.9V479h16.5v-17.7c14.2-3.7,24.8-16.5,24.8-31.9
			C437.7,411.2,422.9,396.4,404.6,396.4z"/>
	</g>
</g>
<g>
	<g>
		<rect x="462.5" y="396.4" class="st0" width="16.5" height="16.5"/>
	</g>
</g>
<g>
	<g>
		<rect x="330.3" y="396.4" class="st0" width="16.5" height="16.5"/>
	</g>
</g>
</svg>
