<svg id="Слой_1" data-name="Слой 1" xmlns="http://www.w3.org/2000/svg" viewBox="0 0 442.7 84.3"><defs><style>.cls-1{fill:#fff;}.cls-2{fill:#1e86ef;}.cls-3{fill:#2093e0;}.cls-4{fill:#1e83d6;}</style></defs><title>logo</title><path class="cls-1" d="M305.1,56.8a11.51,11.51,0,0,1-1,5.2,9.4,9.4,0,0,1-2.5,3.4,8.58,8.58,0,0,1-3.4,1.8,14.08,14.08,0,0,1-3.5.5H284.4V27.6h9.1a19.73,19.73,0,0,1,3.5.4,8.45,8.45,0,0,1,3.3,1.6,9.13,9.13,0,0,1,2.5,3,11.17,11.17,0,0,1,1,4.8,11.19,11.19,0,0,1-.5,3.6,9.06,9.06,0,0,1-1.3,2.6,7.69,7.69,0,0,1-1.8,1.8,10.6,10.6,0,0,1-2.1,1.1v.1a9.17,9.17,0,0,1,2.3.9,7.1,7.1,0,0,1,2.3,1.9,8.51,8.51,0,0,1,1.7,3.1A12.13,12.13,0,0,1,305.1,56.8ZM300,38a9.19,9.19,0,0,0-.6-3.3,6.91,6.91,0,0,0-1.6-2.2,9.41,9.41,0,0,0-2.2-1.2,10.68,10.68,0,0,0-2.5-.3h-5.6V45.2h5.7a7.27,7.27,0,0,0,2.5-.4,6.11,6.11,0,0,0,2.2-1.3,6.91,6.91,0,0,0,1.6-2.2A12.57,12.57,0,0,0,300,38Zm1.2,18.5a9.86,9.86,0,0,0-.7-3.8,6.42,6.42,0,0,0-1.8-2.5,7.22,7.22,0,0,0-2.4-1.4,7.46,7.46,0,0,0-2.6-.4h-6.3v16h6.3a9.25,9.25,0,0,0,2.9-.4,7.22,7.22,0,0,0,2.4-1.4,6.33,6.33,0,0,0,1.6-2.4,12.42,12.42,0,0,0,.6-3.7Z"/><path class="cls-1" d="M333.8,59.5a14.19,14.19,0,0,1-1.9,4.8,8.94,8.94,0,0,1-3.5,3.2,13,13,0,0,1-5.5,1.2,10.2,10.2,0,0,1-5.4-1.2,10.74,10.74,0,0,1-3.5-3.2,14.19,14.19,0,0,1-1.9-4.8,28.8,28.8,0,0,1-.6-5.9v-26h4V53.2a32.53,32.53,0,0,0,.3,4.4,16.57,16.57,0,0,0,1.1,3.8,6.67,6.67,0,0,0,2.3,2.7,7.22,7.22,0,0,0,7.5,0,6.67,6.67,0,0,0,2.3-2.7,10.36,10.36,0,0,0,1.1-3.8,32.53,32.53,0,0,0,.3-4.4V27.6h4V53.7A27.84,27.84,0,0,1,333.8,59.5Z"/><path class="cls-1" d="M361,67.7,347,34.3h-.2V67.7h-3.7V27.6H348L361.9,61h.2V27.6h3.7V67.7Z"/><path class="cls-1" d="M398.2,47.7a32.31,32.31,0,0,1-1,8.7,18.32,18.32,0,0,1-3,6.3,13,13,0,0,1-4.6,3.8,13.8,13.8,0,0,1-6,1.3H375V27.6h8.7a13.8,13.8,0,0,1,6,1.3,13,13,0,0,1,4.6,3.8,17.18,17.18,0,0,1,2.9,6.3A36.3,36.3,0,0,1,398.2,47.7Zm-4,0a30.52,30.52,0,0,0-.8-7.4,14.29,14.29,0,0,0-2.3-5.2,10.12,10.12,0,0,0-3.4-3.1,9,9,0,0,0-4.2-1h-4.6V64.4h4.6a8.68,8.68,0,0,0,4.2-1,9.19,9.19,0,0,0,3.4-3.1,16.21,16.21,0,0,0,2.3-5.2,26.26,26.26,0,0,0,.8-7.4Z"/><path class="cls-1" d="M405.7,67.7V27.6h4V64.1h11.5v3.6Z"/><path class="cls-1" d="M425.9,67.7V27.6h16.2v3.5H429.8V45.2h11.5v3.4H429.8V64.2h12.9v3.6H425.9Z"/><path class="cls-1" d="M133.8,67.3V27.2h4V67.4h-4Z"/><path class="cls-1" d="M164.9,67.3l-14-33.4h-.2V67.3H147V27.2h4.9l13.9,33.4h.2V27.2h3.6V67.4h-4.7Z"/><path class="cls-1" d="M189.7,67.3h-5.2l-9.9-40.2h4.3l8.3,35.7h.1l8.3-35.7h4.2Z"/><path class="cls-1" d="M204.7,67.3V27.2h16.2v3.5H208.6V44.8h11.5v3.4H208.6V63.8h12.9v3.6H204.7Z"/><path class="cls-1" d="M245.8,57.1a12.57,12.57,0,0,1-.8,4.7,9.88,9.88,0,0,1-2.2,3.5,8.34,8.34,0,0,1-3.3,2.2,11,11,0,0,1-4,.8,12.13,12.13,0,0,1-9.8-4.8l2.4-2.8a9.25,9.25,0,0,0,3.3,2.9,9.1,9.1,0,0,0,4,1,6.6,6.6,0,0,0,4.6-1.9,7.36,7.36,0,0,0,1.8-5.5,8,8,0,0,0-.6-3,9.13,9.13,0,0,0-1.5-2.3,12.39,12.39,0,0,0-2.2-1.8c-.8-.5-1.7-1-2.6-1.5a19.23,19.23,0,0,1-3.1-1.8,11.31,11.31,0,0,1-2.6-2.3,9.68,9.68,0,0,1-1.8-3.1,12,12,0,0,1-.7-4.2,12.8,12.8,0,0,1,.9-4.8,10.14,10.14,0,0,1,2.3-3.5,9.33,9.33,0,0,1,3.3-2.1,9.86,9.86,0,0,1,3.8-.7,13.33,13.33,0,0,1,4.9.9,8.73,8.73,0,0,1,3.7,2.9l-2.4,2.8a6.67,6.67,0,0,0-2.7-2.3,8,8,0,0,0-3.4-.7,6.72,6.72,0,0,0-2.4.4,5.78,5.78,0,0,0-2,1.3,11.35,11.35,0,0,0-1.5,2.3,9.6,9.6,0,0,0-.6,3.3,7.89,7.89,0,0,0,.5,3,6.36,6.36,0,0,0,1.4,2.2,10.61,10.61,0,0,0,2,1.7c.8.5,1.6.9,2.4,1.4a19.23,19.23,0,0,1,3.1,1.8,16.13,16.13,0,0,1,2.8,2.4,9.62,9.62,0,0,1,2,3.2A8.84,8.84,0,0,1,245.8,57.1Z"/><path class="cls-1" d="M260.1,30.6V67.4h-3.9V30.6h-4V27.2h12.6v3.4Z"/><polygon class="cls-2" points="99.8 79.7 96.1 19.1 75.2 20.3 35.5 22.7 39.2 83.3 99.8 79.7"/><polygon class="cls-3" points="88.8 80.6 84.7 18.7 57.6 20.8 62.3 82.3 88.8 80.6"/><polygon class="cls-4" points="65.8 82.6 61.7 20.7 34.6 22.8 39.3 84.3 65.8 82.6"/><path class="cls-1" d="M55,69.5l-3-36,3.6-.3,3,36Z"/><path class="cls-1" d="M84.5,57.1a11.28,11.28,0,0,1-.5,4.8,8.25,8.25,0,0,1-2,3.2A8.12,8.12,0,0,1,79.1,67a11.81,11.81,0,0,1-3.1.8l-9.2.8-3-36,8.2-.7a17.13,17.13,0,0,1,3.2.1,8.36,8.36,0,0,1,3.1,1.2,7.18,7.18,0,0,1,2.4,2.5,10.18,10.18,0,0,1,1.2,4.2,8.52,8.52,0,0,1-.2,3.2,6.43,6.43,0,0,1-1,2.4,6.55,6.55,0,0,1-1.5,1.8,18.76,18.76,0,0,1-1.8,1.2v.1a9,9,0,0,1,2.2.6,8.68,8.68,0,0,1,2.3,1.6,12,12,0,0,1,1.8,2.6A14.29,14.29,0,0,1,84.5,57.1ZM78.6,40.7a6.41,6.41,0,0,0-.8-3,4.64,4.64,0,0,0-1.6-1.8,6.67,6.67,0,0,0-2.1-.9,9.06,9.06,0,0,0-2.3-.1l-4.4.4L68.5,48l4.5-.4a7.85,7.85,0,0,0,2.2-.5,5.86,5.86,0,0,0,1.9-1.3,5.71,5.71,0,0,0,1.3-2.1A10.12,10.12,0,0,0,78.6,40.7ZM81,57.2a10.08,10.08,0,0,0-.9-3.4,6,6,0,0,0-1.8-2.1,6.8,6.8,0,0,0-4.6-1.3l-5,.4,1.2,14.3,5-.4a12.21,12.21,0,0,0,2.6-.6,5.58,5.58,0,0,0,2-1.4,5.1,5.1,0,0,0,1.2-2.3,8.52,8.52,0,0,0,.3-3.2Z"/><rect class="cls-4" x="29.8" y="19.7" width="12" height="12" transform="translate(-2.81 4.46) rotate(-6.86)"/><rect class="cls-4" x="37.8" y="11.7" width="12" height="12" transform="translate(-1.8 5.36) rotate(-6.86)"/><rect class="cls-4" x="20.29" y="5.2" width="6.9" height="6.9" transform="translate(-0.86 2.9) rotate(-6.86)"/><rect class="cls-4" x="0.29" y="0.29" width="5.2" height="5.2" transform="translate(-0.32 0.37) rotate(-6.86)"/><rect class="cls-4" x="9.29" y="17.2" width="6.9" height="6.9" transform="translate(-2.38 1.67) rotate(-6.86)"/></svg>