<?xml version="1.0" encoding="utf-8"?>
<!-- Generator: Adobe Illustrator 21.0.0, SVG Export Plug-In . SVG Version: 6.00 Build 0)  -->
<svg version="1.1" id="Layer_1" xmlns="http://www.w3.org/2000/svg" xmlns:xlink="http://www.w3.org/1999/xlink" x="0px" y="0px"
	 viewBox="0 0 512 512" style="enable-background:new 0 0 512 512;" xml:space="preserve">
<style type="text/css">
	.st0{fill:#1E87F0;}
	.st1{fill:#666666;}
</style>
<g>
	<g>
		<g>
			<path class="st0" d="M317.4,184.8h14.5c5.7,0,10.3-4.7,10.3-10.3c0-5.7-4.7-10.3-10.3-10.3h-14.5c-5.7,0-10.3,4.7-10.3,10.3
				C307,180.1,311.7,184.8,317.4,184.8z"/>
			<path class="st1" d="M509.9,437.8l-12.9-31.6c-4.1-9.3-13.5-15.5-23.8-15.5h-11.4V184.8H484c9.8,0,18.1-6.7,20.2-16
				c2.1-9.3-2.6-19.1-11.4-23.3L277.5,43.5c-13.5-6.7-29.5-6.7-44,0L17.3,145.5c-8.8,4.1-13.5,13.5-11.4,23.3
				c2.1,9.8,10.3,16.6,20.2,16.6h21.7v205.9h-9.3c-10.3,0-19.7,6.2-23.8,15.5l-12.9,31c-3.1,8.3-2.1,17.1,2.6,24.3
				c4.7,7.2,12.9,11.4,21.2,11.4h460.5c8.3,0,16.6-4.1,21.2-11.4C512.4,455.4,513.5,446.1,509.9,437.8z M26.6,164.1L242.4,62.2
				c8.8-4.1,18.1-4.1,26.4,0l215.8,101.9h-33.1c-5.7,0-10.3,4.7-10.3,10.3c0,1,0,1.6,0.5,2.1c0,0.5-0.5,1.6-0.5,2.1v212.1h-41.4
				v-15.3c-6.9-0.4-13.8-0.7-20.7-1.1v16.9h-41.4h-20.7h-20.7v-14.5c-0.7,0.1-1.4,0.2-2.2,0.3c-6.2,1.4-12.3,2.3-18.5,1.4v12.8
				h-41.4v-6.4c-6.9,0.7-13.8,1.8-20.7,2.8v3.6h-20.7v-1.4c-6.9,0.3-13.8,0-20.7-1.3v2.8h-41.4v-5.5c-6.9,0.1-14,0.5-20.7-0.4v5.9
				H68.5V184.8h202.3c5.7,0,10.3-4.7,10.3-10.3s-4.7-10.3-10.3-10.3C270.8,164.1,26.6,164.1,26.6,164.1z M490.2,450.7
				c-0.5,0.5-2.1,2.6-4.1,2.6H25.6c-2.6,0-3.6-1.6-4.1-2.6c-0.5-0.5-1.6-2.6-0.5-5.2L33.9,415c1-2.1,3.1-3.1,5.2-3.1h434.6
				c2.1,0,4.1,1,5.2,3.1l12.9,31C491.7,448.1,490.7,450.2,490.2,450.7z"/>
			<path class="st1" d="M254.8,205.5c-22.8,0-41.4,18.6-41.4,41.4v144.4c7.4,0.1,13.6,0.1,20.7,0V246.9c0-11.4,9.3-20.7,20.7-20.7
				c11.4,0,20.7,9.3,20.7,20.7v131.5c0,5.4,0,10,0,12.8c0.7-0.1,20,0.1,20.7,0V246.9C296.2,224.1,277.5,205.5,254.8,205.5z"/>
			<path class="st0" d="M358.3,205.5c-22.8,0-41.4,18.6-41.4,41.4v144.4c7,0,13.8,0,20.7-0.1V246.9c0-11.4,9.3-20.7,20.7-20.7
				c11.4,0,20.7,9.3,20.7,20.7v144.4c7-0.1,12.9-0.2,20.7-0.5V246.9C399.7,224.1,381,205.5,358.3,205.5z"/>
			<path class="st0" d="M151.3,205.5c-22.8,0-41.4,18.6-41.4,41.4v144.4c8.1,0.3,11.8,0.1,20.7,0V246.9c0-11.4,9.3-20.7,20.7-20.7
				c11.4,0,20.7,9.3,20.7,20.7v144.4c7.8,0,13.8,0.1,20.7,0V246.9C192.7,224.1,174.1,205.5,151.3,205.5z"/>
		</g>
	</g>
</g>
</svg>
