<?xml version="1.0" encoding="iso-8859-1"?>
<!-- Generator: Adobe Illustrator 19.0.0, SVG Export Plug-In . SVG Version: 6.00 Build 0)  -->
<svg xmlns="http://www.w3.org/2000/svg" xmlns:xlink="http://www.w3.org/1999/xlink" version="1.1" id="Capa_1" x="0px" y="0px" viewBox="0 0 512 512" style="enable-background:new 0 0 512 512;" xml:space="preserve" width="512px" height="512px">
<g>
	<g>
		<path d="M257,0v30c124.072,0,225,100.928,225,225h30C512,114.39,397.61,0,257,0z" fill="#1e87f0"/>
	</g>
</g>
<g>
	<g>
		<path d="M257,60v30c90.981,0,165,74.019,165,165h30C452,147.48,364.52,60,257,60z" fill="#1e87f0"/>
	</g>
</g>
<g>
	<g>
		<path d="M257,120v30c57.891,0,105,47.109,105,105h30C392,180.557,331.443,120,257,120z" fill="#1e87f0"/>
	</g>
</g>
<g>
	<g>
		<path d="M257,180v30c24.814,0,45,20.186,45,45h30C332,213.647,298.353,180,257,180z" fill="#1e87f0"/>
	</g>
</g>
<g>
	<g>
		
			<rect x="390.24" y="277.16" transform="matrix(0.7071 -0.7071 0.7071 0.7071 -136.5352 404.6925)" width="59.999" height="179.998" fill="#1e87f0"/>
	</g>
</g>
<g>
	<g>
		
			<rect x="114.468" y="1.393" transform="matrix(0.7071 -0.7071 0.7071 0.7071 -22.3108 128.922)" width="59.999" height="179.998" fill="#1e87f0"/>
	</g>
</g>
<g>
	<g>
		<path d="M313.583,345.365c-13.391,10.373-32.479,9.957-44.727-2.305L168.572,242.776c-12.261-12.261-12.675-31.37-2.307-44.729    L39.276,71.058c-54.63,63.68-52.493,159.631,7.802,219.926l173.569,173.569C252.288,496.194,293.831,512,335.389,512    c37.654,0,74.91-13.671,105.185-39.644L313.583,345.365z" fill="#1e87f0"/>
	</g>
</g>
<g>
</g>
<g>
</g>
<g>
</g>
<g>
</g>
<g>
</g>
<g>
</g>
<g>
</g>
<g>
</g>
<g>
</g>
<g>
</g>
<g>
</g>
<g>
</g>
<g>
</g>
<g>
</g>
<g>
</g>
</svg>
