<?xml version="1.0" encoding="utf-8"?>
<!-- Generator: Adobe Illustrator 21.0.0, SVG Export Plug-In . SVG Version: 6.00 Build 0)  -->
<svg version="1.1" id="Capa_1" xmlns="http://www.w3.org/2000/svg" xmlns:xlink="http://www.w3.org/1999/xlink" x="0px" y="0px"
	 viewBox="0 0 512 512" style="enable-background:new 0 0 512 512;" xml:space="preserve">
<style type="text/css">
	.st0{fill:#666666;}
	.st1{fill:#1E87F0;}
</style>
<g>
	<g>
		<path class="st0" d="M450,118h-58.5c-5.5,0-10,4.5-10,10s4.5,10,10,10H450c12.1,0,22,9.9,22,22v114.1c0,13.1-10.6,23.7-23.7,23.7
			H438V224c0-23.2-18.8-42-42-42H248.5v-4.8c-6.7,0.6-13.4,1.2-20,2.2v2.6H62c-12.1,0-22-9.9-22-22s9.9-22,22-22h66.2
			c5.5,0,10-4.5,10-10s-4.5-10-10-10H62c-23.2,0-42,18.8-42,42c0,0.6,0,1.1,0,1.7c0,0.3,0,0.6,0,0.8V470c0,23.2,18.8,42,42,42l388,0
			c23.2,0,42-18.8,42-42V160C492,136.8,473.2,118,450,118z M418,470c0,12-9.6,21.7-21.5,22H396c-0.1,0-0.2,0-0.2,0H62
			c-12.1,0-22-9.9-22-22V195.8c6.4,4,13.9,6.2,22,6.2h334c12.1,0,22,9.9,22,22v73.8h-90c-34.2,0-62,27.8-62,62s27.8,62,62,62h90V470
			z M472,470c0,12.1-9.9,22-22,22h-18.2c3.9-6.4,6.2-13.9,6.2-22v-48.2h6c10.4,0,20.1-3.4,28-9V470z M472,373.8
			c0,15.4-12.6,28-28,28H328c-23.2,0-42-18.8-42-42s18.8-42,42-42h120.3c8.7,0,16.9-2.6,23.7-7V373.8z"/>
		<path class="st1" d="M248.5,151.5c0-5.5-4.5-10-10-10s-10,4.5-10,10V182c7.2,0.1,13.4,0.2,20,0V151.5z"/>
	</g>
</g>
<g>
	<g>
		<path class="st1" d="M309,65.2c-25.9,0-47,21.1-47,47s21.1,47,47,47c25.9,0,47-21.1,47-47S334.9,65.2,309,65.2z M309,139.1
			c-14.9,0-27-12.1-27-27s12.1-27,27-27s27,12.1,27,27S323.9,139.1,309,139.1z"/>
	</g>
</g>
<g>
	<g>
		<path class="st1" d="M212,0c-25.9,0-47,21.1-47,47s21.1,47,47,47c25.9,0,47-21.1,47-47S237.9,0,212,0z M212,74
			c-14.9,0-27-12.1-27-27s12.1-27,27-27s27,12.1,27,27S226.9,74,212,74z"/>
	</g>
</g>
<g>
	<g>
		<path class="st1" d="M382.7,16.7H377V11c0-5.5-4.5-10-10-10s-10,4.5-10,10v5.7h-5.7c-5.5,0-10,4.5-10,10s4.5,10,10,10h5.7v5.7
			c0,5.5,4.5,10,10,10s10-4.5,10-10v-5.7h5.7c5.5,0,10-4.5,10-10S388.2,16.7,382.7,16.7z"/>
	</g>
</g>
<g>
	<g>
		<path class="st1" d="M179.7,97.8c-5.5,0-10,4.5-10,10v40.5c0,5.5,4.5,10,10,10s10-4.5,10-10v-40.5
			C189.7,102.2,185.2,97.8,179.7,97.8z"/>
	</g>
</g>
<g>
	<g>
		<path class="st0" d="M341.1,354c-1.9-1.9-4.4-2.9-7.1-2.9c-2.6,0-5.2,1.1-7.1,2.9c-1.9,1.9-2.9,4.4-2.9,7.1c0,2.6,1.1,5.2,2.9,7.1
			c1.9,1.9,4.4,2.9,7.1,2.9c2.6,0,5.2-1.1,7.1-2.9c1.9-1.9,2.9-4.4,2.9-7.1C344.1,358.4,343,355.9,341.1,354z"/>
	</g>
</g>
<g>
	<g>
		<path class="st1" d="M86.3,260c-5.5,0-10,4.5-10,10v82.3c0,5.5,4.5,10,10,10s10-4.5,10-10V270C96.3,264.5,91.9,260,86.3,260z"/>
	</g>
</g>
<g>
	<g>
		<path class="st1" d="M93.4,379.8c-1.9-1.9-4.4-2.9-7.1-2.9c-2.6,0-5.2,1.1-7.1,2.9s-2.9,4.4-2.9,7.1s1.1,5.2,2.9,7.1
			c1.9,1.9,4.4,2.9,7.1,2.9c2.6,0,5.2-1.1,7.1-2.9c1.9-1.9,2.9-4.4,2.9-7.1S95.3,381.6,93.4,379.8z"/>
	</g>
</g>
</svg>
