<svg id="Capa_1" data-name="Capa 1" xmlns="http://www.w3.org/2000/svg" viewBox="0 0 512 512"><defs><style>.cls-1{fill:#1e87f0;}</style></defs><title>youtube</title><path class="cls-1" d="M209.35,312.11l114.92-59.59-114.92-60Z"/><path class="cls-1" d="M256,0C114.62,0,0,114.61,0,256S114.62,512,256,512,512,397.39,512,256,397.38,0,256,0ZM430.43,341.45c-4.43,19.22-20.16,33.4-39.08,35.51-44.82,5-90.18,5-135.36,5s-90.55,0-135.38-5c-18.92-2.11-34.64-16.29-39.06-35.51-6.3-27.38-6.3-57.27-6.3-85.45s.07-58.08,6.37-85.45C86,151.33,101.76,137.14,120.69,135c44.83-5,90.2-5,135.38-5s90.54,0,135.35,5c18.93,2.12,34.66,16.29,39.08,35.52,6.3,27.38,6.25,57.27,6.25,85.45S436.73,314.07,430.43,341.45Z"/></svg>