<svg xmlns="http://www.w3.org/2000/svg" xmlns:xlink="http://www.w3.org/1999/xlink" preserveAspectRatio="xMidYMid" width="31.248" height="103.118" viewBox="0 0 30 99">
  <defs>
    <style>
      .cls-1, .cls-2, .cls-3, .cls-4 {
        fill: #fff;
      }

      .cls-1, .cls-3, .cls-4 {
        fill-rule: evenodd;
      }

      .cls-3 {
        fill-opacity: 0.5;
      }

      .cls-4 {
        fill-opacity: 0.25;
      }
    </style>
  </defs>
  <g>
    <path d="M15.000,44.000 C6.716,44.000 -0.000,37.284 -0.000,29.000 L-0.000,15.000 C-0.000,6.715 6.716,-0.000 15.000,-0.000 C23.284,-0.000 30.000,6.715 30.000,15.000 L30.000,29.000 C30.000,37.284 23.284,44.000 15.000,44.000 ZM27.000,14.000 C27.000,7.925 22.075,3.000 16.000,3.000 L14.000,3.000 C7.925,3.000 3.000,7.925 3.000,14.000 L3.000,30.000 C3.000,36.075 7.925,41.000 14.000,41.000 L16.000,41.000 C22.075,41.000 27.000,36.075 27.000,30.000 L27.000,14.000 ZM15.000,18.000 C13.895,18.000 13.000,17.104 13.000,16.000 L13.000,15.000 C13.000,13.895 13.895,13.000 15.000,13.000 C16.104,13.000 17.000,13.895 17.000,15.000 L17.000,16.000 C17.000,17.104 16.104,18.000 15.000,18.000 Z" class="cls-1"/>
    <g>
      <rect x="14" y="48" width="2" height="24" class="cls-2"/>
      <path d="M22.992,66.505 L15.505,73.992 L15.000,73.487 L14.495,73.992 L7.008,66.505 L8.505,65.008 L15.000,71.502 L21.495,65.008 L22.992,66.505 Z" class="cls-1"/>
      <path d="M22.992,79.505 L15.505,86.992 L15.000,86.487 L14.495,86.992 L7.008,79.505 L8.505,78.008 L15.000,84.502 L21.495,78.008 L22.992,79.505 Z" class="cls-3"/>
      <path d="M22.992,91.505 L15.505,98.992 L15.000,98.487 L14.495,98.992 L7.008,91.505 L8.505,90.007 L15.000,96.502 L21.495,90.007 L22.992,91.505 Z" class="cls-4"/>
    </g>
  </g>
</svg>
