<svg xmlns="http://www.w3.org/2000/svg" style="fill: rgb(21, 195, 154);" width="24" height="48"><rect id="backgroundrect" width="100%" height="100%" x="0" y="0" fill="none" stroke="none" class="" style=""/><g class="currentLayer" style=""><title>Layer 1</title><path d="M12.000000059604645,26.242422938346863 c5.514,0 10,4.486 10,10 s-4.486,10 -10,10 s-10,-4.486 -10,-10 s4.486,-10 10,-10 zm0,-2 c-6.627,0 -12,5.373 -12,12 s5.373,12 12,12 s12,-5.373 12,-12 s-5.373,-12 -12,-12 zm4.393,7.5 l-5.643,5.784 l-2.644,-2.5060000000000002 l-1.856,1.858 l4.5,4.364 l7.5,-7.643 l-1.8570000000000002,-1.8570000000000002 z" id="svg_1" class=""/></g></svg>