<svg xmlns="http://www.w3.org/2000/svg" width="894.441" height="141" viewBox="0 0 894.441 141">
  <defs>
    <style>
      .cls-1 {
        fill-rule: evenodd;
				fill:#fff;
      }
    </style>
  </defs>
  <path id="ICURRENTGLOBAL" class="cls-1" d="M1159.09,425.451v-50.4h14.26v39.1h24.05v11.305h-38.31Zm-24.26-9.792h-21.31l-3.96,9.792h-14.55l22.25-50.4h14.04l22.33,50.4h-14.84Zm-10.65-26.643-6.49,16.13h12.97Zm-52.71,36.435h-27.22v-50.4h25.78c13.25,0,19.73,5.4,19.73,13.177a11.9,11.9,0,0,1-6.77,10.945c5.69,2.016,9.22,6.337,9.22,12.457C1092.21,420.339,1085.01,425.451,1071.47,425.451Zm-3.31-40.107h-9.79v9.721h9.79c4.75,0,7.2-1.656,7.2-4.9C1075.36,387,1072.91,385.344,1068.16,385.344Zm2.16,19.586h-11.95v10.225h11.95c4.9,0,7.49-1.657,7.49-5.113S1075.22,404.93,1070.32,404.93Zm-63,21.53c-16.129,0-28.01-11.089-28.01-26.211s11.881-26.21,28.01-26.21,28.01,11.089,28.01,26.21S1023.45,426.46,1007.32,426.46Zm0-40.612c-7.633,0-13.609,5.689-13.609,14.4s5.976,14.4,13.609,14.4,13.61-5.689,13.61-14.4S1014.95,385.848,1007.32,385.848Zm-69.986-10.8h14.257v39.1h24.05v11.305H937.334v-50.4Zm-30.669,10.8c-8.641,0-14.4,5.689-14.4,14.4,0,8.5,5.76,14.4,14.257,14.4a18.12,18.12,0,0,0,7.705-1.657V399.169h12.6v20.882c-5.833,4.176-13.825,6.409-21.17,6.409-16.057,0-27.794-10.873-27.794-26.211s11.737-26.21,28.082-26.21c9.433,0,17.065,3.24,22.034,9.217l-9.073,8.209A15.72,15.72,0,0,0,906.665,385.848ZM859,425.451H844.744v-39.1H829.262v-11.3H874.41v11.3H859v39.1Zm-70.489-26.858v26.858H774.543v-50.4H786.28l22.25,26.858V375.047H822.5v50.4H810.762Zm-63.793-23.546H764.25v11.017H738.832v8.5h22.394v10.657H738.832v9.217h26.354v11.016H724.719v-50.4Zm-23.541,50.4-9.144-13.393h-7.777v13.393H670v-50.4h23.042c13.753,0,22.394,7.129,22.394,18.65,0,7.416-3.6,12.889-9.865,15.913l10.873,15.841H701.178Zm-9-39.171h-7.921v14.761h7.921c5.9,0,8.856-2.736,8.856-7.344C701.034,389.016,698.082,386.28,692.178,386.28Zm-45.719,39.171-9.145-13.393h-7.776v13.393H615.28v-50.4h23.042c13.754,0,22.394,7.129,22.394,18.65,0,7.416-3.6,12.889-9.865,15.913l10.873,15.841H646.459Zm-9-39.171h-7.92v14.761h7.92c5.905,0,8.857-2.736,8.857-7.344C646.315,389.016,643.363,386.28,637.458,386.28Zm-56.951,40.18c-14.906,0-23.69-8.425-23.69-23.474V375.047h14.257v27.506c0,8.641,3.6,12.1,9.577,12.1,5.9,0,9.5-3.457,9.5-12.1V375.047H604.2v27.939C604.2,418.035,595.412,426.46,580.507,426.46ZM529.1,414.651c4.825,0,8.713-2.089,11.881-5.905l9.073,8.209c-4.9,6.12-12.385,9.5-21.674,9.5-15.985,0-27.722-10.873-27.722-26.211s11.737-26.21,27.722-26.21c9.289,0,16.778,3.384,21.674,9.5l-9.073,8.209c-3.168-3.817-7.056-5.9-11.881-5.9-8.28,0-14.041,5.761-14.041,14.4S520.819,414.651,529.1,414.651Zm-51.7-39.6h14.257v50.4H477.4v-50.4Zm-60-32.687a72.517,72.517,0,0,1,3.89,116.821C425.805,419.321,420.671,382.606,417.406,342.36ZM318.013,446.413c33.254-27.4,63.2-62.739,91.569-108.756,1.971,1.021,3.884,2.135,5.744,3.324C406.992,380.591,373,436.89,350.909,470.5A73.167,73.167,0,0,1,318.013,446.413ZM302.96,402.2a73.077,73.077,0,0,1,104.922-65.4c-41.035,40.612-77.055,59.92-104.843,68.714C302.989,404.418,302.96,403.312,302.96,402.2Z" transform="translate(-302.969 -329.5)"/>
</svg>
