<?xml version="1.0" encoding="UTF-8" standalone="no"?>
<svg
   xmlns:dc="http://purl.org/dc/elements/1.1/"
   xmlns:cc="http://creativecommons.org/ns#"
   xmlns:rdf="http://www.w3.org/1999/02/22-rdf-syntax-ns#"
   xmlns:svg="http://www.w3.org/2000/svg"
   xmlns="http://www.w3.org/2000/svg"
   viewBox="0 0 102.94467 97.849602"
   height="97.849602"
   width="102.94467"
   xml:space="preserve"
   id="svg2"
   version="1.1"><metadata
     id="metadata8"><rdf:RDF><cc:Work
         rdf:about=""><dc:format>image/svg+xml</dc:format><dc:type
           rdf:resource="http://purl.org/dc/dcmitype/StillImage" /></cc:Work></rdf:RDF></metadata><defs
     id="defs6"><clipPath
       id="clipPath18"
       clipPathUnits="userSpaceOnUse"><path
         id="path16"
         d="M 0,73.387 H 77.208 V 0 H 0 Z" /></clipPath><clipPath
       id="clipPath58"
       clipPathUnits="userSpaceOnUse"><path
         id="path56"
         d="M 52.0548,62.4972 H 63.8995 V 29.891 H 52.0548 Z" /></clipPath></defs><g
     transform="matrix(1.3333333,0,0,-1.3333333,0,97.8496)"
     id="g10"><g
       id="g12"><g
         clip-path="url(#clipPath18)"
         id="g14"><g
           transform="translate(52.6544,71.8802)"
           id="g20"><path
             id="path22"
             style="fill:#c2c2c2;fill-opacity:1;fill-rule:nonzero;stroke:none"
             d="m 0,0 0.204,-0.6 1.359,-3.998 v -44.136 c 0,-1.156 0.612,-2.231 1.62,-2.809 l 14.077,-8.132 3.726,-2.152 0.725,-2.14 2.119,1.245 c 0.419,0.227 0.724,0.658 0.724,1.201 v 48.983 c -0.023,0.827 -0.362,1.609 -0.94,2.175 -0.204,0.204 -0.43,0.374 -0.679,0.521 L 3.613,1.325 C 3.602,1.336 3.59,1.336 3.579,1.348 3.092,1.608 2.548,1.529 2.152,1.257 H 2.141 Z" /></g><g
           transform="translate(69.9035,55.1409)"
           id="g24"><path
             id="path26"
             style="fill:#969696;fill-opacity:1;fill-rule:nonzero;stroke:none"
             d="m 0,0 0.011,-42.936 3.726,-2.151 0.725,-2.141 2.119,1.246 c 0.419,0.226 0.724,0.657 0.724,1.2 V 4.202 Z" /></g><g
           transform="translate(68.8615,57.2474)"
           id="g28"><path
             id="path30"
             style="fill:#ababab;fill-opacity:1;fill-rule:nonzero;stroke:none"
             d="M 0,0 1.042,-2.106 8.347,2.095 C 8.324,2.922 7.985,3.704 7.407,4.27 Z" /></g><g
           transform="translate(52.6544,71.8802)"
           id="g32"><path
             id="path34"
             style="fill:#ababab;fill-opacity:1;fill-rule:nonzero;stroke:none"
             d="M 0,0 0.204,-0.6 3.579,1.348 C 3.092,1.608 2.548,1.529 2.152,1.257 H 2.141 Z" /></g><g
           transform="translate(75.0504,57.9778)"
           id="g36"><path
             id="path38"
             style="fill:#a6a6a6;fill-opacity:1;fill-rule:nonzero;stroke:none"
             d="m 0,0 v -48.879 c 0,-0.5 -0.255,-0.908 -0.622,-1.142 -0.021,-0.011 -0.041,-0.031 -0.062,-0.031 -0.387,-0.245 -0.907,-0.276 -1.367,-0.011 l -7.611,4.398 -7.59,4.387 -4.122,2.377 c -1,0.571 -1.622,1.642 -1.622,2.805 v 48.879 c 0,0.49 0.245,0.888 0.602,1.122 0,0.011 0.011,0.011 0.02,0.011 0.388,0.265 0.909,0.316 1.368,0.071 0.02,-0.01 0.041,-0.02 0.061,-0.03 L -1.612,2.805 C -1.367,2.663 -1.143,2.489 -0.949,2.295 -0.377,1.724 -0.031,0.949 -0.01,0.122 0,0.082 0,0.041 0,0" /></g><g
           transform="translate(73.6857,8.1819)"
           id="g40"><path
             id="path42"
             style="fill:#393939;fill-opacity:1;fill-rule:nonzero;stroke:none"
             d="m 0,0 c 0.44,0 0.915,0.349 0.915,0.915 v 48.877 c 0,0.992 -0.533,1.916 -1.393,2.413 l -19.331,11.16 c -0.142,0.083 -0.295,0.124 -0.454,0.124 -0.44,0 -0.915,-0.349 -0.915,-0.914 V 13.697 c 0,-0.991 0.533,-1.916 1.393,-2.413 L -0.455,0.124 C -0.312,0.042 -0.159,0 0,0" /></g><g
           transform="translate(52.651,66.8147)"
           id="g44"><path
             id="path46"
             style="fill:#202020;fill-opacity:1;fill-rule:nonzero;stroke:none"
             d="M 0,0 21.806,-12.59 V -54.519 L 0,-41.929 Z" /></g><g
           transform="translate(73.8849,53.8948)"
           id="g48"><path
             id="path50"
             style="fill:#0083ba;fill-opacity:1;fill-rule:nonzero;stroke:none"
             d="M 0,0 -20.661,11.928 V -26.495 L 0,-38.424 Z" /></g><g
           id="g52"><g
             id="g54" /><g
             id="g66"><g
               id="g64"
               clip-path="url(#clipPath58)"><g
                 id="g62"
                 transform="translate(63.8996,55.6517)"><path
                   id="path60"
                   style="fill:#aeaeb3;fill-opacity:1;fill-rule:nonzero;stroke:none"
                   d="m 0,0 v -24.771 l -9.682,-0.806 -0.989,-0.082 -0.582,-0.05 -0.143,-0.011 -0.449,-0.041 V 6.846 l 0.449,-0.266 0.143,-0.081 0.582,-0.337 0.989,-0.571 z" /></g></g></g></g><g
           transform="translate(60.2731,65.3895)"
           id="g68"><path
             id="path70"
             style="fill:#ababab;fill-opacity:1;fill-rule:nonzero;stroke:none"
             d="M 0,0 6.562,-3.789 V -4.345 L 0,-0.557 Z" /></g><g
           transform="translate(69.0255,16.7386)"
           id="g72"><path
             id="path74"
             style="fill:#ffffff;fill-opacity:1;fill-rule:nonzero;stroke:none"
             d="M 0,0 V 0.504 L 0.943,-0.041 0.663,0.367 0.995,0.565 1.816,-0.744 0.733,-0.957 0.512,-0.594 0.918,-0.531 Z" /></g><g
           transform="translate(61.9826,21.7601)"
           id="g76"><path
             id="path78"
             style="fill:none;stroke:#ffffff;stroke-width:0.29899999;stroke-linecap:butt;stroke-linejoin:miter;stroke-miterlimit:10;stroke-dasharray:none;stroke-opacity:1"
             d="m 0,0 1.412,-0.815 v -1.63 L 0,-1.63 Z" /></g><g
           transform="translate(57.2389,22.4881)"
           id="g80"><path
             id="path82"
             style="fill:#ffffff;fill-opacity:1;fill-rule:nonzero;stroke:none"
             d="M 0,0 -1.619,0.935 -1.448,1.231 0.171,0.297 Z" /></g><g
           transform="translate(57.2389,23.9759)"
           id="g84"><path
             id="path86"
             style="fill:#ffffff;fill-opacity:1;fill-rule:nonzero;stroke:none"
             d="M 0,0 -1.619,0.935 -1.448,1.231 0.171,0.297 Z" /></g><g
           transform="translate(57.2389,23.2117)"
           id="g88"><path
             id="path90"
             style="fill:#ffffff;fill-opacity:1;fill-rule:nonzero;stroke:none"
             d="M 0,0 -1.619,0.935 -1.448,1.231 0.171,0.297 Z" /></g><g
           transform="translate(57.7936,16.6956)"
           id="g92"><path
             id="path94"
             style="fill:#ababab;fill-opacity:1;fill-rule:nonzero;stroke:none"
             d="M 0,0 C 0.358,0.468 0.965,1.091 1.487,0.79 L 6.384,-2.038 C 6.948,-2.363 7.37,-3.58 7.595,-4.385 Z" /></g><g
           transform="translate(24.5538,64.1517)"
           id="g96"><path
             id="path98"
             style="fill:#c2c2c2;fill-opacity:1;fill-rule:nonzero;stroke:none"
             d="m 0,0 -0.204,-0.6 -1.359,-3.998 v -44.136 c 0,-1.156 -0.611,-2.231 -1.619,-2.809 l -14.078,-8.132 -3.726,-2.152 -0.725,-2.14 -2.118,1.246 c -0.419,0.226 -0.725,0.657 -0.725,1.2 v 48.983 c 0.023,0.828 0.363,1.609 0.94,2.175 0.204,0.204 0.43,0.374 0.68,0.521 L -3.613,1.325 c 0.011,0.011 0.023,0.011 0.034,0.023 0.487,0.26 1.031,0.181 1.427,-0.091 h 0.012 z" /></g><g
           transform="translate(7.3053,47.4124)"
           id="g100"><path
             id="path102"
             style="fill:#969696;fill-opacity:1;fill-rule:nonzero;stroke:none"
             d="m 0,0 -0.012,-42.936 -3.726,-2.151 -0.724,-2.141 -2.119,1.246 c -0.419,0.227 -0.724,0.657 -0.724,1.201 V 4.202 Z" /></g><g
           transform="translate(8.3468,49.5188)"
           id="g104"><path
             id="path106"
             style="fill:#ababab;fill-opacity:1;fill-rule:nonzero;stroke:none"
             d="m 0,0 -1.042,-2.106 -7.305,4.201 c 0.023,0.827 0.363,1.609 0.94,2.175 z" /></g><g
           transform="translate(24.5538,64.1517)"
           id="g108"><path
             id="path110"
             style="fill:#ababab;fill-opacity:1;fill-rule:nonzero;stroke:none"
             d="m 0,0 -0.204,-0.6 -3.375,1.948 c 0.487,0.26 1.031,0.181 1.427,-0.091 h 0.012 z" /></g><g
           transform="translate(23.1046,64.2107)"
           id="g112"><path
             id="path114"
             style="fill:#a6a6a6;fill-opacity:1;fill-rule:nonzero;stroke:none"
             d="m 0,0 -19.331,-11.161 c -1.002,-0.578 -1.619,-1.647 -1.619,-2.804 v -48.878 c 0,-1.052 1.138,-1.708 2.049,-1.183 L 0.43,-52.865 c 1.002,0.578 1.619,1.648 1.619,2.804 V -1.183 C 2.049,-0.131 0.911,0.526 0,0" /></g><g
           transform="translate(3.5226,0.4534)"
           id="g116"><path
             id="path118"
             style="fill:#393939;fill-opacity:1;fill-rule:nonzero;stroke:none"
             d="m 0,0 c -0.44,0 -0.915,0.349 -0.915,0.915 v 48.877 c 0,0.992 0.533,1.917 1.393,2.413 l 19.331,11.16 c 0.143,0.083 0.295,0.124 0.455,0.124 0.44,0 0.914,-0.349 0.914,-0.914 V 13.697 c 0,-0.991 -0.533,-1.916 -1.392,-2.413 L 0.455,0.124 C 0.312,0.042 0.159,0 0,0" /></g><g
           transform="translate(24.5573,59.0867)"
           id="g120"><path
             id="path122"
             style="fill:#202020;fill-opacity:1;fill-rule:nonzero;stroke:none"
             d="M 0,0 -21.806,-12.59 V -54.519 L 0,-41.929 Z" /></g><g
           transform="translate(3.3239,46.1663)"
           id="g124"><path
             id="path126"
             style="fill:#ff4c00;fill-opacity:1;fill-rule:nonzero;stroke:none"
             d="M 0,0 20.661,11.928 V -26.495 L 0,-38.423 Z" /></g><g
           transform="translate(16.9352,57.6609)"
           id="g128"><path
             id="path130"
             style="fill:#ababab;fill-opacity:1;fill-rule:nonzero;stroke:none"
             d="M 0,0 -6.562,-3.789 V -4.345 L 0,-0.557 Z" /></g><g
           transform="translate(8.1832,9.0101)"
           id="g132"><path
             id="path134"
             style="fill:#ffffff;fill-opacity:1;fill-rule:nonzero;stroke:none"
             d="m 0,0 v 0.505 l -0.943,-0.546 0.279,0.408 -0.331,0.199 -0.821,-1.31 1.083,-0.213 0.221,0.363 -0.406,0.063 z" /></g><g
           transform="translate(15.2262,14.0315)"
           id="g136"><path
             id="path138"
             style="fill:none;stroke:#ffffff;stroke-width:0.29899999;stroke-linecap:butt;stroke-linejoin:miter;stroke-miterlimit:10;stroke-dasharray:none;stroke-opacity:1"
             d="m 0,0 -1.412,-0.815 v -1.63 L 0,-1.63 Z" /></g><g
           transform="translate(19.9694,14.7596)"
           id="g140"><path
             id="path142"
             style="fill:#ffffff;fill-opacity:1;fill-rule:nonzero;stroke:none"
             d="M 0,0 -0.171,0.297 1.448,1.231 1.619,0.935 Z" /></g><g
           transform="translate(19.9694,16.2478)"
           id="g144"><path
             id="path146"
             style="fill:#ffffff;fill-opacity:1;fill-rule:nonzero;stroke:none"
             d="M 0,0 -0.171,0.297 1.448,1.231 1.619,0.934 Z" /></g><g
           transform="translate(19.9694,15.4837)"
           id="g148"><path
             id="path150"
             style="fill:#ffffff;fill-opacity:1;fill-rule:nonzero;stroke:none"
             d="M 0,0 -0.171,0.297 1.448,1.231 1.619,0.935 Z" /></g><g
           transform="translate(19.4147,8.9676)"
           id="g152"><path
             id="path154"
             style="fill:#ababab;fill-opacity:1;fill-rule:nonzero;stroke:none"
             d="M 0,0 C -0.358,0.468 -0.964,1.091 -1.487,0.789 L -6.384,-2.038 C -6.948,-2.364 -7.37,-3.58 -7.595,-4.385 Z" /></g><g
           transform="translate(64.0768,40.927)"
           id="g156"><path
             id="path158"
             style="fill:#4b90ce;fill-opacity:1;fill-rule:nonzero;stroke:none"
             d="m 0,0 v 1.481 l -0.083,13.132 -15.012,-6.375 -1.215,-0.699 -0.2,-0.116 -0.349,-0.2 -2.131,-1.248 -0.566,-0.333 -0.033,-0.017 -1.348,-0.782 v -26.53 l 2.047,-1.198 0.582,0.366 18.375,11.318 z" /></g><g
           transform="translate(45.1867,44.5716)"
           id="g160"><path
             id="path162"
             style="fill:#fef8e0;fill-opacity:1;fill-rule:nonzero;stroke:none"
             d="m 0,0 v -26.529 l 0.566,0.333 18.391,10.718 v 0.632 L 18.89,-3.645 v 1.481 L 18.807,10.968 4.927,2.879 V 2.863 L 3.595,2.097 3.512,2.047 2.613,1.531 2.53,1.481 2.181,1.282 V 1.265 L 1.881,1.099 H 1.864 L 1.415,0.816 1.099,0.633 H 1.082 L 0.949,0.549 0.716,0.417 Z" /></g><g
           transform="translate(43.1398,45.7703)"
           id="g164"><path
             id="path166"
             style="fill:#d6eaff;fill-opacity:1;fill-rule:nonzero;stroke:none"
             d="m 0,0 0.999,-0.583 0.066,-0.05 0.316,-0.183 0.433,-0.249 0.233,-0.134 0.716,0.417 0.233,0.133 0.133,0.083 h 0.017 l 0.316,0.183 0.449,0.283 h 0.017 l 0.3,0.166 v 0.017 l 0.349,0.2 0.083,0.05 0.899,0.516 0.083,0.049 1.332,0.766 V 1.681 L 20.854,9.77 18.764,10.931 5.842,3.395 4.627,2.696 4.427,2.58 4.078,2.38 1.947,1.132 1.381,0.799 1.348,0.782 Z" /></g><g
           transform="translate(45.1867,44.5716)"
           id="g168"><path
             id="path170"
             style="fill:#7fb6d5;fill-opacity:1;fill-rule:nonzero;stroke:none"
             d="m 0,0 v -26.529 l 17.892,23.068 0.865,1.131 0.05,0.067 0.083,0.099 L 18.807,10.968 4.927,2.879 V 2.863 L 3.595,2.097 3.512,2.047 2.613,1.531 2.53,1.481 2.181,1.282 V 1.265 L 1.881,1.099 H 1.864 L 1.415,0.816 1.099,0.633 H 1.082 L 0.949,0.549 0.716,0.417 Z" /></g><g
           transform="translate(45.1867,18.0423)"
           id="g172"><path
             id="path174"
             style="fill:#8dc6f7;fill-opacity:1;fill-rule:nonzero;stroke:none"
             d="m 0,0 0.566,0.333 18.391,10.718 v 0.633 L 18.89,22.885 v 1.481 l -0.083,-0.1 -0.05,-0.067 -0.865,-1.131 z" /></g><g
           transform="translate(63.944,42.2415)"
           id="g176"><path
             id="path178"
             style="fill:#d6d8d7;fill-opacity:1;fill-rule:nonzero;stroke:none"
             d="M 0,0 0.133,-0.017 V 0.167 L 0.05,0.067 Z" /></g><g
           transform="translate(45.1857,44.5794)"
           id="g180"><path
             id="path182"
             style="fill:#4d8cea;fill-opacity:1;fill-rule:nonzero;stroke:none"
             d="M 0,0 V -26.53 L 18.756,-2.333 Z" /></g><g
           transform="translate(45.1857,44.5794)"
           id="g184"><path
             id="path186"
             style="fill:#8fc5ff;fill-opacity:1;fill-rule:nonzero;stroke:none"
             d="M 0,0 18.074,-2.616 0,-25.934 Z" /></g><g
           transform="translate(45.1867,44.5716)"
           id="g188"><path
             id="path190"
             style="fill:#4d8cea;fill-opacity:1;fill-rule:nonzero;stroke:none"
             d="m 0,0 0.566,-0.116 h 0.05 l 0.433,-0.083 0.033,-0.017 h 0.017 l 0.316,-0.05 0.133,-0.033 0.549,-0.1 1.415,-0.283 0.083,-0.017 1.415,-0.266 12.466,-2.413 0.399,-0.083 h 0.017 l 0.466,-0.084 0.532,-0.1 v 1.481 L 18.807,10.968 4.927,2.879 V 2.863 L 3.595,2.097 3.512,2.047 2.613,1.531 2.53,1.481 2.181,1.282 V 1.265 L 1.881,1.099 H 1.864 L 1.415,0.816 1.099,0.633 H 1.082 L 0.949,0.549 0.716,0.417 Z" /></g><g
           transform="translate(47.0675,45.6702)"
           id="g192"><path
             id="path194"
             style="fill:#acd8ff;fill-opacity:1;fill-rule:nonzero;stroke:none"
             d="M 0,0 0.3,-0.066 0.583,-0.116 0.649,-0.133 1.631,-0.316 1.714,-0.333 3.362,-0.649 17.009,-3.262 16.926,9.87 3.046,1.781 1.714,1.015 V 0.999 L 1.631,0.965 V 0.949 L 0.732,0.433 0.649,0.383 0.3,0.183 Z" /></g><g
           transform="translate(31.3483,38.6624)"
           id="g196"><path
             id="path198"
             style="fill:#ffb10f;fill-opacity:1;fill-rule:nonzero;stroke:none"
             d="m 0,0 -0.033,0.017 -0.566,0.332 -2.13,1.249 -0.35,0.199 -0.2,0.117 -1.215,0.699 -15.012,6.374 -0.083,-13.131 v -1.481 l -0.067,-11.202 18.375,-11.317 0.582,-0.366 2.047,1.198 v 26.53 z" /></g><g
           transform="translate(30.6496,36.6819)"
           id="g200"><path
             id="path202"
             style="fill:#fef8e0;fill-opacity:1;fill-rule:nonzero;stroke:none"
             d="m 0,0 v -26.53 l -0.566,0.333 -18.391,10.718 v 0.633 l 0.067,11.201 v 1.481 l 0.083,13.132 13.88,-8.089 V 2.862 l 1.332,-0.765 0.083,-0.05 0.899,-0.516 0.083,-0.05 0.35,-0.2 V 1.265 l 0.299,-0.167 h 0.017 l 0.449,-0.283 0.316,-0.183 h 0.017 l 0.133,-0.083 0.233,-0.133 z" /></g><g
           transform="translate(32.6964,37.8802)"
           id="g204"><path
             id="path206"
             style="fill:#fdf663;fill-opacity:1;fill-rule:nonzero;stroke:none"
             d="m 0,0 -0.999,-0.583 -0.066,-0.049 -0.316,-0.183 -0.433,-0.25 -0.233,-0.133 -0.716,0.416 -0.233,0.133 -0.133,0.083 h -0.017 l -0.316,0.183 -0.449,0.283 h -0.017 l -0.299,0.166 v 0.017 l -0.35,0.2 -0.083,0.05 -0.899,0.516 -0.083,0.049 -1.332,0.766 v 0.017 l -13.88,8.089 2.09,1.161 12.922,-7.536 1.215,-0.699 0.2,-0.116 0.349,-0.2 2.131,-1.249 0.566,-0.332 0.033,-0.017 z" /></g><g
           transform="translate(30.6496,36.6819)"
           id="g208"><path
             id="path210"
             style="fill:#7fb6d5;fill-opacity:1;fill-rule:nonzero;stroke:none"
             d="m 0,0 v -26.53 l -17.892,23.068 -0.865,1.132 -0.05,0.066 -0.083,0.1 0.083,13.132 13.88,-8.089 V 2.862 l 1.332,-0.765 0.083,-0.05 0.899,-0.516 0.083,-0.05 0.35,-0.2 V 1.265 l 0.299,-0.167 h 0.017 l 0.449,-0.283 0.316,-0.183 h 0.017 l 0.133,-0.083 0.233,-0.133 z" /></g><g
           transform="translate(30.6496,10.1521)"
           id="g212"><path
             id="path214"
             style="fill:#ffaa00;fill-opacity:1;fill-rule:nonzero;stroke:none"
             d="m 0,0 -0.566,0.333 -18.391,10.718 v 0.633 l 0.067,11.201 v 1.481 l 0.083,-0.1 0.05,-0.066 0.865,-1.132 z" /></g><g
           transform="translate(11.8922,34.3519)"
           id="g216"><path
             id="path218"
             style="fill:#d6d8d7;fill-opacity:1;fill-rule:nonzero;stroke:none"
             d="M 0,0 -0.133,-0.017 V 0.167 L -0.05,0.066 Z" /></g><g
           transform="translate(30.6505,36.6893)"
           id="g220"><path
             id="path222"
             style="fill:#ff8c00;fill-opacity:1;fill-rule:nonzero;stroke:none"
             d="M 0,0 V -26.529 L -18.756,-2.333 Z" /></g><g
           transform="translate(30.6505,36.6893)"
           id="g224"><path
             id="path226"
             style="fill:#fccb00;fill-opacity:1;fill-rule:nonzero;stroke:none"
             d="M 0,0 -18.074,-2.616 0,-25.934 Z" /></g><g
           transform="translate(30.6496,36.6819)"
           id="g228"><path
             id="path230"
             style="fill:#ff8c00;fill-opacity:1;fill-rule:nonzero;stroke:none"
             d="m 0,0 -0.566,-0.117 h -0.05 L -1.049,-0.2 -1.082,-0.216 H -1.099 L -1.415,-0.267 -1.548,-0.3 -2.097,-0.4 -3.512,-0.683 -3.595,-0.699 -5.01,-0.965 -17.476,-3.379 -17.875,-3.462 h -0.017 l -0.466,-0.083 -0.532,-0.1 v 1.481 l 0.083,13.132 13.88,-8.089 V 2.862 l 1.332,-0.765 0.083,-0.05 0.899,-0.516 0.083,-0.05 0.35,-0.2 V 1.265 l 0.299,-0.167 h 0.017 l 0.449,-0.283 0.316,-0.183 h 0.017 l 0.133,-0.083 0.233,-0.133 z" /></g><g
           transform="translate(28.7687,37.7801)"
           id="g232"><path
             id="path234"
             style="fill:#ffc800;fill-opacity:1;fill-rule:nonzero;stroke:none"
             d="m 0,0 -0.299,-0.066 -0.284,-0.05 -0.066,-0.017 -0.982,-0.183 -0.083,-0.017 -1.648,-0.316 -13.647,-2.613 0.083,13.132 13.88,-8.089 1.332,-0.766 V 0.999 L -1.631,0.965 V 0.949 l 0.899,-0.516 0.083,-0.05 0.35,-0.2 z" /></g><g
           transform="translate(52.5275,40.3953)"
           id="g236"><path
             id="path238"
             style="fill:#6a6c6d;fill-opacity:1;fill-rule:nonzero;stroke:none"
             d="M 0,0 -24.824,-14.329 V -25.34 l 0.987,-0.747 24.824,25.34 z" /></g><g
           transform="translate(53.5148,39.6487)"
           id="g240"><path
             id="path242"
             style="fill:#9e9e9e;fill-opacity:1;fill-rule:nonzero;stroke:none"
             d="M 0,0 -24.825,-14.329 V -25.34 L 0,-11.012 Z" /></g><g
           transform="translate(29.6398,24.7723)"
           id="g244"><path
             id="path246"
             style="fill:#332a26;fill-opacity:1;fill-rule:nonzero;stroke:none"
             d="M 0,0 22.925,13.232 V 4.413 L 0,-8.819 Z" /></g><g
           transform="translate(51.9498,37.6492)"
           id="g248"><path
             id="path250"
             style="fill:#929092;fill-opacity:1;fill-rule:nonzero;stroke:none"
             d="m 0,0 v -8.091 l -22.31,-12.877 v -0.728 L 0.615,-8.464 v 8.819 z" /></g><g
           transform="translate(52.5651,29.1853)"
           id="g252"><path
             id="path254"
             style="fill:#ffffff;fill-opacity:1;fill-rule:nonzero;stroke:none"
             d="m 0,0 -0.615,0.373 -22.31,-12.877 v -0.728 z" /></g><g
           transform="translate(52.5275,40.3953)"
           id="g256"><path
             id="path258"
             style="fill:#c6c4c4;fill-opacity:1;fill-rule:nonzero;stroke:none"
             d="m 0,0 0.987,-0.747 -24.824,-14.328 -0.987,0.746 z" /></g><g
           transform="translate(34.9679,24.303)"
           id="g260"><path
             id="path262"
             style="fill:#595959;fill-opacity:1;fill-rule:nonzero;stroke:none"
             d="m 0,0 -1.228,-0.711 0.869,1.598 -0.48,0.327 -0.869,-1.598 V 1.165 L -2.386,0.771 v -1.548 l -0.868,0.591 -0.479,-0.882 0.867,-0.593 -1.227,-0.711 v -0.856 l 1.227,0.711 -0.867,-1.597 0.479,-0.327 0.868,1.597 v -1.548 l 0.678,0.393 v 1.548 l 0.869,-0.591 0.48,0.883 -0.869,0.592 L 0,-0.856 Z" /></g><g
           transform="translate(32.5822,25.074)"
           id="g264"><path
             id="path266"
             style="fill:#6a6c6d;fill-opacity:1;fill-rule:nonzero;stroke:none"
             d="M 0,0 0.269,-0.133 V -1.681 L 0,-1.548 Z" /></g><g
           transform="translate(33.5289,25.3348)"
           id="g268"><path
             id="path270"
             style="fill:#c6c4c4;fill-opacity:1;fill-rule:nonzero;stroke:none"
             d="m 0,0 -0.678,-0.394 -0.269,0.133 0.678,0.394 z" /></g><g
           transform="translate(34.1286,25.5169)"
           id="g272"><path
             id="path274"
             style="fill:#9e9e9e;fill-opacity:1;fill-rule:nonzero;stroke:none"
             d="M 0,0 0.269,-0.133 -0.6,-1.731 -0.868,-1.598 Z" /></g><g
           transform="translate(35.236,24.1702)"
           id="g276"><path
             id="path278"
             style="fill:#c6c4c4;fill-opacity:1;fill-rule:nonzero;stroke:none"
             d="m 0,0 -0.268,0.133 -1.228,-0.712 0.269,-0.132 z" /></g><g
           transform="translate(31.5026,23.1019)"
           id="g280"><path
             id="path282"
             style="fill:#6a6c6d;fill-opacity:1;fill-rule:nonzero;stroke:none"
             d="M 0,0 0.868,-0.592 0.6,-0.459 -0.268,0.133 Z" /></g><g
           transform="translate(31.9826,23.9852)"
           id="g284"><path
             id="path286"
             style="fill:#c6c4c4;fill-opacity:1;fill-rule:nonzero;stroke:none"
             d="M 0,0 -0.269,0.132 -0.748,-0.75 -0.48,-0.883 Z" /></g><g
           transform="translate(31.1432,21.7986)"
           id="g288"><path
             id="path290"
             style="fill:#9e9e9e;fill-opacity:1;fill-rule:nonzero;stroke:none"
             d="M 0,0 -0.268,0.132 V -0.724 L 0,-0.856 Z" /></g><g
           transform="translate(32.3707,22.5096)"
           id="g292"><path
             id="path294"
             style="fill:#c6c4c4;fill-opacity:1;fill-rule:nonzero;stroke:none"
             d="m 0,0 -0.269,0.133 -1.227,-0.712 0.268,-0.132 z" /></g><g
           transform="translate(31.5026,20.056)"
           id="g296"><path
             id="path298"
             style="fill:#9e9e9e;fill-opacity:1;fill-rule:nonzero;stroke:none"
             d="M 0,0 -0.268,0.133 0.6,1.73 0.868,1.598 Z" /></g><g
           transform="translate(31.9826,19.7288)"
           id="g300"><path
             id="path302"
             style="fill:#595959;fill-opacity:1;fill-rule:nonzero;stroke:none"
             d="M 0,0 -0.269,0.133 -0.748,0.46 -0.48,0.327 Z" /></g><g
           transform="translate(32.8507,19.7781)"
           id="g304"><path
             id="path306"
             style="fill:#9e9e9e;fill-opacity:1;fill-rule:nonzero;stroke:none"
             d="M 0,0 -0.269,0.133 V 1.681 L 0,1.549 Z" /></g><g
           transform="translate(34.3971,21.1277)"
           id="g308"><path
             id="path310"
             style="fill:#595959;fill-opacity:1;fill-rule:nonzero;stroke:none"
             d="M 0,0 -0.269,0.133 -1.137,0.725 -0.868,0.592 Z" /></g><g
           transform="translate(35.236,24.1702)"
           id="g312"><path
             id="path314"
             style="fill:#ffffff;fill-opacity:1;fill-rule:nonzero;stroke:none"
             d="m 0,0 -1.227,-0.711 0.868,1.598 -0.48,0.327 -0.868,-1.598 V 1.165 L -2.385,0.771 v -1.548 l -0.868,0.592 -0.48,-0.883 0.868,-0.593 -1.228,-0.711 v -0.856 l 1.228,0.712 -0.868,-1.598 0.48,-0.327 0.868,1.598 v -1.549 l 0.678,0.393 v 1.549 l 0.868,-0.592 0.48,0.883 -0.868,0.592 L 0,-0.856 Z" /></g><g
           transform="translate(40.0036,27.2068)"
           id="g316"><path
             id="path318"
             style="fill:#595959;fill-opacity:1;fill-rule:nonzero;stroke:none"
             d="m 0,0 -1.228,-0.711 0.869,1.598 -0.48,0.327 -0.868,-1.598 V 1.165 L -2.386,0.771 v -1.548 l -0.867,0.592 -0.48,-0.883 0.868,-0.593 -1.228,-0.711 v -0.856 l 1.228,0.711 -0.868,-1.597 0.48,-0.327 0.867,1.597 v -1.548 l 0.679,0.393 v 1.549 l 0.868,-0.592 0.48,0.883 -0.869,0.592 L 0,-0.856 Z" /></g><g
           transform="translate(37.6178,27.9778)"
           id="g320"><path
             id="path322"
             style="fill:#6a6c6d;fill-opacity:1;fill-rule:nonzero;stroke:none"
             d="M 0,0 0.269,-0.132 V -1.681 L 0,-1.548 Z" /></g><g
           transform="translate(38.5646,28.2386)"
           id="g324"><path
             id="path326"
             style="fill:#c6c4c4;fill-opacity:1;fill-rule:nonzero;stroke:none"
             d="m 0,0 -0.678,-0.393 -0.269,0.132 0.679,0.394 z" /></g><g
           transform="translate(39.1642,28.4207)"
           id="g328"><path
             id="path330"
             style="fill:#9e9e9e;fill-opacity:1;fill-rule:nonzero;stroke:none"
             d="M 0,0 0.269,-0.133 -0.6,-1.73 -0.868,-1.598 Z" /></g><g
           transform="translate(40.2721,27.0745)"
           id="g332"><path
             id="path334"
             style="fill:#c6c4c4;fill-opacity:1;fill-rule:nonzero;stroke:none"
             d="m 0,0 -0.269,0.132 -1.227,-0.711 0.268,-0.132 z" /></g><g
           transform="translate(36.5387,26.0057)"
           id="g336"><path
             id="path338"
             style="fill:#6a6c6d;fill-opacity:1;fill-rule:nonzero;stroke:none"
             d="M 0,0 0.868,-0.592 0.6,-0.459 -0.269,0.133 Z" /></g><g
           transform="translate(37.0182,26.889)"
           id="g340"><path
             id="path342"
             style="fill:#c6c4c4;fill-opacity:1;fill-rule:nonzero;stroke:none"
             d="m 0,0 -0.268,0.133 -0.48,-0.883 0.269,-0.133 z" /></g><g
           transform="translate(36.1788,24.7024)"
           id="g344"><path
             id="path346"
             style="fill:#9e9e9e;fill-opacity:1;fill-rule:nonzero;stroke:none"
             d="M 0,0 -0.268,0.133 V -0.723 L 0,-0.856 Z" /></g><g
           transform="translate(37.4064,25.4139)"
           id="g348"><path
             id="path350"
             style="fill:#c6c4c4;fill-opacity:1;fill-rule:nonzero;stroke:none"
             d="m 0,0 -0.268,0.132 -1.228,-0.711 0.268,-0.132 z" /></g><g
           transform="translate(36.5387,22.9598)"
           id="g352"><path
             id="path354"
             style="fill:#9e9e9e;fill-opacity:1;fill-rule:nonzero;stroke:none"
             d="M 0,0 -0.269,0.133 0.6,1.73 0.868,1.598 Z" /></g><g
           transform="translate(37.0182,22.6326)"
           id="g356"><path
             id="path358"
             style="fill:#595959;fill-opacity:1;fill-rule:nonzero;stroke:none"
             d="M 0,0 -0.268,0.133 -0.748,0.46 -0.479,0.327 Z" /></g><g
           transform="translate(37.8864,22.6819)"
           id="g360"><path
             id="path362"
             style="fill:#9e9e9e;fill-opacity:1;fill-rule:nonzero;stroke:none"
             d="M 0,0 -0.269,0.133 V 1.681 L 0,1.549 Z" /></g><g
           transform="translate(39.4328,24.032)"
           id="g364"><path
             id="path366"
             style="fill:#595959;fill-opacity:1;fill-rule:nonzero;stroke:none"
             d="M 0,0 -0.269,0.132 -1.136,0.725 -0.868,0.592 Z" /></g><g
           transform="translate(40.2721,27.0745)"
           id="g368"><path
             id="path370"
             style="fill:#ffffff;fill-opacity:1;fill-rule:nonzero;stroke:none"
             d="M 0,0 -1.228,-0.711 -0.36,0.886 -0.839,1.213 -1.708,-0.384 V 1.164 L -2.386,0.771 v -1.548 l -0.868,0.591 -0.479,-0.883 0.867,-0.592 -1.227,-0.711 v -0.856 l 1.227,0.711 -0.867,-1.598 0.479,-0.327 0.868,1.598 v -1.549 l 0.678,0.394 v 1.548 l 0.869,-0.591 0.479,0.883 -0.868,0.592 L 0,-0.856 Z" /></g><g
           transform="translate(45.0392,30.1106)"
           id="g372"><path
             id="path374"
             style="fill:#595959;fill-opacity:1;fill-rule:nonzero;stroke:none"
             d="m 0,0 -1.228,-0.711 0.869,1.598 -0.48,0.327 -0.868,-1.598 V 1.165 L -2.386,0.771 v -1.548 l -0.867,0.592 -0.48,-0.883 0.868,-0.593 -1.228,-0.711 v -0.856 l 1.228,0.712 -0.868,-1.598 0.48,-0.327 0.867,1.598 v -1.549 l 0.679,0.393 v 1.549 l 0.868,-0.592 0.48,0.883 -0.869,0.592 L 0,-0.855 Z" /></g><g
           transform="translate(42.6535,30.8821)"
           id="g376"><path
             id="path378"
             style="fill:#6a6c6d;fill-opacity:1;fill-rule:nonzero;stroke:none"
             d="M 0,0 0.269,-0.133 V -1.681 L 0,-1.549 Z" /></g><g
           transform="translate(43.6002,31.1424)"
           id="g380"><path
             id="path382"
             style="fill:#c6c4c4;fill-opacity:1;fill-rule:nonzero;stroke:none"
             d="m 0,0 -0.678,-0.393 -0.269,0.133 0.679,0.393 z" /></g><g
           transform="translate(44.1998,31.3245)"
           id="g384"><path
             id="path386"
             style="fill:#9e9e9e;fill-opacity:1;fill-rule:nonzero;stroke:none"
             d="M 0,0 0.269,-0.132 -0.6,-1.73 -0.868,-1.598 Z" /></g><g
           transform="translate(45.3078,29.9783)"
           id="g388"><path
             id="path390"
             style="fill:#c6c4c4;fill-opacity:1;fill-rule:nonzero;stroke:none"
             d="m 0,0 -0.269,0.132 -1.227,-0.711 0.268,-0.132 z" /></g><g
           transform="translate(41.5739,28.9095)"
           id="g392"><path
             id="path394"
             style="fill:#6a6c6d;fill-opacity:1;fill-rule:nonzero;stroke:none"
             d="M 0,0 0.868,-0.592 0.6,-0.459 -0.268,0.133 Z" /></g><g
           transform="translate(42.0538,29.7928)"
           id="g396"><path
             id="path398"
             style="fill:#c6c4c4;fill-opacity:1;fill-rule:nonzero;stroke:none"
             d="M 0,0 -0.268,0.133 -0.748,-0.75 -0.48,-0.883 Z" /></g><g
           transform="translate(41.2145,27.6062)"
           id="g400"><path
             id="path402"
             style="fill:#9e9e9e;fill-opacity:1;fill-rule:nonzero;stroke:none"
             d="M 0,0 -0.268,0.133 V -0.723 L 0,-0.856 Z" /></g><g
           transform="translate(42.442,28.3177)"
           id="g404"><path
             id="path406"
             style="fill:#c6c4c4;fill-opacity:1;fill-rule:nonzero;stroke:none"
             d="m 0,0 -0.268,0.132 -1.228,-0.711 0.268,-0.132 z" /></g><g
           transform="translate(41.5739,25.8641)"
           id="g408"><path
             id="path410"
             style="fill:#9e9e9e;fill-opacity:1;fill-rule:nonzero;stroke:none"
             d="M 0,0 -0.268,0.132 0.6,1.73 0.868,1.598 Z" /></g><g
           transform="translate(42.0538,25.5364)"
           id="g412"><path
             id="path414"
             style="fill:#595959;fill-opacity:1;fill-rule:nonzero;stroke:none"
             d="M 0,0 -0.268,0.133 -0.748,0.46 -0.48,0.328 Z" /></g><g
           transform="translate(42.922,25.5862)"
           id="g416"><path
             id="path418"
             style="fill:#9e9e9e;fill-opacity:1;fill-rule:nonzero;stroke:none"
             d="M 0,0 -0.269,0.132 V 1.681 L 0,1.548 Z" /></g><g
           transform="translate(44.4684,26.9358)"
           id="g420"><path
             id="path422"
             style="fill:#595959;fill-opacity:1;fill-rule:nonzero;stroke:none"
             d="M 0,0 -0.269,0.133 -1.136,0.725 -0.868,0.592 Z" /></g><g
           transform="translate(45.3078,29.9783)"
           id="g424"><path
             id="path426"
             style="fill:#ffffff;fill-opacity:1;fill-rule:nonzero;stroke:none"
             d="M 0,0 -1.228,-0.711 -0.36,0.886 -0.839,1.214 -1.708,-0.384 V 1.164 L -2.386,0.771 v -1.548 l -0.868,0.591 -0.48,-0.883 0.868,-0.592 -1.227,-0.711 v -0.856 l 1.227,0.711 -0.868,-1.597 0.48,-0.328 0.868,1.598 v -1.548 l 0.678,0.393 v 1.548 l 0.869,-0.591 0.479,0.883 -0.868,0.592 L 0,-0.856 Z" /></g><g
           transform="translate(50.0748,33.0149)"
           id="g428"><path
             id="path430"
             style="fill:#595959;fill-opacity:1;fill-rule:nonzero;stroke:none"
             d="m 0,0 -1.228,-0.711 0.869,1.598 -0.48,0.326 -0.868,-1.597 V 1.164 L -2.386,0.771 v -1.548 l -0.867,0.591 -0.48,-0.883 0.868,-0.592 -1.228,-0.711 v -0.856 l 1.228,0.711 -0.868,-1.598 0.48,-0.327 0.867,1.598 v -1.548 l 0.679,0.393 v 1.548 l 0.868,-0.591 0.48,0.883 -0.869,0.592 L 0,-0.856 Z" /></g><g
           transform="translate(47.6891,33.7859)"
           id="g432"><path
             id="path434"
             style="fill:#6a6c6d;fill-opacity:1;fill-rule:nonzero;stroke:none"
             d="M 0,0 0.269,-0.133 V -1.681 L 0,-1.548 Z" /></g><g
           transform="translate(48.6359,34.0462)"
           id="g436"><path
             id="path438"
             style="fill:#c6c4c4;fill-opacity:1;fill-rule:nonzero;stroke:none"
             d="m 0,0 -0.678,-0.393 -0.269,0.133 0.679,0.393 z" /></g><g
           transform="translate(49.2355,34.2283)"
           id="g440"><path
             id="path442"
             style="fill:#9e9e9e;fill-opacity:1;fill-rule:nonzero;stroke:none"
             d="M 0,0 0.269,-0.132 -0.6,-1.73 -0.868,-1.598 Z" /></g><g
           transform="translate(50.3434,32.8821)"
           id="g444"><path
             id="path446"
             style="fill:#c6c4c4;fill-opacity:1;fill-rule:nonzero;stroke:none"
             d="m 0,0 -0.269,0.133 -1.227,-0.712 0.268,-0.132 z" /></g><g
           transform="translate(46.61,31.8138)"
           id="g448"><path
             id="path450"
             style="fill:#6a6c6d;fill-opacity:1;fill-rule:nonzero;stroke:none"
             d="M 0,0 0.868,-0.592 0.6,-0.459 -0.269,0.132 Z" /></g><g
           transform="translate(47.0895,32.6966)"
           id="g452"><path
             id="path454"
             style="fill:#c6c4c4;fill-opacity:1;fill-rule:nonzero;stroke:none"
             d="m 0,0 -0.268,0.133 -0.48,-0.883 0.269,-0.133 z" /></g><g
           transform="translate(46.2501,30.5101)"
           id="g456"><path
             id="path458"
             style="fill:#9e9e9e;fill-opacity:1;fill-rule:nonzero;stroke:none"
             d="M 0,0 -0.268,0.133 V -0.723 L 0,-0.856 Z" /></g><g
           transform="translate(47.4777,31.2215)"
           id="g460"><path
             id="path462"
             style="fill:#c6c4c4;fill-opacity:1;fill-rule:nonzero;stroke:none"
             d="m 0,0 -0.268,0.133 -1.228,-0.712 0.268,-0.132 z" /></g><g
           transform="translate(46.61,28.7679)"
           id="g464"><path
             id="path466"
             style="fill:#9e9e9e;fill-opacity:1;fill-rule:nonzero;stroke:none"
             d="M 0,0 -0.269,0.132 0.6,1.73 0.868,1.598 Z" /></g><g
           transform="translate(47.0895,28.4407)"
           id="g468"><path
             id="path470"
             style="fill:#595959;fill-opacity:1;fill-rule:nonzero;stroke:none"
             d="m 0,0 -0.268,0.132 -0.48,0.327 0.269,-0.132 z" /></g><g
           transform="translate(47.9577,28.49)"
           id="g472"><path
             id="path474"
             style="fill:#9e9e9e;fill-opacity:1;fill-rule:nonzero;stroke:none"
             d="M 0,0 -0.269,0.133 V 1.681 L 0,1.548 Z" /></g><g
           transform="translate(49.504,29.8396)"
           id="g476"><path
             id="path478"
             style="fill:#595959;fill-opacity:1;fill-rule:nonzero;stroke:none"
             d="M 0,0 -0.269,0.133 -1.136,0.725 -0.868,0.592 Z" /></g><g
           transform="translate(50.3434,32.8821)"
           id="g480"><path
             id="path482"
             style="fill:#ffffff;fill-opacity:1;fill-rule:nonzero;stroke:none"
             d="M 0,0 -1.228,-0.711 -0.36,0.887 -0.839,1.214 -1.708,-0.384 V 1.164 L -2.386,0.771 v -1.548 l -0.868,0.591 -0.479,-0.882 0.867,-0.593 -1.227,-0.711 v -0.856 l 1.227,0.711 -0.867,-1.597 0.479,-0.327 0.868,1.597 v -1.548 l 0.678,0.393 v 1.548 l 0.869,-0.591 0.479,0.883 -0.868,0.592 L 0,-0.856 Z" /></g><g
           transform="translate(48.5504,48.1883)"
           id="g484"><path
             id="path486"
             style="fill:#9fa3a3;fill-opacity:1;fill-rule:nonzero;stroke:none"
             d="m 0,0 -4.542,-2.022 -2.589,1.314 c -0.293,-0.654 -0.521,-1.36 -0.661,-2.093 -0.157,-0.82 -0.186,-1.592 -0.107,-2.283 0.145,-1.299 0.679,-2.307 1.483,-2.804 l -0.003,-0.003 0.025,-0.013 c 0.007,-0.003 0.01,-0.007 0.013,-0.01 0.009,-0.006 0.019,-0.009 0.031,-0.016 l 1.797,-0.908 -0.711,0.614 c 0.079,-0.003 0.155,-0.009 0.237,-0.003 2.124,0.139 4.329,2.791 4.925,5.924 0.136,0.72 0.177,1.402 0.13,2.022 C 0.021,-0.186 0.011,-0.093 0,0" /></g><g
           transform="translate(43.5675,41.6443)"
           id="g488"><path
             id="path490"
             style="fill:#c9c9c9;fill-opacity:1;fill-rule:nonzero;stroke:none"
             d="M 0,0 5.011,6.263 C 5.004,6.358 4.994,6.451 4.983,6.544 L 0.441,4.522 -2.148,5.836 C -2.441,5.182 -2.669,4.476 -2.809,3.743 -2.966,2.923 -2.995,2.151 -2.916,1.459 L -1.837,0.92 Z" /></g><g
           transform="translate(49.3327,48.847)"
           id="g492"><path
             id="path494"
             style="fill:#eeeeee;fill-opacity:1;fill-rule:nonzero;stroke:none"
             d="m 0,0 -0.391,-0.484 -4.933,-2.197 -2.59,1.315 c 0.962,2.144 2.638,3.727 4.266,3.83 0.458,0.03 2.378,-0.589 2.744,-0.78 L -1.392,1.631 -1.104,1.466 C -0.628,1.147 -0.249,0.643 0,0" /></g><g
           transform="translate(50.048,45.2254)"
           id="g496"><path
             id="path498"
             style="fill:#b2b2b2;fill-opacity:1;fill-rule:nonzero;stroke:none"
             d="m 0,0 c -0.449,-2.359 -1.79,-4.45 -3.332,-5.437 -0.357,-0.229 -0.726,-0.398 -1.095,-0.499 l -0.002,-0.001 c -0.194,-0.051 -0.389,-0.085 -0.584,-0.097 -0.553,-0.035 -1.044,0.098 -1.463,0.371 -0.806,0.527 -1.336,1.574 -1.468,2.908 -0.023,0.227 -0.035,0.463 -0.035,0.706 0,0.487 0.047,1.005 0.151,1.542 0.236,1.246 0.722,2.417 1.357,3.39 0.99,1.521 2.338,2.558 3.657,2.643 0.436,0.03 0.837,-0.049 1.191,-0.22 H -1.62 L -1.327,5.139 C -1.009,4.925 -0.734,4.631 -0.51,4.269 V 4.267 C -0.393,4.077 -0.291,3.869 -0.202,3.644 -0.162,3.54 -0.125,3.433 -0.093,3.322 0.19,2.403 0.241,1.255 0,0" /></g><g
           transform="translate(49.4035,45.1834)"
           id="g500"><path
             id="path502"
             style="fill:#255eb3;fill-opacity:1;fill-rule:nonzero;stroke:none"
             d="m 0,0 c -0.375,-1.97 -1.495,-3.717 -2.783,-4.542 -0.299,-0.19 -0.606,-0.332 -0.915,-0.416 l -10e-4,-10e-4 c -0.162,-0.043 -0.325,-0.071 -0.488,-0.081 -0.462,-0.029 -0.872,0.082 -1.222,0.31 -0.674,0.44 -1.116,1.315 -1.227,2.429 -0.019,0.19 -0.029,0.387 -0.029,0.59 0,0.407 0.04,0.839 0.126,1.288 0.198,1.041 0.603,2.019 1.134,2.832 0.826,1.27 1.953,2.136 3.054,2.207 0.365,0.025 0.7,-0.042 0.996,-0.184 h 0.002 l 0.245,-0.14 C -0.842,4.114 -0.613,3.869 -0.426,3.566 V 3.564 C -0.328,3.406 -0.243,3.232 -0.169,3.044 -0.135,2.957 -0.104,2.868 -0.078,2.775 0.159,2.007 0.202,1.048 0,0" /></g><g
           transform="translate(25.4777,41.9568)"
           id="g504"><path
             id="path506"
             style="fill:#9fa3a3;fill-opacity:1;fill-rule:nonzero;stroke:none"
             d="M 0,0 4.541,-2.022 7.13,-0.708 C 7.424,-1.362 7.652,-2.068 7.792,-2.801 7.949,-3.621 7.978,-4.393 7.899,-5.084 7.753,-6.383 7.22,-7.391 6.416,-7.888 L 6.419,-7.891 6.394,-7.904 C 6.387,-7.907 6.384,-7.911 6.381,-7.914 6.371,-7.92 6.362,-7.923 6.349,-7.93 L 4.553,-8.838 5.264,-8.224 C 5.185,-8.227 5.109,-8.233 5.027,-8.227 c -2.124,0.139 -4.329,2.79 -4.926,5.924 -0.136,0.72 -0.177,1.402 -0.129,2.022 C -0.021,-0.186 -0.011,-0.093 0,0" /></g><g
           transform="translate(30.4606,35.4124)"
           id="g508"><path
             id="path510"
             style="fill:#c9c9c9;fill-opacity:1;fill-rule:nonzero;stroke:none"
             d="m 0,0 -5.011,6.263 c 0.007,0.096 0.017,0.189 0.028,0.281 L -0.442,4.522 2.147,5.836 C 2.441,5.182 2.669,4.477 2.809,3.744 2.966,2.923 2.995,2.151 2.916,1.46 L 1.836,0.921 Z" /></g><g
           transform="translate(24.6954,42.6155)"
           id="g512"><path
             id="path514"
             style="fill:#eeeeee;fill-opacity:1;fill-rule:nonzero;stroke:none"
             d="m 0,0 0.391,-0.484 4.932,-2.197 2.591,1.315 C 6.952,0.778 5.276,2.361 3.648,2.464 3.19,2.494 1.27,1.875 0.904,1.684 L 1.392,1.631 1.104,1.466 C 0.628,1.146 0.249,0.643 0,0" /></g><g
           transform="translate(23.9801,38.9939)"
           id="g516"><path
             id="path518"
             style="fill:#b2b2b2;fill-opacity:1;fill-rule:nonzero;stroke:none"
             d="m 0,0 c 0.449,-2.359 1.79,-4.45 3.332,-5.437 0.357,-0.23 0.725,-0.398 1.095,-0.499 l 0.002,-0.001 c 0.193,-0.052 0.389,-0.085 0.584,-0.097 0.553,-0.035 1.044,0.098 1.463,0.371 0.806,0.526 1.336,1.574 1.468,2.908 0.023,0.227 0.035,0.463 0.035,0.706 0,0.487 -0.047,1.005 -0.151,1.542 C 7.592,0.739 7.106,1.91 6.471,2.883 5.481,4.404 4.133,5.441 2.814,5.525 2.378,5.556 1.977,5.476 1.623,5.306 H 1.619 L 1.327,5.138 C 1.008,4.925 0.734,4.631 0.51,4.269 V 4.267 C 0.393,4.077 0.29,3.869 0.202,3.644 0.162,3.54 0.125,3.433 0.093,3.322 -0.19,2.403 -0.241,1.255 0,0" /></g><g
           transform="translate(24.6246,38.952)"
           id="g520"><path
             id="path522"
             style="fill:#ec4000;fill-opacity:1;fill-rule:nonzero;stroke:none"
             d="m 0,0 c 0.375,-1.97 1.495,-3.717 2.783,-4.542 0.299,-0.191 0.606,-0.332 0.915,-0.416 l 10e-4,-10e-4 c 0.162,-0.043 0.325,-0.071 0.488,-0.081 0.462,-0.029 0.872,0.082 1.222,0.31 0.674,0.439 1.116,1.314 1.226,2.429 0.02,0.19 0.03,0.386 0.03,0.59 0,0.407 -0.04,0.839 -0.126,1.288 C 6.341,0.618 5.936,1.596 5.405,2.409 4.578,3.679 3.452,4.545 2.351,4.616 1.986,4.641 1.651,4.574 1.355,4.432 H 1.353 L 1.108,4.292 C 0.842,4.114 0.613,3.869 0.426,3.565 V 3.564 C 0.328,3.405 0.243,3.232 0.169,3.043 0.135,2.957 0.104,2.867 0.078,2.774 -0.159,2.007 -0.202,1.048 0,0" /></g><g
           transform="translate(47.32,43.1814)"
           id="g524"><path
             id="path526"
             style="fill:#ffffff;fill-opacity:1;fill-rule:nonzero;stroke:none"
             d="m 0,0 -2.508,-1.419 v 0.727 l 0.831,1.788 c 0.229,0.491 0.385,0.85 0.472,1.073 0.084,0.223 0.147,0.428 0.188,0.612 0.04,0.184 0.06,0.362 0.06,0.533 0,0.2 -0.04,0.328 -0.12,0.383 C -1.156,3.753 -1.26,3.744 -1.389,3.671 -1.501,3.607 -1.607,3.514 -1.706,3.392 -1.803,3.27 -1.923,3.082 -2.063,2.829 L -2.55,3.125 c 0.224,0.411 0.432,0.724 0.624,0.937 0.193,0.215 0.4,0.384 0.624,0.51 0.378,0.213 0.673,0.257 0.885,0.129 0.212,-0.129 0.318,-0.414 0.318,-0.854 0,-0.201 -0.019,-0.403 -0.057,-0.602 C -0.194,3.043 -0.253,2.832 -0.331,2.607 -0.408,2.382 -0.507,2.14 -0.624,1.88 -0.741,1.618 -1.044,1.001 -1.533,0.027 V -0.001 L 0,0.867 Z" /></g><g
           transform="translate(28.2614,35.7547)"
           id="g528"><path
             id="path530"
             style="fill:#ffffff;fill-opacity:1;fill-rule:nonzero;stroke:none"
             d="m 0,0 -0.857,0.58 v 3.072 c 0,0.334 0.015,0.708 0.045,1.122 C -0.827,4.76 -0.882,4.724 -0.978,4.667 -1.072,4.609 -1.257,4.516 -1.532,4.387 L -2.019,5.311 -0.774,5.758 0,5.234 Z" /></g></g></g></g></svg>