<?xml version="1.0" encoding="UTF-8" standalone="no"?>
<svg
   xmlns:dc="http://purl.org/dc/elements/1.1/"
   xmlns:cc="http://creativecommons.org/ns#"
   xmlns:rdf="http://www.w3.org/1999/02/22-rdf-syntax-ns#"
   xmlns:svg="http://www.w3.org/2000/svg"
   xmlns="http://www.w3.org/2000/svg"
   viewBox="0 0 82.386536 110.11427"
   height="110.11427"
   width="82.386536"
   xml:space="preserve"
   id="svg2"
   version="1.1"><metadata
     id="metadata8"><rdf:RDF><cc:Work
         rdf:about=""><dc:format>image/svg+xml</dc:format><dc:type
           rdf:resource="http://purl.org/dc/dcmitype/StillImage" /></cc:Work></rdf:RDF></metadata><defs
     id="defs6"><clipPath
       id="clipPath38"
       clipPathUnits="userSpaceOnUse"><path
         id="path36"
         d="M 0,82.586 H 61.79 V 0 H 0 Z" /></clipPath></defs><g
     transform="matrix(1.3333333,0,0,-1.3333333,0,110.11427)"
     id="g10"><g
       transform="translate(18.0765,61.6437)"
       id="g12"><path
         id="path14"
         style="fill:#87c448;fill-opacity:1;fill-rule:nonzero;stroke:none"
         d="M 0,0 V 8.778 L -18.077,-1.8 v -8.679 -20.734 -8.644 l 46.743,27.149 v 28.201 l 0.497,-0.259 0.497,1.141 -0.994,0.33 z" /></g><g
       transform="translate(22.0338,63.0585)"
       id="g16"><path
         id="path18"
         style="fill:#fab600;fill-opacity:1;fill-rule:nonzero;stroke:none"
         d="M 0,0 -3.803,6.594 -21.038,-3.544 v -8.678 -20.734 -8.895 l 46.74,27.4 v 29.412 z" /></g><g
       transform="translate(2.5849,58.6026)"
       id="g20"><path
         id="path22"
         style="fill:#fa9c00;fill-opacity:1;fill-rule:nonzero;stroke:none"
         d="M 0,0 14.055,8.277 17.858,1.696 43.562,16.657 V -9.083 L 0,-34.657 Z" /></g><g
       transform="translate(0,59.8437)"
       id="g24"><path
         id="path26"
         style="fill:#fce7a3;fill-opacity:1;fill-rule:nonzero;stroke:none"
         d="M 0,0 0.995,-0.329 18.23,9.785 17.235,10.113 Z" /></g><g
       transform="translate(0,21.7863)"
       id="g28"><path
         id="path30"
         style="fill:#e6930f;fill-opacity:1;fill-rule:nonzero;stroke:none"
         d="M 0,0 0.995,-0.579 V 37.728 L 0,38.057 Z" /></g><g
       id="g32"><g
         clip-path="url(#clipPath38)"
         id="g34"><g
           transform="translate(48.7344,82.4039)"
           id="g40"><path
             id="path42"
             style="fill:#e0e0e0;fill-opacity:1;fill-rule:nonzero;stroke:none"
             d="m 0,0 -0.297,0.182 -46.741,-27.183 -0.008,-33.996 45.72,27.734 V -1.438 C -0.839,-0.94 0,0 0,0" /></g><g
           transform="translate(48.7344,48.3907)"
           id="g44"><path
             id="path46"
             style="fill:#939393;fill-opacity:1;fill-rule:nonzero;stroke:none"
             d="M 0,0 -46.742,-27.183 V 6.83 L 0,34.013 Z" /></g><g
           transform="translate(1.9922,55.2208)"
           id="g48"><path
             id="path50"
             style="fill:#777777;fill-opacity:1;fill-rule:nonzero;stroke:none"
             d="M 0,0 -0.296,0.182 -0.304,-33.813 0,-34.013 Z" /></g><g
           transform="translate(49.6309,81.7076)"
           id="g52"><path
             id="path54"
             style="fill:#e0e0e0;fill-opacity:1;fill-rule:nonzero;stroke:none"
             d="m 0,0 -0.296,0.182 -46.742,-27.183 -0.008,-33.996 45.721,27.734 V -1.438 C -0.839,-0.939 0,0 0,0" /></g><g
           transform="translate(49.6309,47.6944)"
           id="g56"><path
             id="path58"
             style="fill:#ababab;fill-opacity:1;fill-rule:nonzero;stroke:none"
             d="M 0,0 -46.742,-27.183 V 6.83 L 0,34.013 Z" /></g><g
           transform="translate(2.8887,54.5245)"
           id="g60"><path
             id="path62"
             style="fill:#777777;fill-opacity:1;fill-rule:nonzero;stroke:none"
             d="M 0,0 -0.296,0.182 -0.304,-33.813 0,-34.013 Z" /></g><g
           transform="translate(50.5928,80.9669)"
           id="g64"><path
             id="path66"
             style="fill:#e0e0e0;fill-opacity:1;fill-rule:nonzero;stroke:none"
             d="m 0,0 -0.296,0.182 -46.742,-27.183 -0.007,-33.995 45.72,27.734 V -1.438 C -0.839,-0.939 0,0 0,0" /></g><g
           transform="translate(50.5928,46.9542)"
           id="g68"><path
             id="path70"
             style="fill:#bfbfbf;fill-opacity:1;fill-rule:nonzero;stroke:none"
             d="M 0,0 -46.742,-27.183 V 6.83 L 0,34.013 Z" /></g><g
           transform="translate(3.8506,53.7843)"
           id="g72"><path
             id="path74"
             style="fill:#777777;fill-opacity:1;fill-rule:nonzero;stroke:none"
             d="M 0,0 -0.296,0.182 -0.303,-33.813 0,-34.013 Z" /></g><g
           transform="translate(52.2764,79.8688)"
           id="g76"><path
             id="path78"
             style="fill:#fce7a3;fill-opacity:1;fill-rule:nonzero;stroke:none"
             d="m 0,0 -1.326,0.75 -46.741,-27.183 -0.008,-34.072 46.749,27.165 V -1.438 C -0.839,-0.94 0,0 0,0" /></g><g
           transform="translate(52.2764,45.7784)"
           id="g80"><path
             id="path82"
             style="fill:#fab600;fill-opacity:1;fill-rule:nonzero;stroke:none"
             d="M 0,0 -46.742,-27.183 V 6.907 L 0,34.09 Z" /></g><g
           transform="translate(5.5342,52.6856)"
           id="g84"><path
             id="path86"
             style="fill:#e6930f;fill-opacity:1;fill-rule:nonzero;stroke:none"
             d="M 0,0 -1.325,0.75 -1.333,-33.322 0,-34.09 Z" /></g><g
           transform="translate(52.2764,75.1905)"
           id="g88"><path
             id="path90"
             style="fill:#eead00;fill-opacity:1;fill-rule:nonzero;stroke:none"
             d="M 0,0 -46.742,-56.595 0,-29.412 Z" /></g><g
           transform="translate(5.5342,18.5953)"
           id="g92"><path
             id="path94"
             style="fill:#e8a50f;fill-opacity:1;fill-rule:nonzero;stroke:none"
             d="M 0,0 -5.534,3.169 V 4.548 L 0,1.467 Z" /></g><g
           transform="translate(34.5654,59.5382)"
           id="g96"><path
             id="path98"
             style="fill:#ebf3ff;fill-opacity:1;fill-rule:nonzero;stroke:none"
             d="m 0,0 0.031,-6.505 -9.977,0.594 -0.95,0.307 c 0.178,0.864 0.718,1.62 1.495,2.073 l 6.8,3.98 c 0.632,0.368 1.351,0.289 1.878,-0.077 L -0.652,0.31 -0.593,0.275 Z" /></g><g
           transform="translate(25.2188,38.5821)"
           id="g100"><path
             id="path102"
             style="fill:#95a9bd;fill-opacity:1;fill-rule:nonzero;stroke:none"
             d="m 0,0 -0.597,0.305 -0.286,0.164 -0.01,0.008 -0.012,0.01 -0.159,0.129 -0.021,0.017 c -0.323,0.311 -0.534,0.749 -0.534,1.262 v 12.808 c 0,0.222 0.022,0.438 0.069,0.65 l 0.95,-0.308 0.357,-8.904 z" /></g><g
           transform="translate(26.0752,55.5206)"
           id="g104"><path
             id="path106"
             style="fill:#dbe7f3;fill-opacity:1;fill-rule:nonzero;stroke:none"
             d="m 0,0 -1.565,-2.722 -0.911,0.487 c 0,0.221 0.023,0.438 0.07,0.649 0.178,0.863 0.719,1.62 1.495,2.072 z" /></g><g
           transform="translate(33.9414,42.4566)"
           id="g108"><path
             id="path110"
             style="fill:#a9bbff;fill-opacity:1;fill-rule:nonzero;stroke:none"
             d="m 0,0 -6.8,-3.979 c -1.168,-0.68 -2.633,0.162 -2.633,1.513 v 12.807 c 0,1.122 0.597,2.159 1.566,2.723 l 6.801,3.979 c 1.167,0.68 2.631,-0.162 2.631,-1.513 V 2.723 C 1.565,1.601 0.97,0.564 0,0" /></g><g
           transform="translate(32.0635,51.4781)"
           id="g112"><path
             id="path114"
             style="fill:#899bae;fill-opacity:1;fill-rule:nonzero;stroke:none"
             d="m 0,0 c -0.065,-0.749 -0.346,-1.444 -0.754,-1.968 v -5.276 l -2.523,-1.483 v 6.006 c -0.691,0.41 -1.113,1.35 -1.02,2.473 0.011,0.119 0.026,0.238 0.049,0.354 0.247,1.394 1.239,2.519 2.336,2.582 C -0.727,2.756 0.129,1.552 0,0" /></g><g
           transform="translate(32.0635,51.4781)"
           id="g116"><path
             id="path118"
             style="fill:#788da1;fill-opacity:1;fill-rule:nonzero;stroke:none"
             d="M 0,0 C -0.065,-0.749 -0.346,-1.444 -0.754,-1.968 L -4.248,0.106 C -4.001,1.5 -3.009,2.625 -1.912,2.688 -0.727,2.756 0.129,1.552 0,0" /></g><g
           transform="translate(31.3096,44.2345)"
           id="g120"><path
             id="path122"
             style="fill:#dbe7f3;fill-opacity:1;fill-rule:nonzero;stroke:none"
             d="M 0,0 -2.523,-1.483 V 1.5 Z" /></g><g
           transform="translate(46.8535,19.4898)"
           id="g124"><path
             id="path126"
             style="fill:#e8bd0a;fill-opacity:1;fill-rule:nonzero;stroke:none"
             d="M 0,0 C -1.081,-0.595 -3.183,-0.371 -4.689,0.502 -5.647,1.05 -6.134,1.73 -6.08,2.31 -7.1,2.294 -8.297,2.588 -9.255,3.144 c -0.231,0.131 -0.44,0.271 -0.618,0.417 -0.401,0.333 -0.648,0.688 -0.741,1.028 -0.046,0.17 -0.054,0.332 -0.016,0.478 0.063,0.287 0.271,0.541 0.61,0.727 1.09,0.587 3.183,0.363 4.69,-0.51 0.889,-0.51 3.615,-2.086 4.573,-2.642 C -0.101,2.263 0.34,1.815 0.525,1.383 0.772,0.842 0.603,0.324 0,0 M 3.129,1.274 C 2.572,2.472 2.584,3.048 0.397,4.376 0.251,4.469 0.046,4.833 -0.102,4.918 -0.225,4.988 -1.034,5.479 -1.15,5.541 -1.845,5.927 -3.716,6.443 -3.716,6.443 l -2.047,1.491 -2.556,0.803 -2.704,-0.571 0.1,-0.418 C -11.472,7.74 -11.966,7.671 -12.383,7.547 -12.592,7.485 -12.785,7.408 -12.955,7.315 -12.963,7.308 -12.979,7.3 -12.985,7.3 -13.179,7.192 -13.125,7.27 -13.248,7.13 l -0.541,0.719 V 6.072 h 0.008 c -0.039,-1.058 0.972,-2.472 2.819,-3.878 0.348,-0.263 0.719,-0.533 1.128,-0.796 0.294,-0.193 0.61,-0.386 0.942,-0.579 4.281,-2.48 9.394,-3.577 11.434,-2.465 0.54,0.294 0.811,0.719 0.834,1.236 v 2.202 z" /></g><g
           transform="translate(37.5986,22.6339)"
           id="g128"><path
             id="path130"
             style="fill:#cca606;fill-opacity:1;fill-rule:nonzero;stroke:none"
             d="m 0,0 -1.707,-0.95 c -1.847,1.406 -2.858,2.82 -2.819,3.878 h -0.008 v 1.777 l 0.541,-0.719 c 0.123,0.139 0.069,0.062 0.263,0.17 0.006,0 0.022,0.008 0.03,0.015 0.17,0.093 0.363,0.17 0.572,0.232 0.394,-0.556 1.105,-1.568 1.753,-2.48 C -0.648,0.904 0,0 0,0" /></g><g
           transform="translate(47.4883,19.0728)"
           id="g132"><path
             id="path134"
             style="fill:#e8bd0a;fill-opacity:1;fill-rule:nonzero;stroke:none"
             d="M 0,0 -0.634,0.949 -6.777,2.414 V 1.497 l 3.102,-1.819 z" /></g><g
           transform="translate(42.1641,22.1031)"
           id="g136"><path
             id="path138"
             style="fill:#ffff00;fill-opacity:1;fill-rule:nonzero;stroke:none"
             d="M 0,0 C -0.956,0.546 -3.61,2.063 -4.567,2.608 -6.071,3.468 -6.413,4.64 -5.329,5.225 -4.245,5.81 -2.144,5.587 -0.639,4.728 0.317,4.182 2.972,2.666 3.929,2.119 5.437,1.258 5.774,0.087 4.69,-0.498 3.606,-1.082 1.508,-0.861 0,0 M 3.173,4.296 C -1.108,6.741 -6.228,7.83 -8.266,6.73 -10.304,5.631 -8.486,2.761 -4.206,0.316 0.075,-2.129 5.192,-3.219 7.23,-2.12 9.269,-1.021 7.453,1.851 3.173,4.296" /></g><g
           transform="translate(11.1963,5.3683)"
           id="g140"><path
             id="path142"
             style="fill:#e8bd0a;fill-opacity:1;fill-rule:nonzero;stroke:none"
             d="m 0,0 1.998,-1.101 26.633,15.092 -1.998,1.101 z" /></g><g
           transform="translate(11.1963,7.7276)"
           id="g144"><path
             id="path146"
             style="fill:#cca606;fill-opacity:1;fill-rule:nonzero;stroke:none"
             d="M 0,0 V -2.359 L 1.998,-3.46 v 2.359 z" /></g><g
           transform="translate(39.5791,21.5753)"
           id="g148"><path
             id="path150"
             style="fill:#e8bd0a;fill-opacity:1;fill-rule:nonzero;stroke:none"
             d="m 0,0 v -2.359 l -26.385,-14.949 v 2.359 z" /></g><g
           transform="translate(11.1963,7.7276)"
           id="g152"><path
             id="path154"
             style="fill:#ffff00;fill-opacity:1;fill-rule:nonzero;stroke:none"
             d="m 0,0 1.998,-1.101 26.633,15.092 -1.998,1.1 z" /></g><g
           transform="translate(15.2051,7.7882)"
           id="g156"><path
             id="path158"
             style="fill:#ffff00;fill-opacity:1;fill-rule:nonzero;stroke:none"
             d="M 0,0 1.279,-0.706 7.207,2.726 5.975,3.398 Z" /></g><g
           transform="translate(15.2295,7.7765)"
           id="g160"><path
             id="path162"
             style="fill:#cca606;fill-opacity:1;fill-rule:nonzero;stroke:none"
             d="m 0,0 v -2.375 l 1.279,-0.69 v 2.359 z" /></g><g
           transform="translate(22.4365,10.5025)"
           id="g164"><path
             id="path166"
             style="fill:#e8bd0a;fill-opacity:1;fill-rule:nonzero;stroke:none"
             d="m 0,0 v -2.359 l -5.928,-3.433 v 2.36 z" /></g><g
           transform="translate(17.0527,7.4781)"
           id="g168"><path
             id="path170"
             style="fill:#ffff00;fill-opacity:1;fill-rule:nonzero;stroke:none"
             d="M 0,0 1.279,-0.706 5.777,1.858 4.521,2.542 Z" /></g><g
           transform="translate(17.0771,7.4664)"
           id="g172"><path
             id="path174"
             style="fill:#cca606;fill-opacity:1;fill-rule:nonzero;stroke:none"
             d="m 0,0 v -2.375 l 1.279,-0.69 v 2.359 z" /></g><g
           transform="translate(22.8301,9.336)"
           id="g176"><path
             id="path178"
             style="fill:#e8bd0a;fill-opacity:1;fill-rule:nonzero;stroke:none"
             d="m 0,0 v -2.359 l -4.474,-2.576 v 2.359 z" /></g><g
           transform="translate(17.5059,6.4659)"
           id="g180"><path
             id="path182"
             style="fill:#ffff00;fill-opacity:1;fill-rule:nonzero;stroke:none"
             d="M 0,0 1.304,-0.718 7.207,2.726 5.975,3.398 Z" /></g><g
           transform="translate(17.5303,6.4537)"
           id="g184"><path
             id="path186"
             style="fill:#cca606;fill-opacity:1;fill-rule:nonzero;stroke:none"
             d="m 0,0 v -2.375 l 1.279,-0.689 v 2.358 z" /></g><g
           transform="translate(24.7129,9.192)"
           id="g188"><path
             id="path190"
             style="fill:#e8bd0a;fill-opacity:1;fill-rule:nonzero;stroke:none"
             d="m 0,0 0.024,-2.371 -5.927,-3.431 v 2.358 z" /></g><g
           transform="translate(30.6533,5.7813)"
           id="g192"><path
             id="path194"
             style="fill:#ffff00;fill-opacity:1;fill-rule:nonzero;stroke:none"
             d="m 0,0 -0.885,-0.503 -5.884,3.419 0.82,0.495 z" /></g><g
           transform="translate(30.6533,3.4518)"
           id="g196"><path
             id="path198"
             style="fill:#e8bd0a;fill-opacity:1;fill-rule:nonzero;stroke:none"
             d="m 0,0 -0.885,-0.503 -5.884,3.419 0.82,0.495 z" /></g><g
           transform="translate(29.7686,5.2779)"
           id="g200"><path
             id="path202"
             style="fill:#cca606;fill-opacity:1;fill-rule:nonzero;stroke:none"
             d="M 0,0 V -2.33 L -5.883,1.06 -5.884,3.419 Z" /></g><g
           transform="translate(30.6533,5.7813)"
           id="g204"><path
             id="path206"
             style="fill:#e8bd0a;fill-opacity:1;fill-rule:nonzero;stroke:none"
             d="m 0,0 v -2.33 l -0.885,-0.503 v 2.33 z" /></g><g
           transform="translate(27.0313,5.2555)"
           id="g208"><path
             id="path210"
             style="fill:#ffff00;fill-opacity:1;fill-rule:nonzero;stroke:none"
             d="m 0,0 -0.885,-0.504 -4.556,2.65 0.819,0.494 z" /></g><g
           transform="translate(27.0313,2.9259)"
           id="g212"><path
             id="path214"
             style="fill:#e8bd0a;fill-opacity:1;fill-rule:nonzero;stroke:none"
             d="m 0,0 -0.885,-0.504 -4.556,2.65 0.819,0.495 z" /></g><g
           transform="translate(26.1465,4.7516)"
           id="g216"><path
             id="path218"
             style="fill:#cca606;fill-opacity:1;fill-rule:nonzero;stroke:none"
             d="M 0,0 V -2.33 L -4.556,0.29 -4.557,2.649 Z" /></g><g
           transform="translate(27.0313,5.2555)"
           id="g220"><path
             id="path222"
             style="fill:#e8bd0a;fill-opacity:1;fill-rule:nonzero;stroke:none"
             d="m 0,0 v -2.33 l -0.885,-0.503 v 2.329 z" /></g><g
           transform="translate(25.5771,2.8336)"
           id="g224"><path
             id="path226"
             style="fill:#ffff00;fill-opacity:1;fill-rule:nonzero;stroke:none"
             d="M 0,0 -0.886,-0.504 -6.769,2.915 -5.95,3.41 Z" /></g><g
           transform="translate(25.5771,0.5035)"
           id="g228"><path
             id="path230"
             style="fill:#e8bd0a;fill-opacity:1;fill-rule:nonzero;stroke:none"
             d="M 0,0 -0.886,-0.503 -6.769,2.916 -5.95,3.411 Z" /></g><g
           transform="translate(24.6914,2.3297)"
           id="g232"><path
             id="path234"
             style="fill:#cca606;fill-opacity:1;fill-rule:nonzero;stroke:none"
             d="M 0,0 V -2.33 L -5.882,1.06 -5.883,3.419 Z" /></g><g
           transform="translate(25.5771,2.8336)"
           id="g236"><path
             id="path238"
             style="fill:#e8bd0a;fill-opacity:1;fill-rule:nonzero;stroke:none"
             d="m 0,0 v -2.33 l -0.886,-0.503 v 2.329 z" /></g><g
           transform="translate(60.8604,56.5318)"
           id="g240"><path
             id="path242"
             style="fill:#d3d0af;fill-opacity:1;fill-rule:nonzero;stroke:none"
             d="m 0,0 -23.389,-13.5 v -10.375 l 0.93,-0.703 23.389,23.874 z" /></g><g
           transform="translate(61.79,55.8282)"
           id="g244"><path
             id="path246"
             style="fill:#e6e4c2;fill-opacity:1;fill-rule:nonzero;stroke:none"
             d="M 0,0 -23.389,-13.5 V -23.875 L 0,-10.375 Z" /></g><g
           transform="translate(39.2959,41.8121)"
           id="g248"><path
             id="path250"
             style="fill:#332a26;fill-opacity:1;fill-rule:nonzero;stroke:none"
             d="M 0,0 21.6,12.467 V 4.158 L 0,-8.309 Z" /></g><g
           transform="translate(60.3154,53.9444)"
           id="g252"><path
             id="path254"
             style="fill:#d3d0af;fill-opacity:1;fill-rule:nonzero;stroke:none"
             d="m 0,0 v -7.623 l -21.02,-12.132 v -0.686 l 21.6,12.467 v 8.308 z" /></g><g
           transform="translate(60.8955,45.9703)"
           id="g256"><path
             id="path258"
             style="fill:#ffffff;fill-opacity:1;fill-rule:nonzero;stroke:none"
             d="M 0,0 -0.58,0.351 -21.6,-11.781 v -0.686 z" /></g><g
           transform="translate(60.8604,56.5318)"
           id="g260"><path
             id="path262"
             style="fill:#ffffde;fill-opacity:1;fill-rule:nonzero;stroke:none"
             d="m 0,0 0.93,-0.704 -23.389,-13.5 -0.93,0.704 z" /></g><g
           transform="translate(44.3154,41.3702)"
           id="g264"><path
             id="path266"
             style="fill:#595959;fill-opacity:1;fill-rule:nonzero;stroke:none"
             d="m 0,0 -1.156,-0.67 0.817,1.505 -0.451,0.309 -0.818,-1.506 v 1.459 l -0.639,-0.37 v -1.459 l -0.818,0.557 -0.453,-0.832 0.819,-0.557 -1.156,-0.671 v -0.807 l 1.156,0.671 -0.819,-1.505 0.453,-0.309 0.818,1.506 v -1.459 l 0.639,0.37 v 1.459 l 0.818,-0.558 0.451,0.832 -0.817,0.558 1.156,0.67 z" /></g><g
           transform="translate(42.0684,42.0968)"
           id="g268"><path
             id="path270"
             style="fill:#6a6c6d;fill-opacity:1;fill-rule:nonzero;stroke:none"
             d="M 0,0 0.253,-0.125 V -1.584 L 0,-1.459 Z" /></g><g
           transform="translate(42.96,42.3419)"
           id="g272"><path
             id="path274"
             style="fill:#c6c4c4;fill-opacity:1;fill-rule:nonzero;stroke:none"
             d="m 0,0 -0.639,-0.371 -0.253,0.126 0.639,0.37 z" /></g><g
           transform="translate(43.5254,42.5138)"
           id="g276"><path
             id="path278"
             style="fill:#9e9e9e;fill-opacity:1;fill-rule:nonzero;stroke:none"
             d="m 0,0 0.252,-0.125 -0.817,-1.506 -0.253,0.125 z" /></g><g
           transform="translate(44.5684,41.2452)"
           id="g280"><path
             id="path282"
             style="fill:#c6c4c4;fill-opacity:1;fill-rule:nonzero;stroke:none"
             d="m 0,0 -0.253,0.125 -1.156,-0.67 0.253,-0.125 z" /></g><g
           transform="translate(41.0508,40.2384)"
           id="g284"><path
             id="path286"
             style="fill:#6a6c6d;fill-opacity:1;fill-rule:nonzero;stroke:none"
             d="M 0,0 0.818,-0.558 0.565,-0.433 -0.253,0.125 Z" /></g><g
           transform="translate(41.5029,41.0704)"
           id="g288"><path
             id="path290"
             style="fill:#c6c4c4;fill-opacity:1;fill-rule:nonzero;stroke:none"
             d="m 0,0 -0.253,0.125 -0.452,-0.832 0.253,-0.125 z" /></g><g
           transform="translate(40.7119,39.0103)"
           id="g292"><path
             id="path294"
             style="fill:#9e9e9e;fill-opacity:1;fill-rule:nonzero;stroke:none"
             d="M 0,0 -0.252,0.125 V -0.682 L 0,-0.807 Z" /></g><g
           transform="translate(41.8691,39.6803)"
           id="g296"><path
             id="path298"
             style="fill:#c6c4c4;fill-opacity:1;fill-rule:nonzero;stroke:none"
             d="m 0,0 -0.253,0.125 -1.156,-0.67 0.252,-0.125 z" /></g><g
           transform="translate(41.0508,37.3687)"
           id="g300"><path
             id="path302"
             style="fill:#9e9e9e;fill-opacity:1;fill-rule:nonzero;stroke:none"
             d="M 0,0 -0.253,0.125 0.565,1.63 0.818,1.505 Z" /></g><g
           transform="translate(41.5029,37.0602)"
           id="g304"><path
             id="path306"
             style="fill:#595959;fill-opacity:1;fill-rule:nonzero;stroke:none"
             d="M 0,0 -0.253,0.125 -0.705,0.434 -0.452,0.309 Z" /></g><g
           transform="translate(42.3213,37.107)"
           id="g308"><path
             id="path310"
             style="fill:#9e9e9e;fill-opacity:1;fill-rule:nonzero;stroke:none"
             d="M 0,0 -0.253,0.125 V 1.584 L 0,1.459 Z" /></g><g
           transform="translate(43.7773,38.3785)"
           id="g312"><path
             id="path314"
             style="fill:#595959;fill-opacity:1;fill-rule:nonzero;stroke:none"
             d="M 0,0 -0.252,0.125 -1.07,0.683 -0.817,0.558 Z" /></g><g
           transform="translate(44.5684,41.2452)"
           id="g316"><path
             id="path318"
             style="fill:#ffffff;fill-opacity:1;fill-rule:nonzero;stroke:none"
             d="m 0,0 -1.156,-0.67 0.817,1.505 -0.452,0.309 -0.817,-1.506 V 1.097 L -2.247,0.726 v -1.458 l -0.818,0.557 -0.453,-0.832 0.819,-0.558 -1.157,-0.67 v -0.807 l 1.157,0.671 -0.819,-1.505 0.453,-0.309 0.818,1.506 v -1.459 l 0.639,0.37 v 1.459 l 0.817,-0.558 0.452,0.832 -0.817,0.558 1.156,0.67 z" /></g><g
           transform="translate(49.0605,44.106)"
           id="g320"><path
             id="path322"
             style="fill:#595959;fill-opacity:1;fill-rule:nonzero;stroke:none"
             d="m 0,0 -1.157,-0.67 0.818,1.505 -0.452,0.309 -0.817,-1.506 v 1.459 l -0.64,-0.37 v -1.459 l -0.818,0.557 -0.452,-0.832 0.818,-0.557 -1.156,-0.671 v -0.806 l 1.156,0.67 -0.818,-1.505 0.452,-0.309 0.818,1.506 v -1.459 l 0.64,0.37 v 1.459 l 0.817,-0.557 0.452,0.832 -0.818,0.557 1.157,0.67 z" /></g><g
           transform="translate(46.8125,44.8326)"
           id="g324"><path
             id="path326"
             style="fill:#6a6c6d;fill-opacity:1;fill-rule:nonzero;stroke:none"
             d="M 0,0 0.253,-0.125 V -1.584 L 0,-1.459 Z" /></g><g
           transform="translate(47.7041,45.0782)"
           id="g328"><path
             id="path330"
             style="fill:#c6c4c4;fill-opacity:1;fill-rule:nonzero;stroke:none"
             d="m 0,0 -0.639,-0.371 -0.253,0.125 0.64,0.371 z" /></g><g
           transform="translate(48.2695,45.2496)"
           id="g332"><path
             id="path334"
             style="fill:#9e9e9e;fill-opacity:1;fill-rule:nonzero;stroke:none"
             d="M 0,0 0.253,-0.125 -0.565,-1.63 -0.817,-1.505 Z" /></g><g
           transform="translate(49.3125,43.981)"
           id="g336"><path
             id="path338"
             style="fill:#c6c4c4;fill-opacity:1;fill-rule:nonzero;stroke:none"
             d="m 0,0 -0.252,0.125 -1.157,-0.67 0.253,-0.125 z" /></g><g
           transform="translate(45.7959,42.9742)"
           id="g340"><path
             id="path342"
             style="fill:#6a6c6d;fill-opacity:1;fill-rule:nonzero;stroke:none"
             d="M 0,0 0.817,-0.558 0.564,-0.433 -0.253,0.125 Z" /></g><g
           transform="translate(46.2471,43.8062)"
           id="g344"><path
             id="path346"
             style="fill:#c6c4c4;fill-opacity:1;fill-rule:nonzero;stroke:none"
             d="m 0,0 -0.253,0.125 -0.451,-0.832 0.253,-0.125 z" /></g><g
           transform="translate(45.457,41.7462)"
           id="g348"><path
             id="path350"
             style="fill:#9e9e9e;fill-opacity:1;fill-rule:nonzero;stroke:none"
             d="M 0,0 -0.253,0.125 V -0.681 L 0,-0.806 Z" /></g><g
           transform="translate(46.6133,42.4166)"
           id="g352"><path
             id="path354"
             style="fill:#c6c4c4;fill-opacity:1;fill-rule:nonzero;stroke:none"
             d="m 0,0 -0.253,0.125 -1.156,-0.67 0.253,-0.125 z" /></g><g
           transform="translate(45.7959,40.1046)"
           id="g356"><path
             id="path358"
             style="fill:#9e9e9e;fill-opacity:1;fill-rule:nonzero;stroke:none"
             d="M 0,0 -0.253,0.125 0.564,1.63 0.817,1.505 Z" /></g><g
           transform="translate(46.2471,39.7965)"
           id="g360"><path
             id="path362"
             style="fill:#595959;fill-opacity:1;fill-rule:nonzero;stroke:none"
             d="M 0,0 -0.253,0.125 -0.704,0.433 -0.451,0.308 Z" /></g><g
           transform="translate(47.0654,39.8429)"
           id="g364"><path
             id="path366"
             style="fill:#9e9e9e;fill-opacity:1;fill-rule:nonzero;stroke:none"
             d="M 0,0 -0.253,0.125 V 1.584 L 0,1.459 Z" /></g><g
           transform="translate(48.5225,41.1148)"
           id="g368"><path
             id="path370"
             style="fill:#595959;fill-opacity:1;fill-rule:nonzero;stroke:none"
             d="M 0,0 -0.253,0.125 -1.07,0.683 -0.818,0.558 Z" /></g><g
           transform="translate(49.3125,43.981)"
           id="g372"><path
             id="path374"
             style="fill:#ffffff;fill-opacity:1;fill-rule:nonzero;stroke:none"
             d="m 0,0 -1.156,-0.67 0.818,1.505 -0.452,0.309 -0.818,-1.506 v 1.459 l -0.639,-0.37 v -1.459 l -0.818,0.557 -0.452,-0.832 0.818,-0.557 -1.156,-0.671 v -0.806 l 1.156,0.67 -0.818,-1.505 0.452,-0.309 0.818,1.506 v -1.459 l 0.639,0.37 v 1.459 l 0.818,-0.557 0.452,0.832 -0.818,0.557 1.156,0.67 z" /></g><g
           transform="translate(53.8047,46.8419)"
           id="g376"><path
             id="path378"
             style="fill:#595959;fill-opacity:1;fill-rule:nonzero;stroke:none"
             d="m 0,0 -1.156,-0.67 0.817,1.505 -0.452,0.309 -0.817,-1.506 v 1.459 l -0.64,-0.37 v -1.459 l -0.817,0.558 -0.453,-0.833 0.818,-0.557 -1.156,-0.67 v -0.807 l 1.156,0.67 -0.818,-1.505 0.453,-0.309 0.817,1.506 v -1.459 l 0.64,0.37 v 1.459 l 0.817,-0.557 0.452,0.832 -0.817,0.557 L 0,-0.806 Z" /></g><g
           transform="translate(51.5566,47.5685)"
           id="g380"><path
             id="path382"
             style="fill:#6a6c6d;fill-opacity:1;fill-rule:nonzero;stroke:none"
             d="M 0,0 0.253,-0.125 V -1.584 L 0,-1.459 Z" /></g><g
           transform="translate(52.4492,47.8141)"
           id="g384"><path
             id="path386"
             style="fill:#c6c4c4;fill-opacity:1;fill-rule:nonzero;stroke:none"
             d="m 0,0 -0.64,-0.371 -0.253,0.125 0.64,0.371 z" /></g><g
           transform="translate(53.0137,47.9854)"
           id="g388"><path
             id="path390"
             style="fill:#9e9e9e;fill-opacity:1;fill-rule:nonzero;stroke:none"
             d="M 0,0 0.253,-0.125 -0.564,-1.63 -0.817,-1.505 Z" /></g><g
           transform="translate(54.0576,46.7169)"
           id="g392"><path
             id="path394"
             style="fill:#c6c4c4;fill-opacity:1;fill-rule:nonzero;stroke:none"
             d="m 0,0 -0.253,0.125 -1.156,-0.67 0.253,-0.125 z" /></g><g
           transform="translate(50.54,45.7101)"
           id="g396"><path
             id="path398"
             style="fill:#6a6c6d;fill-opacity:1;fill-rule:nonzero;stroke:none"
             d="M 0,0 0.817,-0.558 0.564,-0.433 -0.253,0.125 Z" /></g><g
           transform="translate(50.9922,46.5421)"
           id="g400"><path
             id="path402"
             style="fill:#c6c4c4;fill-opacity:1;fill-rule:nonzero;stroke:none"
             d="m 0,0 -0.253,0.125 -0.452,-0.832 0.253,-0.125 z" /></g><g
           transform="translate(50.2012,44.482)"
           id="g404"><path
             id="path406"
             style="fill:#9e9e9e;fill-opacity:1;fill-rule:nonzero;stroke:none"
             d="M 0,0 -0.253,0.125 V -0.681 L 0,-0.806 Z" /></g><g
           transform="translate(51.3574,45.1524)"
           id="g408"><path
             id="path410"
             style="fill:#c6c4c4;fill-opacity:1;fill-rule:nonzero;stroke:none"
             d="m 0,0 -0.253,0.125 -1.156,-0.67 0.253,-0.125 z" /></g><g
           transform="translate(50.54,42.8404)"
           id="g412"><path
             id="path414"
             style="fill:#9e9e9e;fill-opacity:1;fill-rule:nonzero;stroke:none"
             d="M 0,0 -0.253,0.125 0.564,1.631 0.817,1.506 Z" /></g><g
           transform="translate(50.9922,42.5323)"
           id="g416"><path
             id="path418"
             style="fill:#595959;fill-opacity:1;fill-rule:nonzero;stroke:none"
             d="M 0,0 -0.253,0.125 -0.705,0.433 -0.452,0.308 Z" /></g><g
           transform="translate(51.8096,42.5787)"
           id="g420"><path
             id="path422"
             style="fill:#9e9e9e;fill-opacity:1;fill-rule:nonzero;stroke:none"
             d="M 0,0 -0.253,0.125 V 1.584 L 0,1.459 Z" /></g><g
           transform="translate(53.2666,43.8507)"
           id="g424"><path
             id="path426"
             style="fill:#595959;fill-opacity:1;fill-rule:nonzero;stroke:none"
             d="M 0,0 -0.253,0.125 -1.07,0.683 -0.817,0.558 Z" /></g><g
           transform="translate(54.0576,46.7169)"
           id="g428"><path
             id="path430"
             style="fill:#ffffff;fill-opacity:1;fill-rule:nonzero;stroke:none"
             d="m 0,0 -1.156,-0.67 0.817,1.505 -0.452,0.309 -0.817,-1.506 v 1.459 l -0.64,-0.37 v -1.459 l -0.817,0.557 -0.453,-0.832 0.818,-0.557 -1.156,-0.671 v -0.806 l 1.156,0.67 -0.818,-1.505 0.453,-0.309 0.817,1.506 v -1.459 l 0.64,0.37 v 1.459 l 0.817,-0.557 0.452,0.832 -0.817,0.557 L 0,-0.806 Z" /></g><g
           transform="translate(58.5488,49.5782)"
           id="g432"><path
             id="path434"
             style="fill:#595959;fill-opacity:1;fill-rule:nonzero;stroke:none"
             d="M 0,0 -1.156,-0.67 -0.339,0.835 -0.79,1.143 -1.608,-0.362 V 1.097 L -2.247,0.726 v -1.458 l -0.818,0.557 -0.453,-0.832 0.819,-0.558 -1.157,-0.67 v -0.807 l 1.157,0.671 -0.819,-1.506 0.453,-0.308 0.818,1.506 v -1.459 l 0.639,0.37 v 1.459 l 0.818,-0.558 0.451,0.832 -0.817,0.558 1.156,0.67 z" /></g><g
           transform="translate(56.3018,50.3043)"
           id="g436"><path
             id="path438"
             style="fill:#6a6c6d;fill-opacity:1;fill-rule:nonzero;stroke:none"
             d="M 0,0 0.252,-0.125 V -1.583 L 0,-1.458 Z" /></g><g
           transform="translate(57.1934,50.5499)"
           id="g440"><path
             id="path442"
             style="fill:#c6c4c4;fill-opacity:1;fill-rule:nonzero;stroke:none"
             d="m 0,0 -0.64,-0.37 -0.252,0.124 0.639,0.371 z" /></g><g
           transform="translate(57.7588,50.7213)"
           id="g444"><path
             id="path446"
             style="fill:#9e9e9e;fill-opacity:1;fill-rule:nonzero;stroke:none"
             d="M 0,0 0.252,-0.125 -0.565,-1.63 -0.818,-1.505 Z" /></g><g
           transform="translate(58.8018,49.4532)"
           id="g448"><path
             id="path450"
             style="fill:#c6c4c4;fill-opacity:1;fill-rule:nonzero;stroke:none"
             d="m 0,0 -0.253,0.125 -1.156,-0.67 0.253,-0.125 z" /></g><g
           transform="translate(55.2842,48.4464)"
           id="g452"><path
             id="path454"
             style="fill:#6a6c6d;fill-opacity:1;fill-rule:nonzero;stroke:none"
             d="M 0,0 0.818,-0.558 0.565,-0.433 -0.253,0.125 Z" /></g><g
           transform="translate(55.7363,49.2784)"
           id="g456"><path
             id="path458"
             style="fill:#c6c4c4;fill-opacity:1;fill-rule:nonzero;stroke:none"
             d="m 0,0 -0.253,0.125 -0.452,-0.833 0.253,-0.124 z" /></g><g
           transform="translate(54.9453,47.2184)"
           id="g460"><path
             id="path462"
             style="fill:#9e9e9e;fill-opacity:1;fill-rule:nonzero;stroke:none"
             d="M 0,0 -0.253,0.125 V -0.682 L 0,-0.807 Z" /></g><g
           transform="translate(56.1025,47.8883)"
           id="g464"><path
             id="path466"
             style="fill:#c6c4c4;fill-opacity:1;fill-rule:nonzero;stroke:none"
             d="M 0,0 -0.253,0.125 -1.41,-0.545 -1.157,-0.67 Z" /></g><g
           transform="translate(55.2842,45.5768)"
           id="g468"><path
             id="path470"
             style="fill:#9e9e9e;fill-opacity:1;fill-rule:nonzero;stroke:none"
             d="M 0,0 -0.253,0.125 0.565,1.63 0.818,1.505 Z" /></g><g
           transform="translate(55.7363,45.2682)"
           id="g472"><path
             id="path474"
             style="fill:#595959;fill-opacity:1;fill-rule:nonzero;stroke:none"
             d="M 0,0 -0.253,0.125 -0.705,0.433 -0.452,0.309 Z" /></g><g
           transform="translate(56.5537,45.315)"
           id="g476"><path
             id="path478"
             style="fill:#9e9e9e;fill-opacity:1;fill-rule:nonzero;stroke:none"
             d="M 0,0 -0.252,0.125 V 1.584 L 0,1.459 Z" /></g><g
           transform="translate(58.0107,46.5865)"
           id="g480"><path
             id="path482"
             style="fill:#595959;fill-opacity:1;fill-rule:nonzero;stroke:none"
             d="M 0,0 -0.252,0.125 -1.07,0.683 -0.817,0.558 Z" /></g><g
           transform="translate(58.8018,49.4532)"
           id="g484"><path
             id="path486"
             style="fill:#ffffff;fill-opacity:1;fill-rule:nonzero;stroke:none"
             d="m 0,0 -1.156,-0.67 0.817,1.505 -0.452,0.309 -0.817,-1.506 v 1.459 l -0.64,-0.37 v -1.459 l -0.817,0.557 -0.453,-0.832 0.819,-0.558 -1.157,-0.67 v -0.807 l 1.157,0.671 -0.819,-1.505 0.453,-0.309 0.817,1.506 v -1.459 l 0.64,0.37 v 1.459 l 0.817,-0.558 0.452,0.832 -0.817,0.558 1.156,0.67 z" /></g></g></g></g></svg>