<svg height="512" viewBox="0 0 60 60" width="512" style="fill: #fed851;" xmlns="http://www.w3.org/2000/svg"><g id="029---Courts" transform="translate(-1)"><path id="Shape" d="m60.19 3.071c-1.1555332-1.50694692-3.189916-2.0314298-4.93-1.271-.532.18-3.118 1.07-16.26 5.588v-2.435c-.0047911-.03096506-.0111324-.06167031-.019-.092-.198-3.336-7.332-4.861-13.981-4.861s-13.784 1.525-13.981 4.861c-.0082445.03024072-.0145902.06096733-.019.092v4.24c.0380324.8956393.5100711 1.7165762 1.265 2.2.8345713.5792845 1.7585004 1.0177708 2.735 1.298v8.7c-3.282 1.109-4 2.558-4 3.609v4c0 3.283 7.043 5 14 5s14-1.717 14-5v-4c0-1.051-.718-2.5-4-3.613v-2.72l24.059-10c.034-.01533333.0673333-.03133333.1-.048.9109876-.49720926 1.5555912-1.37168849 1.761-2.389.2281407-1.10906041-.0383979-2.26247908-.73-3.159zm-35.19-1.071c7.444 0 12 1.942 12 3s-4.556 3-12 3-12-1.942-12-3 4.556-3 12-3zm-12 7.193v-1.451c2.621 1.535 7.426 2.258 12 2.258s9.379-.723 12-2.258v1.451c0 .284-.8 1.1-3.269 1.8-6.784 1.891-17.5.9-20.256-1.187-.302-.231-.475-.454-.475-.613zm12.107 4.8c2.6505946.0202055 5.2960192-.2371981 7.893-.768v9.726c-.895.44-3.622 1.049-8 1.049s-7.1-.609-8-1.048v-9.738c2.6687197.5354002 5.3851555.796757 8.107.78zm-.107 18.007c-7.444 0-12-1.942-12-3v-1.258c2.621 1.535 7.426 2.258 12 2.258s9.379-.723 12-2.258v1.258c0 1.058-4.556 3-12 3zm12-7c0 1.058-4.556 3-12 3s-12-1.942-12-3c0-.3.579-.895 2.012-1.478.0116035.2318751.1035254.4524879.26.624 1.291 1.369 6.047 1.854 9.728 1.854s8.437-.485 9.728-1.854c.1566883-.1717732.2486256-.3927762.26-.625 1.433.584 2.012 1.179 2.012 1.479zm21.962-19.182c-.0839253.42971267-.3493028.80226186-.728 1.022l-23.234 9.66v-3.816c2.443-.8 3.77-1.868 3.958-3.168 3.123-1.074 16.905-5.816 17.013-5.849.031-.011.062-.024.092-.038.8964979-.38444241 1.939506-.11526577 2.538.655.3345431.43600159.4659905.99456189.361 1.534z"/><path id="Shape" d="m6 38c.4043959-.0000863.76893405-.2437275.92367798-.6173454.15474393-.373618.06922994-.8036603-.21667798-1.0896546l-4-4c-.25107447-.2599566-.62287789-.3642126-.97250732-.2726972-.34962944.0915155-.6226744.3645604-.71418984.7141899-.09151544.3496294.01274058.7214328.27269716.9725073l4 4c.18749273.1875494.44180519.2929434.707.293z"/><path id="Shape" d="m9.132 35.5c.17863279.3101065.50913617.5013573.8670127.5017101.3578765.0003527.6887563-.1902462.868-.5.1792437-.3097539.1796201-.6916036.0009873-1.0017101l-4-7c-.17254611-.3192653-.50451883-.5199915-.8673996-.5244702s-.69970638.187993-.88007957.5029026c-.18037318.3149095-.17597986.7028239.01147917 1.0135676z"/><path id="Shape" d="m47.293 32.293-4 4c-.2599566.2510745-.3642126.6228779-.2726972.9725073.0915155.3496295.3645604.6226744.7141899.7141899.3496294.0915154.7214328-.0127406.9725073-.2726972l4-4c.3789722-.3923789.3735524-1.0160848-.0121814-1.4018186s-1.0094397-.3911536-1.4018186-.0121814z"/><path id="Shape" d="m40 36c.3583279.001065.6898369-.1896767.869-.5l4-7c.2582022-.4777563.0879105-1.0742611-.3836019-1.3436968-.4715123-.2694356-1.0718799-.1133075-1.3523981.3516968l-4 7c-.2737673.4794043-.1072509 1.0899643.372 1.364.1509108.0853602.3216271.129505.495.128z"/><path id="Shape" d="m47.787 49.15c-.0103906-.0244489-.0224179-.0481693-.036-.071l-3.009-6.162c-.014-.029-.041-.048-.058-.076-1.766-3.182-10.772-4.841-19.684-4.841s-17.919 1.659-19.684 4.842c-.02073986.02388-.04010448.0489204-.058.075l-3.069 6.283-.009.021c-.00968534.0188604-.01836418.0382209-.026.058-.10091948.2270071-.15337018.4725718-.154.721v5c0 4.943 22.061 5 23 5s23-.057 23-5v-5c-.0021002-.2870696-.0705497-.5697658-.2-.826zm-22.787-9.15c11.646 0 18 2.643 18 4s-6.354 4-18 4-18-2.643-18-4 6.354-4 18-4zm-19.022 6c2.758 2.634 10.93 4 19.022 4s16.264-1.366 19.022-4l1.949 3.991c-.818 1.116-8.26 3.009-20.971 3.009s-20.153-1.893-20.971-3.009zm19.022 12c-12.982 0-20.471-1.975-21-3v-2.726c5.452 2.688 20.235 2.726 21 2.726s15.56-.039 21.007-2.729l.008 2.648c-.544 1.106-8.033 3.081-21.015 3.081z"/></g></svg>