<?xml version="1.0"?>
<svg xmlns="http://www.w3.org/2000/svg" viewBox="0 0 512 512" width="512" height="512"><g id="outline" style="fill: #fed851;"><path d="M472,352h-8V288a24.028,24.028,0,0,0-24-24H424a8,8,0,0,0-8,8v16H312a8,8,0,0,0-8,8v29.735a63.849,63.849,0,0,0-46.562-21.7l6.454-38.721A8,8,0,0,0,256,256V192.5a63.6,63.6,0,0,1,46.331,29.806,20.947,20.947,0,0,0,35.339,0,63.8,63.8,0,0,1,97.814-13.156,8,8,0,0,0,13.162-7.966A209.408,209.408,0,0,0,375.265,91.5,205.494,205.494,0,0,0,272,49.367V40a24.114,24.114,0,0,0-24-24,24.028,24.028,0,0,0-24,24v9.363A205.494,205.494,0,0,0,120.735,91.5,209.408,209.408,0,0,0,47.354,201.185a8,8,0,0,0,13.162,7.966,63.8,63.8,0,0,1,97.815,13.156,20.947,20.947,0,0,0,35.339,0A63.6,63.6,0,0,1,240,192.5V256H192a8,8,0,0,0-7.892,9.315l6.454,38.721A64.091,64.091,0,0,0,132.8,343.716a31.973,31.973,0,0,0-52.479,28.778,31.982,31.982,0,0,0-43.6,44.218A8,8,0,0,0,32,424v64a8,8,0,0,0,8,8H472a8,8,0,0,0,8-8V360A8,8,0,0,0,472,352ZM240,40a8.009,8.009,0,0,1,8-8,7.656,7.656,0,0,1,5.546,2.3c.051.053.1.1.155.156A7.655,7.655,0,0,1,256,40v8.155q-3.987-.148-8-.155t-8,.155ZM180.077,213.866a4.955,4.955,0,0,1-8.153,0,79.807,79.807,0,0,0-101.73-30.335,192.014,192.014,0,0,1,355.612,0,79.806,79.806,0,0,0-101.729,30.335,4.955,4.955,0,0,1-8.153,0,79.858,79.858,0,0,0-135.847,0ZM464,376v40H416V400h24A24.027,24.027,0,0,0,464,376Zm-64,24v16H384V400Zm-32,16H320V400l48,0Zm-33.344,52.437A7.969,7.969,0,0,0,336,464h32v16H326.948ZM323.314,448,320,444.69V432h48v16ZM384,432h16v16H384Zm32,0h48v16H416Zm16-152h8a8.009,8.009,0,0,1,8,8v65.371A23.882,23.882,0,0,0,440,352h-8ZM320,304h96v56a8,8,0,0,0,8,8h16a8,8,0,0,1,0,16l-120,0Zm-73.443-32-5.334,32H206.777l-5.334-32ZM48,432H80v16H48Zm80-32v16H96V400ZM96,432h32V444.69L124.686,448H96Zm16-80a16,16,0,1,1-16,16A16.019,16.019,0,0,1,112,352ZM64,384a16,16,0,1,1-16,16A16.019,16.019,0,0,1,64,384ZM48,464H80v16H48Zm48,0h16a7.969,7.969,0,0,0,1.34,4.437L121.052,480H96Zm211.719,16H264.76a60.06,60.06,0,0,0,12.706-17.044l1.689-3.378-14.31-7.156-1.69,3.379a43.776,43.776,0,0,1-78.31,0l-1.69-3.378-14.31,7.156,1.689,3.378A60.088,60.088,0,0,0,183.24,480H140.281l-9.987-14.981,11.363-11.362A8,8,0,0,0,144,448V368a48.055,48.055,0,0,1,48-48h64a48.055,48.055,0,0,1,48,48v80a8,8,0,0,0,2.343,5.657l11.363,11.362ZM384,480V464h16v16Zm80,0H416V464h48Z"/><path d="M376,368a24,24,0,1,0-24-24A24.027,24.027,0,0,0,376,368Zm0-32a8,8,0,1,1-8,8A8.009,8.009,0,0,1,376,336Z"/><path d="M232,344.132V336H216v8.128a26.6,26.6,0,0,0-5.813,51.7l22.567,7.522A10.6,10.6,0,0,1,229.4,424H218.6a10.609,10.609,0,0,1-10.6-10.6V408H192v5.4a26.631,26.631,0,0,0,24,26.467V448h16v-8.129a26.595,26.595,0,0,0,5.813-51.7l-22.567-7.523A10.6,10.6,0,0,1,218.6,360H229.4A10.608,10.608,0,0,1,240,370.6V376h16v-5.4A26.633,26.633,0,0,0,232,344.132Z"/><path d="M139.042,117.777l9.912,12.56a159.147,159.147,0,0,1,83.8-33.617l-1.506-15.928A175.11,175.11,0,0,0,139.042,117.777Z"/><path d="M356.958,117.777A176.2,176.2,0,0,0,282.169,83.32l-3.09,15.7a160.15,160.15,0,0,1,67.967,31.317Z"/><path d="M102.782,156.539l13.194,9.051a161.2,161.2,0,0,1,20.049-23.874l-11.2-11.428A177.171,177.171,0,0,0,102.782,156.539Z"/><path d="M393.216,156.535a177.216,177.216,0,0,0-22.044-26.247l-11.2,11.428a161.313,161.313,0,0,1,20.048,23.871Z"/></g></svg>
