<svg height="382pt" viewBox="-21 0 382 382.29333" width="382pt" style="fill: #fed851;" xmlns="http://www.w3.org/2000/svg"><path d="m279.726562 370.207031c-1.550781 0-3.113281-.527343-4.390624-1.605469-2.882813-2.425781-3.253907-6.734374-.828126-9.613281.96875-1.148437 1.59375-2.488281 1.871094-3.980469l51.273438-276.832031c.871094-4.695312-2.242188-9.222656-6.9375-10.09375l-41.714844-7.726562c-3.707031-.6875-6.15625-4.246094-5.46875-7.953125.6875-3.714844 4.214844-6.199219 7.957031-5.472656l41.714844 7.722656c12.097656 2.246094 20.117187 13.914062 17.878906 26l-51.273437 276.835937c-.699219 3.792969-2.378906 7.351563-4.851563 10.285157-1.351562 1.605468-3.289062 2.433593-5.230469 2.433593zm0 0"/><path d="m264.554688 382.292969h-242.09375c-12.304688 0-22.3125-10.003907-22.3125-22.3125v-337.667969c0-12.304688 10.007812-22.3125 22.3125-22.3125h242.09375c12.300781 0 22.3125 10.007812 22.3125 22.3125v337.667969c0 12.308593-10.011719 22.3125-22.3125 22.3125zm-242.09375-368.640625c-4.777344 0-8.660157 3.886718-8.660157 8.660156v337.667969c0 4.773437 3.882813 8.660156 8.660157 8.660156h242.09375c4.777343 0 8.660156-3.886719 8.660156-8.660156v-337.667969c0-4.773438-3.882813-8.660156-8.660156-8.660156zm0 0"/><path d="m232.253906 259.414062h-177.492187c-3.773438 0-6.828125-3.054687-6.828125-6.828124v-22.226563c0-19.085937 21.109375-32.386719 40.058594-32.386719h22.671874c3.769532 0 6.828126 3.054688 6.828126 6.828125 0 3.773438-3.058594 6.824219-6.828126 6.824219h-22.671874c-13.328126 0-26.40625 9.28125-26.40625 18.734375v15.402344h163.839843v-18.328125c0-7.980469-11.386719-15.808594-22.988281-15.808594h-27.207031c-3.769531 0-6.828125-3.050781-6.828125-6.824219 0-3.773437 3.058594-6.828125 6.828125-6.828125h27.207031c17.332031 0 36.640625 12.101563 36.640625 29.460938v25.152344c0 3.773437-3.054687 6.828124-6.824219 6.828124zm0 0"/><path d="m204.953125 153.601562c-.1875 0-.375-.007812-.5625-.023437-3.761719-.3125-6.558594-3.605469-6.246094-7.363281l3.414063-41.667969c-.023438-23.519531-18.214844-43.105469-40.570313-43.105469h-34.960937c-22.359375 0-40.546875 19.585938-40.546875 43.664063l3.390625 41.109375c.308594 3.757812-2.488282 7.050781-6.25 7.363281-3.757813.253906-7.046875-2.484375-7.355469-6.246094l-3.414063-41.664062c-.023437-32.167969 24.289063-57.882813 54.175782-57.882813h34.960937c29.886719 0 54.199219 25.714844 54.199219 57.320313l-3.4375 42.226562c-.292969 3.566407-3.277344 6.269531-6.796875 6.269531zm0 0"/><path d="m143.507812 218.453125c-19.695312 0-37.570312-7.289063-47.820312-19.5-12.421875-14.8125-20.449219-35.40625-20.449219-52.464844v-27.515625c0-11.605468.265625-18.320312 5.664063-21.296875 4.816406-2.695312 9.375.199219 13.390625 2.71875 5.335937 3.367188 13.40625 8.445313 26.578125 8.445313 10.632812 0 23.425781-3.25 35.792968-6.390625 19.984376-5.082031 37.230469-9.453125 47.660157-1.355469 4.941406 3.847656 7.449219 9.859375 7.449219 17.882812v27.511719c0 17.058594-8.027344 37.652344-20.449219 52.464844-10.246094 12.210937-28.125 19.5-47.816407 19.5zm-54.539062-105.285156c-.042969 1.527343-.074219 3.425781-.074219 5.804687v27.515625c0 13.824219 6.933594 31.386719 17.253907 43.691407 7.570312 9.019531 21.882812 14.621093 37.359374 14.621093 15.472657 0 29.785157-5.601562 37.355469-14.621093 10.320313-12.304688 17.257813-29.867188 17.257813-43.691407v-27.515625c0-3.585937-.734375-5.980468-2.179688-7.097656-5.15625-4.015625-21.496094.152344-35.914062 3.804688-13.183594 3.347656-26.808594 6.8125-39.15625 6.8125-15.363282 0-25.710938-5.527344-31.902344-9.324219zm0 0"/><path d="m211.773438 314.027344h-143.359376c-3.769531 0-6.828124-3.054688-6.828124-6.828125 0-3.773438 3.058593-6.824219 6.828124-6.824219h143.359376c3.769531 0 6.828124 3.050781 6.828124 6.824219 0 3.773437-3.058593 6.828125-6.828124 6.828125zm0 0"/><path d="m143.507812 341.332031h-75.09375c-3.769531 0-6.828124-3.050781-6.828124-6.824219 0-3.773437 3.058593-6.828124 6.828124-6.828124h75.09375c3.769532 0 6.824219 3.054687 6.824219 6.828124 0 3.773438-3.054687 6.824219-6.824219 6.824219zm0 0"/></svg>