<svg height="511pt" viewBox="-45 1 511 511.9995" width="511pt" style="fill: #fed851;" xmlns="http://www.w3.org/2000/svg"><path d="m420.5 90c0-4.890625-3.535156-9.0625-8.355469-9.863281l-21.359375-3.5625c-62.957031-10.492188-123.222656-36.277344-174.285156-74.574219-3.554688-2.667969-8.445312-2.667969-12 0-51.0625 38.296875-111.328125 64.082031-174.285156 74.574219l-21.359375 3.5625c-4.820313.800781-8.355469 4.972656-8.355469 9.863281v76c0 103.566406 29.6875 202 102.898438 275.8125 51.082031 51.496094 101.78125 68.949219 103.914062 69.664062 1.03125.351563 2.109375.523438 3.1875.523438 1.074219 0 2.152344-.175781 3.1875-.523438 2.132812-.714843 52.832031-18.167968 103.910156-69.664062 73.226563-73.824219 102.902344-172.265625 102.902344-275.8125zm-20 76c0 108.292969-32.433594 196.113281-96.398438 261.019531-40.730468 41.332031-82.015624 59.679688-93.601562 64.292969-11.601562-4.621094-52.878906-22.972656-93.601562-64.292969-63.964844-64.90625-96.398438-152.726562-96.398438-261.019531v-67.53125l13.003906-2.164062c63.652344-10.609376 124.6875-36.109376 176.996094-73.890626 52.308594 37.78125 113.339844 63.28125 176.996094 73.890626l13.003906 2.164062zm0 0"/><path d="m54.300781 225.25c3.640625-1.5 6.199219-5.082031 6.199219-9.25 0-4.941406-3.589844-9.050781-8.300781-9.851562-.550781-.097657-1.121094-.148438-1.699219-.148438-5.519531 0-10 4.480469-10 10s4.480469 10 10 10c1.351562 0 2.628906-.273438 3.800781-.75zm0 0"/><path d="m372.414062 113.894531c-55.140624-10.757812-109.242187-32.703125-156.453124-63.472656-3.320313-2.164063-7.605469-2.164063-10.921876 0-47.707031 31.109375-100.347656 52.464844-156.464843 63.476563-4.691407.917968-8.074219 5.03125-8.074219 9.8125 0 0 .03125 49.238281.101562 52.5.113282 5.449218 4.566407 9.789062 9.996094 9.789062.070313 0 .140625 0 .210938-.003906 5.523437-.113282 9.90625-4.6875 9.789062-10.207032-.066406-3.117187-.097656-43.925781-.097656-43.925781 53.507812-11.46875 103.902344-32.023437 150.003906-61.183593 45.703125 28.855468 97.269532 49.886718 149.996094 61.191406v34.128906c0 149.882812-73.777344 245.691406-150.046875 282.109375-62.582031-29.964844-120.714844-100.503906-141.1875-195.242187-1.167969-5.398438-6.484375-8.824219-11.890625-7.660157-5.394531 1.164063-8.828125 6.488281-7.660156 11.886719 22.609375 104.617188 88.804687 181.195312 156.703125 211.175781 1.289062.566407 2.664062.851563 4.039062.851563 1.390625 0 2.78125-.289063 4.078125-.867188 86.492188-38.601562 165.964844-143.898437 165.964844-302.253906v-42.289062c0-4.789063-3.390625-8.902344-8.085938-9.816407zm0 0"/><path d="m210.5 246c-16.542969 0-30 13.457031-30 30s13.457031 30 30 30 30-13.457031 30-30-13.457031-30-30-30zm0 40c-5.515625 0-10-4.488281-10-10 0-5.515625 4.484375-10 10-10s10 4.484375 10 10c0 5.511719-4.488281 10-10 10zm0 0"/><path d="m210.5 146c-27.570312 0-50 22.429688-50 50v10h-10c-5.523438 0-10 4.476562-10 10v120c0 5.523438 4.476562 10 10 10h120c5.523438 0 10-4.476562 10-10v-120c0-5.523438-4.476562-10-10-10h-10v-10c0-27.570312-22.429688-50-50-50zm-30 50c0-16.542969 13.457031-30 30-30s30 13.457031 30 30v10h-60zm80 130h-100v-100h100zm0 0"/></svg>