<svg xmlns="http://www.w3.org/2000/svg" xmlns:xlink="http://www.w3.org/1999/xlink" preserveAspectRatio="xMidYMid" width="41.664" height="22.915" viewBox="0 0 40 22">
  <defs>
    <style>
      .cls-1 {
        fill: #fff;
        fill-rule: evenodd;
      }
    </style>
  </defs>
  <path d="M37.456,19.816 C37.567,20.064 37.780,20.281 38.094,20.467 C38.261,20.571 38.557,20.666 38.982,20.754 C39.408,20.842 39.746,20.891 39.996,20.901 L39.996,22.002 L31.294,22.002 L31.294,20.901 C31.609,20.891 32.014,20.855 32.509,20.793 C33.003,20.731 33.343,20.643 33.529,20.529 C33.815,20.333 34.026,20.108 34.160,19.855 C34.294,19.601 34.361,19.284 34.361,18.901 L34.361,2.897 L34.153,2.897 L27.436,21.646 L26.742,21.646 L20.345,2.510 L20.164,2.510 L20.164,15.644 C20.164,16.916 20.236,17.883 20.379,18.544 C20.523,19.206 20.742,19.681 21.039,19.971 C21.242,20.188 21.663,20.395 22.301,20.591 C22.940,20.788 23.356,20.891 23.550,20.901 L23.550,22.002 L15.598,22.002 L15.598,20.901 C16.015,20.860 16.452,20.783 16.910,20.669 C17.368,20.555 17.722,20.384 17.971,20.157 C18.295,19.868 18.517,19.423 18.638,18.823 C18.758,18.224 18.818,17.221 18.818,15.815 L18.818,4.556 C18.818,3.905 18.749,3.373 18.610,2.959 C18.471,2.546 18.272,2.210 18.013,1.951 C17.726,1.672 17.375,1.465 16.958,1.331 C16.542,1.196 16.130,1.119 15.723,1.098 L15.723,-0.003 L22.438,-0.003 L28.079,16.515 L32.894,2.697 C33.070,2.190 33.220,1.660 33.345,1.107 C33.470,0.553 33.537,0.184 33.546,-0.003 L39.968,-0.003 L39.968,1.098 C39.709,1.109 39.378,1.155 38.976,1.238 C38.573,1.321 38.279,1.398 38.094,1.470 C37.780,1.594 37.567,1.801 37.456,2.091 C37.345,2.380 37.290,2.696 37.290,3.036 L37.290,18.901 C37.290,19.263 37.345,19.568 37.456,19.816 ZM12.891,10.666 C12.188,11.245 11.415,11.669 10.573,11.938 C9.731,12.207 8.839,12.341 7.895,12.341 L5.688,12.341 L5.688,19.009 C5.688,19.371 5.742,19.689 5.848,19.963 C5.954,20.237 6.174,20.446 6.507,20.591 C6.674,20.664 6.967,20.731 7.389,20.793 C7.809,20.855 8.196,20.891 8.547,20.901 L8.547,22.002 L0.096,22.002 L0.096,20.901 C0.318,20.881 0.639,20.845 1.060,20.793 C1.481,20.741 1.775,20.674 1.941,20.591 C2.219,20.457 2.420,20.260 2.545,20.002 C2.670,19.744 2.732,19.413 2.732,19.009 L2.732,3.130 C2.732,2.768 2.686,2.442 2.594,2.153 C2.501,1.863 2.284,1.647 1.941,1.501 C1.590,1.367 1.241,1.271 0.894,1.214 C0.547,1.158 0.248,1.119 -0.002,1.098 L-0.002,-0.003 L8.991,-0.003 C10.823,-0.003 12.310,0.491 13.453,1.478 C14.596,2.465 15.167,3.781 15.167,5.425 C15.167,6.573 14.966,7.588 14.563,8.472 C14.161,9.356 13.603,10.087 12.891,10.666 ZM11.538,4.401 C11.413,3.791 11.198,3.259 10.893,2.804 C10.569,2.318 10.143,1.941 9.616,1.672 C9.089,1.403 8.431,1.269 7.645,1.269 L5.688,1.269 L5.688,10.992 L7.104,10.992 C8.103,10.992 8.915,10.819 9.540,10.472 C10.164,10.126 10.634,9.695 10.948,9.178 C11.263,8.681 11.471,8.167 11.573,7.635 C11.674,7.102 11.725,6.624 11.725,6.200 C11.725,5.611 11.663,5.011 11.538,4.401 Z" class="cls-1"/>
</svg>
