<svg xmlns="http://www.w3.org/2000/svg" width="146" height="141" viewBox="0 0 146 141">
  <defs>
    <style>
      .cls-1 {
        fill-rule: evenodd;
      }
    </style>
  </defs>
  <path id="Эллипс_1_копия_2" data-name="Эллипс 1 копия 2" class="cls-1" d="M421.3,459.181c4.509-39.86-.625-76.575-3.89-116.821A72.517,72.517,0,0,1,421.3,459.181ZM350.909,470.5a73.167,73.167,0,0,1-32.9-24.09c33.254-27.4,63.2-62.739,91.569-108.756,1.971,1.021,3.884,2.135,5.744,3.324C406.992,380.591,373,436.89,350.909,470.5ZM302.96,402.2a73.077,73.077,0,0,1,104.922-65.4c-41.035,40.612-77.055,59.92-104.843,68.714C302.989,404.418,302.96,403.312,302.96,402.2Z" transform="translate(-302.969 -329.5)"/>
</svg>
