<svg xmlns="http://www.w3.org/2000/svg" width="173" height="173" viewBox="0 0 173 173">
  <defs>
    <style>
      .cls-1 {
        fill-rule: evenodd;
      }
    </style>
  </defs>
  <path id="ICURRENTGLOBAL_SMALL" data-name="ICURRENTGLOBAL SMALL" class="cls-1" d="M574.332,402.047v50.4H560.075v-50.4h14.257Zm37.44,39.6c4.825,0,8.713-2.089,11.881-5.905l9.073,8.209c-4.9,6.12-12.385,9.5-21.674,9.5-15.985,0-27.722-10.873-27.722-26.211s11.737-26.21,27.722-26.21c9.289,0,16.778,3.384,21.674,9.5l-9.073,8.209c-3.168-3.817-7.056-5.9-11.881-5.9-8.28,0-14.041,5.761-14.041,14.4S603.492,441.651,611.772,441.651ZM687.006,476v17a20,20,0,0,1-20,20h-133a20,20,0,0,1-20-20V360a20,20,0,0,1,20-20h133a20,20,0,0,1,20,20v70h-0.137c0,15.04-8.789,23.46-23.689,23.46s-23.69-8.425-23.69-23.474V402.047h14.257v27.506c0,8.641,3.6,12.1,9.577,12.1,5.9,0,9.5-3.457,9.5-12.1V402.047h0.177V364a10,10,0,0,0-10-10h-125a10,10,0,0,0-10,10V489a10,10,0,0,0,10,10h125a10,10,0,0,0,10-10V476h14Z" transform="translate(-514 -340)"/>
</svg>
