<?xml version="1.0" encoding="utf-8"?>
<!-- Generator: Adobe Illustrator 21.0.0, SVG Export Plug-In . SVG Version: 6.00 Build 0)  -->
<svg version="1.1" id="Capa_1" xmlns="http://www.w3.org/2000/svg" xmlns:xlink="http://www.w3.org/1999/xlink" x="0px" y="0px"
	 viewBox="0 0 512 512" style="enable-background:new 0 0 512 512;" xml:space="preserve">
<style type="text/css">
	.st0{fill:#666666;}
	.st1{fill:#1E87F0;}
</style>
<g>
	<g>
		<path class="st0" d="M405.3,245.3V480c0,5.9-4.8,10.7-10.7,10.7H160c-5.9,0-10.7-4.8-10.7-10.7V362.7H128V480
			c0,17.7,14.3,32,32,32h234.7c17.7,0,32-14.3,32-32V245.3H405.3z"/>
	</g>
</g>
<g>
	<g>
		<path class="st0" d="M10.7,320C4.8,320,0,324.8,0,330.7v10.7h53.3V320H10.7z"/>
	</g>
</g>
<g>
	<g>
		<path class="st0" d="M106.7,469.3c-29.4,0-53.3-23.9-53.3-53.3H32c0.1,41.2,33.5,74.6,74.7,74.7h32v-21.3L106.7,469.3L106.7,469.3
			z"/>
	</g>
</g>
<g>
	<g>
		<path class="st0" d="M0,437.3V448c0,5.9,4.8,10.7,10.7,10.7h42.7v-21.3L0,437.3L0,437.3z"/>
	</g>
</g>
<g>
	<g>
		<path class="st0" d="M501.3,53.3h-42.7v21.3H512V64C512,58.1,507.2,53.3,501.3,53.3z"/>
	</g>
</g>
<g>
	<g>
		<path class="st0" d="M458.7,149.3c0,29.4-23.9,53.3-53.3,53.3h-74.7V224h74.7c41.2-0.1,74.6-33.5,74.7-74.7L458.7,149.3
			L458.7,149.3z"/>
	</g>
</g>
<g>
	<g>
		<path class="st0" d="M458.7,170.7V192h42.7c5.9,0,10.7-4.8,10.7-10.7v-10.7L458.7,170.7L458.7,170.7z"/>
	</g>
</g>
<g>
	<g>
		<path class="st1" d="M234.7,96h42.7V74.7h-42.7c-17.7,0-32,14.3-32,32s14.3,32,32,32h42.7v-21.3h-42.7c-5.9,0-10.7-4.8-10.7-10.7
			S228.8,96,234.7,96z"/>
	</g>
</g>
<g>
	<g>
		<path class="st1" d="M277.3,117.3h-42.7v21.3h42.7c5.9,0,10.7,4.8,10.7,10.7s-4.8,10.7-10.7,10.7h-42.7c-5.9,0-10.7-4.8-10.7-10.7
			h-21.3c0,17.7,14.3,32,32,32h42.7c17.7,0,32-14.3,32-32S295,117.3,277.3,117.3z"/>
	</g>
</g>
<g>
	<g>
		<rect x="245.3" y="170.7" class="st1" width="21.3" height="32"/>
	</g>
</g>
<g>
	<g>
		<rect x="245.3" y="53.3" class="st1" width="21.3" height="32"/>
	</g>
</g>
<g>
	<g>
		<rect x="181.3" y="234.7" class="st1" width="21.3" height="64"/>
	</g>
</g>
<g>
	<g>
		<path class="st1" d="M256,245.3V320h-21.3v21.3h32c5.9,0,10.7-4.8,10.7-10.7v-85.3L256,245.3L256,245.3z"/>
	</g>
</g>
<g>
	<g>
		<rect x="320" y="448" class="st1" width="64" height="21.3"/>
	</g>
</g>
<g>
	<g>
		<rect x="320" y="405.3" class="st1" width="64" height="21.3"/>
	</g>
</g>
<g>
	<g>
		<path class="st0" d="M160,224c-17.7,0-32,14.3-32,32v42.7h21.3V256c0-5.9,4.8-10.7,10.7-10.7h42.7V224H160z"/>
	</g>
</g>
<g>
	<g>
		<path class="st1" d="M379.2,93.1l-20.5,5.8c8.3,29.5,3.6,61.2-13.1,86.9c-32,49.3-97.9,63.4-147.2,31.4
			C149,185.2,135,119.3,167,69.9c32-49.3,97.9-63.4,147.2-31.4l11.6-17.9C305,7.2,280.8,0,256,0c-70.7,0-128,57.3-128,128
			s57.3,128,128,128c11.8,0,23.5-1.6,34.8-4.8C358.8,231.9,398.4,161.1,379.2,93.1z"/>
	</g>
</g>
<g>
	<g>
		<path class="st0" d="M405.3,21.3h-74.7C307.1,21.3,288,40.4,288,64s19.1,42.7,42.7,42.7h96V85.3h-96c-11.8,0-21.3-9.6-21.3-21.3
			s9.6-21.3,21.3-21.3h74.7c29.4,0,53.3,23.9,53.3,53.3H480C479.9,54.8,446.5,21.4,405.3,21.3z"/>
	</g>
</g>
<g>
	<g>
		<path class="st0" d="M202.7,288h-96c-41.2,0.1-74.6,33.5-74.7,74.7h21.3c0-29.4,23.9-53.3,53.3-53.3h96c11.8,0,21.3,9.6,21.3,21.3
			s-9.6,21.3-21.3,21.3h-96v21.3h96c23.6,0,42.7-19.1,42.7-42.7S226.2,288,202.7,288z"/>
	</g>
</g>
</svg>
