<svg id="Capa_1" data-name="Capa 1" xmlns="http://www.w3.org/2000/svg" viewBox="0 0 480 480"><defs><style>.cls-1{fill:#666;}.cls-2{fill:#1e87f0;}</style></defs><title>comp</title><path class="cls-1" d="M480,360V136a40,40,0,0,0-40-40H348.33c-2.18,5.25-3.6,10.87-2.83,16H440a24,24,0,0,1,24,24V360a24,24,0,0,1-24,24H40a24,24,0,0,1-24-24V136a24,24,0,0,1,24-24h94c0-5.33.44-10.67,1-16H40A40,40,0,0,0,0,136V360a40,40,0,0,0,40,40H171.06l-16,32H8a8,8,0,0,0-8,8c0,40,42.15,40,56,40H424c13.85,0,56,0,56-40a8,8,0,0,0-8-8H324.94l-16-32H440A40,40,0,0,0,480,360ZM188.94,400H291.06l16,32H172.94ZM463,448c-2.79,9.85-12.45,16-39,16H56c-26.58,0-36.24-6.15-39-16Z"/><path class="cls-1" d="M440,128H346c-1.33,5.28-.68,10.64-1.5,16H432V336H48V144h86c-.77-5.31-1.47-10.6-2-16H40a8,8,0,0,0-8,8V344a8,8,0,0,0,8,8H440a8,8,0,0,0,8-8V136A8,8,0,0,0,440,128Z"/><path class="cls-2" d="M128,176H80a8,8,0,0,0-4.12,14.86l160,96a8,8,0,0,0,8.24,0l160-96A8,8,0,0,0,400,176H352V0H336V184a8,8,0,0,0,8,8h27.12L240,270.67,108.88,192H136a8,8,0,0,0,8-8V0H128Z"/><path class="cls-2" d="M274.9,120.37A55.53,55.53,0,0,0,296,80c0-52.9-30.46-64-56-64s-56,11.1-56,64a55.53,55.53,0,0,0,21.1,40.39,42.26,42.26,0,0,0-37.1,42V192h16V162.4A26.4,26.4,0,0,1,210.4,136h59.2A26.4,26.4,0,0,1,296,162.4V192h16V162.4A42.26,42.26,0,0,0,274.9,120.37ZM200.42,71.53C202.58,44.72,215.2,32,240,32c22.7,0,35.2,10.74,38.78,33.14l-26.66-16a8,8,0,0,0-11.7,4.33C236.37,65.61,214.51,70.2,200.42,71.53ZM240,120a50.4,50.4,0,0,1-38.89-32.42v0c13.7-1.13,38.4-5.27,49.92-20.43l28.59,17.15C276.42,103.9,252.28,120,240,120Z"/><polygon class="cls-2" points="400 288 400 272 384 272 384 288 368 288 368 304 384 304 384 320 400 320 400 304 416 304 416 288 400 288"/></svg>