<?xml version="1.0" encoding="utf-8"?>
<!-- Generator: Adobe Illustrator 21.0.0, SVG Export Plug-In . SVG Version: 6.00 Build 0)  -->
<svg version="1.1" id="Capa_1" xmlns="http://www.w3.org/2000/svg" xmlns:xlink="http://www.w3.org/1999/xlink" x="0px" y="0px"
	 viewBox="0 0 512 512" style="enable-background:new 0 0 512 512;" xml:space="preserve">
<style type="text/css">
	.st0{fill:#1E87F0;}
	.st1{fill:#666666;}
</style>
<g>
	<g>
		<path class="st0" d="M408.9,5.3c-1.3-3.2-4.4-5.3-7.9-5.3h-42.7c-4.7,0-8.5,3.8-8.5,8.5s3.8,8.5,8.5,8.5h22.1l-53.9,53.9
			l-28.8-57.7c-1.4-2.8-4.3-4.6-7.4-4.7c-3.2-0.1-6.1,1.5-7.7,4.3l-54.1,92.8l-43.4-43.4c-3.3-3.3-8.7-3.3-12.1,0l-68.3,68.3
			c-3.4,3.3-3.5,8.7-0.2,12.1c3.3,3.4,8.7,3.5,12.1,0.2c0.1-0.1,0.1-0.1,0.2-0.2l62.2-62.2l45.2,45.2c1.9,1.9,4.5,2.7,7.1,2.4
			c2.6-0.3,4.9-1.9,6.3-4.2L289.6,35l27,54.2c1.2,2.5,3.6,4.2,6.3,4.6c2.7,0.5,5.5-0.4,7.4-2.4l62.3-62.2v22.1
			c0,4.7,3.8,8.5,8.5,8.5s8.5-3.8,8.5-8.5V8.5C409.6,7.4,409.4,6.3,408.9,5.3z"/>
	</g>
</g>
<g>
	<g>
		<path class="st0" d="M170.7,145.1h-34.1c-4.7,0-8.5,3.8-8.5,8.5v119.5c0,4.7,3.8,8.5,8.5,8.5h34.1c4.7,0,8.5-3.8,8.5-8.5V153.6
			C179.2,148.9,175.4,145.1,170.7,145.1z M162.1,264.5h-17.1V162.1h17.1V264.5z"/>
	</g>
</g>
<g>
	<g>
		<path class="st0" d="M238.9,162.1h-34.1c-4.7,0-8.5,3.8-8.5,8.5v102.4c0,4.7,3.8,8.5,8.5,8.5h34.1c4.7,0,8.5-3.8,8.5-8.5V170.7
			C247.5,166,243.6,162.1,238.9,162.1z M230.4,264.5h-17.1v-85.3h17.1V264.5z"/>
	</g>
</g>
<g>
	<g>
		<path class="st0" d="M307.2,204.8h-34.1c-4.7,0-8.5,3.8-8.5,8.5v59.7c0,4.7,3.8,8.5,8.5,8.5h34.1c4.7,0,8.5-3.8,8.5-8.5v-59.7
			C315.7,208.6,311.9,204.8,307.2,204.8z M298.7,264.5h-17.1v-42.7h17.1V264.5z"/>
	</g>
</g>
<g>
	<g>
		<path class="st0" d="M375.5,230.4h-34.1c-4.7,0-8.5,3.8-8.5,8.5v34.1c0,4.7,3.8,8.5,8.5,8.5h34.1c4.7,0,8.5-3.8,8.5-8.5v-34.1
			C384,234.2,380.2,230.4,375.5,230.4z M366.9,264.5h-17.1v-17.1h17.1V264.5z"/>
	</g>
</g>
<g>
	<g>
		<path class="st1" d="M247.5,16.4c-0.4-4.7-4.5-8.2-9.2-7.8C130.5,18.1,46.7,106.4,42.8,214.5c-15.1,3.8-25.7,17.4-25.8,33v70.7
			c0,54.6,27.3,105.7,72.8,136l29.6,19.7v29.6c0,4.7,3.8,8.5,8.5,8.5c4.7,0,8.5-3.8,8.5-8.5v-34.1c0-2.9-1.4-5.5-3.8-7.1L99.3,440
			c-40.7-27.1-65.2-72.8-65.2-121.8v-70.7c0-9.4,7.6-17.1,17.1-17.1s17.1,7.6,17.1,17.1v45.9c-5.5,6.2-8.5,14.1-8.5,22.3v34.1
			c0,4.7,3.8,8.5,8.5,8.5s8.5-3.8,8.5-8.5v-34.1c0-9.4,7.6-17.1,17.1-17.1s17.1,7.6,17.1,17.1v42.7c0,3.1,1.6,5.9,4.3,7.4l41.1,23.5
			c19.4,11.1,31.4,31.7,31.4,54.1v60.1c0,4.7,3.8,8.5,8.5,8.5c4.7,0,8.5-3.8,8.5-8.5v-60.1c0-28.5-15.3-54.8-40-68.9l-36.8-21v-37.7
			c0-18.9-15.3-34.1-34.1-34.1c-2.9,0-5.8,0.4-8.5,1.2v-35.3c0-15.4-10.4-28.8-25.3-32.8c3.7-99.3,80.7-180.3,179.6-189
			C244.3,25.2,247.9,21.1,247.5,16.4z"/>
	</g>
</g>
<g>
	<g>
		<path class="st1" d="M469,214.5c-1.4-46.1-17.7-90.5-46.5-126.6c-3-3.7-8.3-4.3-12-1.3c-3.7,3-4.3,8.3-1.3,12
			c26.6,33,41.6,73.8,42.8,116.1c-14.9,4-25.3,17.4-25.3,32.8v35.3c-2.8-0.8-5.6-1.2-8.5-1.2c-18.9,0-34.1,15.3-34.1,34.1v37.7
			l-36.8,21c-24.7,14.1-40,40.4-40,68.9v60.1c0,4.7,3.8,8.5,8.5,8.5c4.7,0,8.5-3.8,8.5-8.5v-60.1c0-22.4,12-43,31.4-54.1l41.1-23.5
			c2.6-1.5,4.3-4.4,4.3-7.4v-42.7c0-9.4,7.6-17.1,17.1-17.1s17.1,7.6,17.1,17.1v34.1c0,4.7,3.8,8.5,8.5,8.5c4.7,0,8.5-3.8,8.5-8.5
			v-34.1c0-8.2-3.1-16.2-8.5-22.3v-45.9c0-9.4,7.6-17.1,17.1-17.1s17.1,7.6,17.1,17.1v70.7c0,48.9-24.5,94.6-65.2,121.8l-33.4,22.3
			c-2.4,1.6-3.8,4.2-3.8,7.1v34.1c0,4.7,3.8,8.5,8.5,8.5c4.7,0,8.5-3.8,8.5-8.5v-29.6l29.6-19.7c45.5-30.3,72.8-81.3,72.8-136v-70.7
			C494.9,231.8,484.2,218.2,469,214.5z"/>
	</g>
</g>
<g>
	<g>
		<path class="st0" d="M391.7,152.4c-4.4-4.2-10.2-6.7-16.3-7.1v-15.4l15.1,3.6l4-16.6l-19-4.5V93.9h-17.1v17.1h-6.2
			c-6.9,0-13.5,2.6-18.6,7.3c-10.1,9.5-10.6,25.3-1.1,35.4c0.4,0.4,0.7,0.8,1.1,1.1c5,4.8,11.7,7.4,18.6,7.4h6.2v17
			c-0.6,0-1.3-0.1-1.9-0.2l-21.8-5.2l-4,16.6l21.8,5.2c1.9,0.4,3.8,0.7,5.8,0.7v17.1h17.1v-17.3c6.1-0.5,11.8-3,16.2-7.1
			c5.1-4.7,7.9-11.3,7.9-18.3C399.6,163.8,396.8,157.2,391.7,152.4z M358.4,145.1h-6.2c-2.5,0-5-0.9-6.8-2.7c-3.2-3-3.5-8-0.5-11.2
			c0.2-0.2,0.3-0.4,0.5-0.5c1.9-1.7,4.3-2.7,6.8-2.6h6.2V145.1z M380.5,176c-0.2,0.2-0.3,0.4-0.5,0.5v0c-1.3,1.1-2.8,1.9-4.5,2.2
			v-16.2c1.7,0.3,3.2,1.1,4.5,2.2C383.2,167.7,383.4,172.8,380.5,176z"/>
	</g>
</g>
</svg>
