<?xml version="1.0" encoding="utf-8"?>
<!-- Generator: Adobe Illustrator 21.0.0, SVG Export Plug-In . SVG Version: 6.00 Build 0)  -->
<svg version="1.1" id="Layer_1" xmlns="http://www.w3.org/2000/svg" xmlns:xlink="http://www.w3.org/1999/xlink" x="0px" y="0px"
	 viewBox="0 0 512 512" style="enable-background:new 0 0 512 512;" xml:space="preserve">
<style type="text/css">
	.st0{fill:#666666;}
	.st1{fill:#1E87F0;}
</style>
<g>
	<g>
		<g>
			<path class="st0" d="M73.4,341.3l-50.7-0.1c3.8-14.4,15.1-25.9,30.1-29.7l42-10.5c3.8-1,6.8-3.9,7.8-7.8l5-20
				c0.9-3.8-0.2-7.7-3.1-10.4c-9.3-8.7-15.5-21.5-16.5-34.3c-0.4-5.5-6.3-9.4-11.8-9.4l-1.9-19.9c3.1,0,6-1.3,8-3.6
				c2-2.3,3-5.3,2.6-8.4c-0.9-7.1-2.3-20-2.3-24.2c0-12.1,0-24.7,35.3-25c2.2,0,4.3-0.7,6.1-2c6-4.3,12.8-6.7,21.5-7.7
				c5.9-0.6,10.1-5.9,9.5-11.7c-0.6-5.8-5.8-10.1-11.7-9.5c-11,1.2-20.5,4.3-28.8,9.6c-47.7,1.6-53.2,27.1-53.2,46.3
				c0,3.9,0.7,11.6,1.4,17.7c-1.9,1.1-3.5,2.5-5,4.2c-3.9,4.5-5.8,10.5-5.1,16.4l2.6,20.4c0.9,7.4,5.8,13.6,12.9,16.5
				c2.6,13,8.8,25.6,17.6,35.5l-2,8.1l-35.8,9C19.6,298,0,323.1,0,352c0,5.9,4.8,10.7,10.7,10.7h62.7c5.9,0,10.7-4.8,10.7-10.7
				C84.1,346.1,79.3,341.3,73.4,341.3z"/>
			<path class="st0" d="M464.3,291l-35.8-9l-1.8-7.1c9.3-10.2,15.9-23.2,18.6-36.8c6.2-3,10.7-9,11.6-16.2l2.6-20.4
				c0.7-5.9-1.1-11.8-4.9-16.3c-1.3-1.5-2.9-2.9-4.6-3.9l0.7-13.5l2.4-2.4c5.8-6.2,13.7-19.5,1.2-38.7c-6-9.2-18.4-20.1-43.3-20.1
				c-10.1,0-19,1.4-27.3,4.2c-5.6,1.9-8.5,8-6.6,13.5c1.9,5.5,7.9,8.5,13.5,6.6c6-2,12.6-3.1,20.3-3.1c12.5,0,20.8,3.4,25.5,10.5
				c5.2,8,2.9,10.5,1.4,12.1l-5.1,5.1c-1.9,1.9-3,4.4-3.1,7l-1.2,25.5c-0.1,2.9,0.7,5.4,2.7,7.6c2,2.1,4.5,3.1,7.4,3.1l-2.6,20
				c-5.6,0-10.2,4.3-10.6,9.8c-1,12.9-7.6,26.3-17.3,34.9c-2.9,2.6-4.2,6.7-3.2,10.5l4.8,19.2c1,3.8,3.9,6.8,7.8,7.8l42,10.5
				c15,3.8,26.3,15.3,30.1,29.7h-50.7v21.3h62.7c5.9,0,10.7-4.8,10.7-10.7C512,323.1,492.4,298,464.3,291z"/>
			<path class="st1" d="M364.6,336.5l-51.1-12.8l-3.5-14c13.5-14,22.8-32.6,26.1-51.7c8.2-3.2,14.3-10.7,15.4-19.8l3.5-27.8
				c0.9-6.9-1.3-13.9-5.8-19.2c-2.1-2.4-4.6-4.3-7.3-5.7l1.1-22.2l4.3-4.3c7.2-7.6,16.8-24,1.2-47.9c-11.2-17-29.9-25.7-55.8-25.7
				c-9.9,0-32.5,0-53.9,14c-61.9,1.6-69.9,32.4-69.9,59.3c0,5.8,1.2,17.8,2.2,26.4c-3.1,1.4-5.9,3.5-8.1,6c-4.7,5.3-6.8,12.3-6,19.3
				l3.5,27.8c1.2,9.8,8.1,17.6,17.2,20.4c3.3,18.3,12.1,36.2,24.8,49.9l-3.8,15.3l-51.1,12.8c-36.5,9.1-62,41.8-62,79.5
				c0,2.8,1.1,5.6,3.1,7.6s4.7,3.1,7.6,3.1l320,0c5.9,0,10.7-4.8,10.7-10.7C426.7,378.3,401.2,345.6,364.6,336.5z M107.6,405.3
				c4.1-23.2,21.4-42.2,44.9-48.1l57.3-14.3c3.8-1,6.8-3.9,7.8-7.8l6.8-27.3c1-3.8-0.2-7.7-3.1-10.4c-13.4-12.6-22.3-31-23.7-49.3
				c-0.4-5.5-5.1-9.8-10.6-9.8h-2.3c-1.6,0-3-1.2-3.2-2.8l-3.5-27.8c-0.1-1.3,0.4-2.1,0.8-2.6c0.4-0.4,1.2-1.1,3.9-1.1
				c3.1,0,6-1.3,8-3.6c2-2.3,3-5.3,2.6-8.4c-0.9-7.1-3.2-26.8-3.2-33.5c0-16.7,0-37.5,52-38c2.2,0,4.3-0.7,6.1-2
				c16.7-11.9,35.3-11.9,44.3-11.9c18.5,0,30.9,5.2,38,16c8.8,13.5,3.8,18.8,1.4,21.4l-7,7c-1.9,1.9-3,4.4-3.1,7l-1.7,34.8
				c-0.1,2.9,0.9,5.7,2.9,7.8s4.7,3.3,7.6,3.3c1.3,0,2.1,0.7,2.4,1.1c0.4,0.5,0.9,1.3,0.8,2.5l-3.5,27.8c-0.2,1.6-1.6,2.8-3.9,2.8
				c-5.6,0-10.2,4.3-10.6,9.8c-1.5,18.6-11,37.8-24.9,50.2c-2.9,2.6-4.2,6.7-3.2,10.5l6.5,26.2c1,3.8,3.9,6.8,7.8,7.7l57.3,14.3
				c23.5,5.9,40.8,24.9,44.9,48.1L107.6,405.3z"/>
		</g>
	</g>
</g>
</svg>
