<svg id="Capa_1" data-name="Capa 1" xmlns="http://www.w3.org/2000/svg" viewBox="0 0 512 512"><defs><style>.cls-1{fill:#666;}.cls-2{fill:#1e87f0;}</style></defs><title>investor</title><path class="cls-1" d="M87.85,280.1a123,123,0,0,0,27.81,77.32c18.59,22.41,42.85,34.75,68.32,34.75s49.7-12.33,68.24-34.73a123.11,123.11,0,0,0,27.72-77.29V280a8,8,0,0,0-16,0v.14a106.85,106.85,0,0,1-24,67.09c-15.44,18.66-35.3,28.93-55.91,28.93s-40.51-10.29-56-29a106.76,106.76,0,0,1-24.13-67.11v-9.6c0-19.79,13.29-46.7,18.33-56.19,32.11-3.68,63.08-2.32,92.1,4.08a8,8,0,0,0,3.45-15.62c-31.83-7-65.79-8.35-100.94-3.94a8,8,0,0,0-6.55,4,226,226,0,0,0-13.5,28.59c-2.74-14.82-5.24-31.48-5.24-42.78,0-28,17.72-40.52,35.28-40.52a8,8,0,0,0,1.69-.18,7.93,7.93,0,0,0,6.51-1.45c17.54-13.32,41-11.59,63.69-7.73A8,8,0,0,0,201.35,123c-24.2-4.11-51.75-6.16-73.86,9.17-.24,0-.47,0-.72,0-15.18,0-28.67,6.07-38,17.09-8.59,10.18-13.32,24.18-13.32,39.43,0,25,10.62,71.13,12.35,78.48v13Z"/><path class="cls-1" d="M321.75,409.89l-.52-.13-47.6-10-12.58-19.08-.28-.4a14.06,14.06,0,0,0-20.16-2.45l-.15.13-56.59,48.72L127.28,378l-.15-.13A14.06,14.06,0,0,0,107,380.33l-.28.4L94.1,399.8l-47.6,10-.52.13A60.84,60.84,0,0,0,11.93,434.7,68.69,68.69,0,0,0,0,473v15C0,501.26,11.75,512,26.19,512H341.54c14.44,0,26.19-10.73,26.19-23.93V473A68.68,68.68,0,0,0,355.8,434.7,60.84,60.84,0,0,0,321.75,409.89Zm-72.64-18.21L259,406.74l-39.75,54.65-23.67-23.67Zm-70.49,88.38h10.5L192.3,496H175.43Zm13.25-20.38c0,2.63-1.6,4.38-2.67,4.38H178.54c-1.06,0-2.67-1.75-2.67-4.38v-3.08l8-8,8,8v3.08Zm-73.24-68,53.49,46-23.67,23.67L108.7,406.74ZM16,488.06V473c0-18.87,11.7-41.25,34.06-47.66l45.49-9.51L141,478.37a8,8,0,0,0,5.84,3.27l.63,0a8,8,0,0,0,5.66-2.34l9.33-9.33a20.61,20.61,0,0,0,1.4,2.24L159.12,496H26.19C20.67,496,16,492.36,16,488.06Zm335.74,0c0,4.3-4.67,7.93-10.19,7.93H208.62l-4.75-23.75a20.51,20.51,0,0,0,1.4-2.24l9.33,9.33a8,8,0,0,0,5.66,2.34l.63,0a8,8,0,0,0,5.84-3.27l45.47-62.52,45.49,9.51c22.36,6.4,34.05,28.78,34.05,47.66v15Z"/><path class="cls-2" d="M368,0c-79.4,0-144,64.6-144,144s64.6,144,144,144,144-64.6,144-144S447.4,0,368,0Zm0,272A128,128,0,1,1,496,144,128.14,128.14,0,0,1,368,272Z"/><path class="cls-2" d="M456,79.22c0-.11,0-.22,0-.34s0-.29-.07-.44-.06-.26-.1-.39-.06-.25-.1-.37-.09-.25-.13-.37-.08-.24-.13-.36-.11-.23-.16-.35-.11-.25-.17-.36-.13-.22-.19-.33-.13-.23-.21-.34-.17-.24-.26-.36l-.2-.27a8,8,0,0,0-1.12-1.12l-.27-.21-.36-.26-.34-.21-.33-.19-.36-.18-.35-.16-.36-.13-.37-.13-.37-.1-.39-.1-.43-.07-.34,0c-.26,0-.53,0-.79,0H400a8,8,0,0,0,0,16h28.69L368,148.7l-18.34-18.34a8,8,0,0,0-11.31,0l-64,64a8,8,0,0,0,11.31,11.31L344,147.32l18.34,18.34A8,8,0,0,0,368,168a8.09,8.09,0,0,0,1.53-.15,8,8,0,0,0,4.13-2.2h0L440,99.32V128a8,8,0,0,0,16,0V80C456,79.75,456,79.48,456,79.22Z"/></svg>