<svg id="Слой_1" data-name="Слой 1" xmlns="http://www.w3.org/2000/svg" viewBox="0 0 331.72 123.65"><defs><style>.cls-1{fill:#1e86ef;}.cls-2{fill:#898989;}.cls-3{fill:#2093e0;}.cls-4{fill:#1e83d6;}.cls-5{fill:#fff;}</style></defs><title>logof</title><path class="cls-1" d="M194.1,107.08a12.18,12.18,0,0,1-1,5.22,9.7,9.7,0,0,1-2.52,3.38,9.32,9.32,0,0,1-3.38,1.82,12.64,12.64,0,0,1-3.55.54H173.39V77.87h9.11a14.61,14.61,0,0,1,3.53.45,9.43,9.43,0,0,1,3.33,1.56,8.32,8.32,0,0,1,2.47,3,10.53,10.53,0,0,1,1,4.79,11.49,11.49,0,0,1-.49,3.55A9.24,9.24,0,0,1,191,93.83a7.54,7.54,0,0,1-1.83,1.82,9.38,9.38,0,0,1-2.12,1.11v.11a8.74,8.74,0,0,1,2.33.91,8.31,8.31,0,0,1,2.3,1.9,9.9,9.9,0,0,1,1.73,3.06A12.52,12.52,0,0,1,194.1,107.08Zm-5-18.81a8.29,8.29,0,0,0-.59-3.33,5.78,5.78,0,0,0-1.62-2.17,5.91,5.91,0,0,0-2.24-1.16,9.7,9.7,0,0,0-2.55-.34h-5.58V95.45h5.7a8,8,0,0,0,2.47-.4,5.94,5.94,0,0,0,2.2-1.26,6.84,6.84,0,0,0,1.59-2.23,7.82,7.82,0,0,0,.62-3.28Zm1.14,18.55a9.54,9.54,0,0,0-.68-3.82,7.19,7.19,0,0,0-1.76-2.51,6.92,6.92,0,0,0-2.41-1.41,8,8,0,0,0-2.58-.45h-6.26v16h6.26a9.15,9.15,0,0,0,2.89-.45,6.37,6.37,0,0,0,2.38-1.41,6.49,6.49,0,0,0,1.59-2.43,9.76,9.76,0,0,0,.56-3.51Z" transform="translate(0 -3.35)"/><path class="cls-1" d="M222.84,109.84a14.19,14.19,0,0,1-1.93,4.79,9.34,9.34,0,0,1-3.55,3.21,11.6,11.6,0,0,1-5.45,1.16,11.42,11.42,0,0,1-5.42-1.16,9.42,9.42,0,0,1-3.52-3.21,13.73,13.73,0,0,1-1.9-4.79,29.14,29.14,0,0,1-.57-5.87V77.87h4v25.59a30.28,30.28,0,0,0,.31,4.37,12.7,12.7,0,0,0,1.13,3.83,7,7,0,0,0,2.27,2.7,7.43,7.43,0,0,0,7.52,0,7,7,0,0,0,2.3-2.7,12.77,12.77,0,0,0,1.13-3.8,30.32,30.32,0,0,0,.31-4.4V77.87h4V104A27.72,27.72,0,0,1,222.84,109.84Z" transform="translate(0 -3.35)"/><path class="cls-1" d="M250,118,236,84.58h-.21V118h-3.7V77.87h4.94L251,111.29h.17V77.87h3.69V118Z" transform="translate(0 -3.35)"/><path class="cls-1" d="M287.2,98a33.16,33.16,0,0,1-1,8.68,18.07,18.07,0,0,1-3,6.27,12.55,12.55,0,0,1-4.63,3.8,13.83,13.83,0,0,1-6,1.28h-8.63V77.87h8.68a13.83,13.83,0,0,1,6,1.27,12.23,12.23,0,0,1,4.6,3.83,18.66,18.66,0,0,1,2.92,6.33A33.48,33.48,0,0,1,287.2,98Zm-3.92,0a29.74,29.74,0,0,0-.82-7.43,16,16,0,0,0-2.27-5.21,9.69,9.69,0,0,0-3.4-3.07,9,9,0,0,0-4.23-1h-4.65v33.36h4.65a9,9,0,0,0,4.23-1,9.68,9.68,0,0,0,3.4-3.08,16,16,0,0,0,2.27-5.18,29.13,29.13,0,0,0,.83-7.39Z" transform="translate(0 -3.35)"/><path class="cls-1" d="M294.69,118V77.87h4v36.48h11.46V118Z" transform="translate(0 -3.35)"/><path class="cls-1" d="M314.95,118V77.87h16.17v3.52H318.84V95.45h11.52v3.4H318.84v15.6h12.88V118Z" transform="translate(0 -3.35)"/><path class="cls-2" d="M173.84,70.64V30.47h4V70.64Z" transform="translate(0 -3.35)"/><path class="cls-2" d="M204.91,70.64l-14-33.42h-.17V70.64H187V30.47h4.94l13.9,33.42H206V30.47h3.63V70.64Z" transform="translate(0 -3.35)"/><path class="cls-2" d="M229.69,70.64h-5.16L214.6,30.47h4.31l8.28,35.69h.11l8.29-35.69h4.2Z" transform="translate(0 -3.35)"/><path class="cls-2" d="M244.72,70.64V30.47h16.17V34H248.58V48.06H260.1v3.4H248.58v15.6h12.88v3.58Z" transform="translate(0 -3.35)"/><path class="cls-2" d="M285.84,60.37a13.17,13.17,0,0,1-.79,4.74,10.35,10.35,0,0,1-2.21,3.52,9.43,9.43,0,0,1-3.26,2.21,10.38,10.38,0,0,1-4,.77,12.35,12.35,0,0,1-5.65-1.31,11.53,11.53,0,0,1-4.17-3.46l2.44-2.78a9,9,0,0,0,3.29,2.89,8.73,8.73,0,0,0,4,1,6.07,6.07,0,0,0,4.6-1.95,7.65,7.65,0,0,0,1.84-5.5,7.5,7.5,0,0,0-.57-3,8,8,0,0,0-1.52-2.31,12.11,12.11,0,0,0-2.19-1.82,26.13,26.13,0,0,0-2.58-1.47,24.87,24.87,0,0,1-3.12-1.79,12.45,12.45,0,0,1-2.58-2.3,10.56,10.56,0,0,1-1.79-3.09,11.67,11.67,0,0,1-.68-4.17,12.7,12.7,0,0,1,.85-4.85,10,10,0,0,1,2.3-3.46,9.49,9.49,0,0,1,3.26-2.07,10.73,10.73,0,0,1,3.8-.68,12.36,12.36,0,0,1,4.91.94,8.85,8.85,0,0,1,3.66,2.92l-2.44,2.78a6.68,6.68,0,0,0-2.67-2.35,7.87,7.87,0,0,0-3.35-.71,6.79,6.79,0,0,0-2.35.43,5.64,5.64,0,0,0-2,1.34,6.83,6.83,0,0,0-1.47,2.33,9,9,0,0,0-.57,3.35,7.77,7.77,0,0,0,.51,3,7.42,7.42,0,0,0,1.39,2.21,9.94,9.94,0,0,0,2,1.7,26.86,26.86,0,0,0,2.41,1.36,31.49,31.49,0,0,1,3.15,1.81,14.8,14.8,0,0,1,2.78,2.4,10.52,10.52,0,0,1,2,3.18A11.27,11.27,0,0,1,285.84,60.37Z" transform="translate(0 -3.35)"/><path class="cls-2" d="M300.1,33.88V70.65h-3.91V33.88h-4v-3.4h12.65v3.4Z" transform="translate(0 -3.35)"/><polygon class="cls-1" points="146.53 116.87 141.16 27.9 110.49 29.75 52.19 33.27 57.56 122.24 146.53 116.87"/><polygon class="cls-3" points="130.37 118.23 124.41 27.43 84.55 30.48 91.47 120.71 130.37 118.23"/><polygon class="cls-4" points="96.62 121.17 90.66 30.37 50.8 33.42 57.71 123.65 96.62 121.17"/><path class="cls-5" d="M80.74,105.21l-4.4-52.84,5.22-.43L86,104.78Z" transform="translate(0 -3.35)"/><path class="cls-5" d="M124.08,87.12a16.14,16.14,0,0,1-.73,7,12.81,12.81,0,0,1-2.94,4.71,12.28,12.28,0,0,1-4.24,2.76,16.64,16.64,0,0,1-4.61,1.1l-13.5,1.12L93.66,51l12-1a19.26,19.26,0,0,1,4.68.21,12.46,12.46,0,0,1,4.5,1.68,11,11,0,0,1,3.58,3.68,13.9,13.9,0,0,1,1.79,6.19,15.23,15.23,0,0,1-.25,4.71A12.24,12.24,0,0,1,118.51,70a10,10,0,0,1-2.22,2.58,12.42,12.42,0,0,1-2.67,1.69v.15a11.43,11.43,0,0,1,3.16.94,11,11,0,0,1,3.33,2.32,13.09,13.09,0,0,1,2.61,3.85A16.53,16.53,0,0,1,124.08,87.12ZM115.4,63a10.92,10.92,0,0,0-1.16-4.4,7.6,7.6,0,0,0-2.32-2.69,7.81,7.81,0,0,0-3.08-1.27,12.8,12.8,0,0,0-3.42-.15L98.93,55l1.54,18.65,6.63-.54a10.49,10.49,0,0,0,3.2-.79A7.84,7.84,0,0,0,113,70.44a9,9,0,0,0,1.85-3.11A10.27,10.27,0,0,0,115.4,63Zm3.51,24.28a12.55,12.55,0,0,0-1.31-4.95A9.45,9.45,0,0,0,115,79.22a9.17,9.17,0,0,0-3.32-1.6,10.58,10.58,0,0,0-3.45-.31l-7.34.62,1.75,21,7.34-.62a12,12,0,0,0,3.76-.91,8.38,8.38,0,0,0,2.94-2.11,8.56,8.56,0,0,0,1.82-3.38,12.84,12.84,0,0,0,.4-4.74Z" transform="translate(0 -3.35)"/><rect class="cls-4" x="43.8" y="32.18" width="17.61" height="17.61" transform="translate(-4.52 3.23) rotate(-6.86)"/><rect class="cls-4" x="55.54" y="20.44" width="17.61" height="17.61" transform="translate(-3.03 4.54) rotate(-6.86)"/><rect class="cls-4" x="29.92" y="10.97" width="10.14" height="10.14" transform="matrix(0.99, -0.12, 0.12, 0.99, -1.66, 0.94)"/><rect class="cls-4" x="0.43" y="3.78" width="7.63" height="7.63" transform="translate(-0.88 -2.79) rotate(-6.86)"/><rect class="cls-4" x="13.78" y="28.58" width="10.14" height="10.14" transform="matrix(0.99, -0.12, 0.12, 0.99, -3.88, -0.86)"/></svg>