<svg id="Capa_1" data-name="Capa 1" xmlns="http://www.w3.org/2000/svg" viewBox="0 0 512 512"><defs><style>.cls-1{fill:#fff;}</style></defs><title>play 2</title><path class="cls-1" d="M256,0C114.61,0,0,114.61,0,256S114.61,512,256,512c141.32-.16,255.84-114.68,256-256C512,114.61,397.39,0,256,0Zm0,495.48C123.74,495.48,16.52,388.26,16.52,256S123.74,16.52,256,16.52,495.34,123.8,495.48,256,388.26,495.48,256,495.48Z"/><path class="cls-1" d="M256,49.55C142,49.55,49.55,142,49.55,256S142,462.45,256,462.45,462.32,370,462.45,256,370,49.55,256,49.55Zm0,396.39c-104.9,0-189.94-85-189.94-189.94S151.1,66.06,256,66.06,445.82,151.15,445.94,256,360.9,445.94,256,445.94Z"/><path class="cls-1" d="M351.08,249.06l-140.15-90.6a8.26,8.26,0,0,0-12.74,6.94V346.6a8.26,8.26,0,0,0,12.74,6.94l140.15-90.6a8.26,8.26,0,0,0,0-13.87ZM214.71,331.42V180.61L331.39,256Z"/></svg>