<?xml version="1.0" encoding="utf-8"?>
<!-- Generator: Adobe Illustrator 21.0.0, SVG Export Plug-In . SVG Version: 6.00 Build 0)  -->
<svg version="1.1" id="Слой_1" xmlns="http://www.w3.org/2000/svg" xmlns:xlink="http://www.w3.org/1999/xlink" x="0px" y="0px"
	 viewBox="0 0 256 256" style="enable-background:new 0 0 256 256;" xml:space="preserve">
<style type="text/css">
	.st0{display:none;}
	.st1{display:inline;fill:#333333;stroke:#000000;stroke-miterlimit:10;}
	.st2{display:inline;fill:#FFFFFF;}
	.st3{display:inline;}
	.st4{fill:#FFFFFF;}
</style>
<g id="Слой_2" class="st0">
	<rect x="-15.7" y="-15.7" class="st1" width="300" height="307.3"/>
</g>
<g id="Слой_1_1_" class="st0">
	<title>PM</title>
	<path class="st2" d="M128,16C66.1,16,16,66.1,16,128s50.1,112,112,112s112-50.1,112-112S189.9,16,128,16z M108.2,115.9
		c-1.4,2.8-3.4,5.2-5.8,7s-5.1,3.2-8,4.1c-2.1,0.6-4.3,0.9-6.4,0.8c-2.2,0-4.4-0.2-6.5-0.7l-1-3.6c2.2,0.5,4.4,0.9,6.6,0.9
		c2.4,0,4.7-0.6,6.8-1.7c2.2-1.2,3.9-3,5-5.2c1.2-2.4,1.8-5,1.8-7.7c0-2.6-0.6-5.1-1.7-7.3c-1.2-2.2-3-4-5.3-5
		c-2.7-1.2-5.6-1.8-8.6-1.7c-3.3,0-6.5,0.6-9.7,1.6c-0.3,3.3-0.4,8.6-0.4,15.7V137c0,4.3,0,8.5,0.1,12.6c0.1,3,0.3,4.8,0.7,5.4
		c0.4,0.6,1,1,1.8,1.2c2.3,0.4,4.5,0.6,6.8,0.5v3c-5.8-0.3-10.1-0.4-12.9-0.4c-1.1,0-6,0.1-14.8,0.4v-3c2.3,0.1,4.6-0.1,6.8-0.5
		c0.7-0.2,1.3-0.6,1.7-1.1c0.4-0.6,0.6-2.2,0.7-4.6c0-0.7,0.1-5.1,0.2-13.4v-21.9c0-4.3,0-8.5-0.1-12.6c-0.1-3-0.3-4.8-0.7-5.3
		c-0.4-0.6-1.1-1.1-1.8-1.3c-2.3-0.4-4.5-0.6-6.8-0.5v-3c6.3,0.2,11.4,0.3,15.1,0.3c2.5,0,5.1,0,7.9-0.1l7.4-0.2c0.8,0,1.6,0,2.3,0
		c5,0,9,0.6,11.8,1.7c2.7,1,5.1,2.9,6.7,5.3s2.5,5.3,2.4,8.3C110.2,110.5,109.5,113.4,108.2,115.9z M202.1,95.5
		c-2.3-0.1-4.6,0.1-6.8,0.5c-0.7,0.2-1.3,0.6-1.7,1.1c-0.4,0.6-0.6,2.2-0.7,4.6c0,0.6-0.1,5.1-0.2,13.4V137c0,4.3,0.1,8.5,0.2,12.6
		c0.1,3,0.3,4.8,0.7,5.4c0.4,0.6,1,1,1.8,1.2c2.3,0.4,4.5,0.6,6.8,0.5v3c-6.4-0.3-10.9-0.4-13.5-0.4c-2.1,0-6.8,0.1-14,0.4v-3
		c2.3,0.1,4.6-0.1,6.9-0.5c0.7-0.2,1.3-0.6,1.7-1.1c0.4-0.6,0.6-2.2,0.7-4.6c0-0.7,0.1-5.2,0.2-13.4v-34.8l-16.3,34.2
		c-2.6,5.3-4.6,9.6-6,12.9c-1.1,2.4-2.7,6.1-4.8,11.3h-1.9c-0.3-1-0.7-1.9-1.1-2.9l-3.2-6.8l-22.6-47v33.2c0,4.3,0.1,8.5,0.2,12.6
		c0.1,3,0.3,4.8,0.7,5.4c0.4,0.6,1,1,1.8,1.2c2.3,0.4,4.5,0.6,6.8,0.5v3l-11.4-0.4l-11.8,0.4v-3c2.3,0.1,4.6-0.1,6.8-0.5
		c0.7-0.2,1.3-0.6,1.7-1.1c0.4-0.6,0.6-2.2,0.7-4.6c0-0.7,0.1-5.1,0.2-13.4v-22c0-4.3,0-8.5-0.1-12.6c-0.1-3-0.3-4.8-0.7-5.3
		c-0.4-0.6-1-1.1-1.8-1.3c-2.3-0.4-4.5-0.6-6.8-0.5v-3c3.3,0.1,6.5,0.2,9.5,0.2s5.9-0.1,8.8-0.2c2.8,6.3,5.3,11.9,7.6,16.6
		l17.9,36.9l16.2-33.9c4.4-9.2,7.4-15.8,8.9-19.7c3.3,0.1,6.2,0.2,8.5,0.2c2.1,0,5.5-0.1,10.3-0.2L202.1,95.5z"/>
	<path class="st2" d="M96.3,131.7"/>
</g>
<g id="Слой_3" class="st0">
	<g class="st3">
		<path class="st4" d="M128.1,16.1C66.3,16.1,16.2,66.2,16.2,128s50.1,111.9,111.9,111.9S240,189.8,240,128S189.9,16.1,128.1,16.1z
			 M189.4,125.5h-34l6.3,13.5H182l-12.5,17.2l16.3,34.6h-23.3l-16.1-35.1l-38.7,0.5l-13.8,34.6l-23.7,0.7L86,155.9L70.3,139h22.3
			l6.6-13.9H63.6l-13.3-16.3h57.3l19.5-44.6l20.8,44h54.3L189.4,125.5z"/>
		<polygon class="st4" points="120.5,125.5 114.9,139 140.3,139 135.3,125.5 		"/>
	</g>
</g>
<g id="Слой_6" class="st0">
	<g id="Слой_5" class="st3">
		<g>
			<path class="st4" d="M128.2,16.3c-61.7,0-111.8,50.1-111.8,111.8s50.1,111.8,111.8,111.8S240,189.8,240,128.1
				S189.9,16.3,128.2,16.3z M177.5,110.8c-1.5,15.3-15.5,18.8-15.5,18.8c19.8,12.5,10.7,29.2,10.7,29.2c-7.7,29-43.2,16.8-43.2,16.8
				l-5.2,20.5l-11.7-2.5l4.5-20.2l-9.7-2.7l-5.2,19.7l-11.8-2.8l5-20.2l-24.3-6.7l5.8-13.5c0,0,5.2,1,9.2,2.2s5.3-2.7,5.3-2.7
				s12-48.8,13.3-54.7c1.3-5.8-5.5-8-5.5-8l-8.5-2l2.7-13l25.2,6.3l4.8-20l12.2,2.7l-4.8,19.8l10,2.2l4.8-19.2l12.2,2.8L152.5,84
				C162.5,86.8,179,95.5,177.5,110.8z"/>
			<path class="st4" d="M127.3,92.2l-6.2,24c0,0,28.2,13.3,31.5-4.2C156,94.5,127.3,92.2,127.3,92.2z"/>
			<path class="st4" d="M118.2,129.5l-6.3,26.2c0,0,33.5,12,37.8-4.8C154,134,118.2,129.5,118.2,129.5z"/>
		</g>
	</g>
	
		<image style="display:inline;overflow:visible;enable-background:new    ;" width="2000" height="417" xlink:href="../../../../../velgerstudio/PS/2000px-Bitcoin_logo.png"  transform="matrix(0.5359 0 0 0.5359 16.389 16.269)">
	</image>
</g>
<g id="Слой_7" class="st0">
	<path class="st2" d="M128,16C66.1,16,16,66.1,16,128s50.1,112,112,112s112-50.1,112-112S189.9,16,128,16z M168.7,183.5H89l5.3-27
		l-12.3,8l5-22.7l13.3-9.3l12-60H140l-8,38.7l31-21.7l-5,23l-30,21l-6.3,26.7l52.3-0.7L168.7,183.5z"/>
</g>
<g id="Слой_8" class="st0">
	<path class="st2" d="M128,16C66.1,16,16,66.1,16,128s50.1,112,112,112s112-50.1,112-112S189.9,16,128,16z M82,122h37l-4.7,14h-37
		L82,122z M168.7,144.7c-4.7,13.3-21,14.7-21,14.7H79l5-15.7h62.3L156,113H94.3L99,98.3c0,0,60-0.7,70,0s10.3,10.7,10.3,10.7
		S173.3,131.3,168.7,144.7z"/>
</g>
<image style="display:none;overflow:visible;enable-background:new    ;" width="1200" height="1200" xlink:href="../../../../../velgerstudio/PS/ETHEREUM-YOUTUBE-PROFILE-PIC.png"  transform="matrix(0.1283 0 0 0.1283 51 51)">
</image>
<image style="display:none;overflow:visible;" width="340" height="340" xlink:href="../../../../../velgerstudio/PS/16077aac6bc55e9f84680f7e203d45af60d6d3f4.png"  transform="matrix(0.5186 0 0 0.5186 39.6667 41)">
</image>
<g>
	<path class="st4" d="M87.2,104.8V128c0,0,11.8,1.2,11.8-11.6C98.9,103.8,87.2,104.8,87.2,104.8z"/>
	<path class="st4" d="M128,16C66.1,16,16,66.1,16,128s50.1,112,112,112s112-50.1,112-112S189.9,16,128,16z M86.7,131.9
		c0,0-0.4,15.3,0.5,19.9s6.8,3.6,6.8,3.6v1.1H66.9v-1.6c6,0.3,6.7-3,6.7-3v-44.7c0-2.9-6.7-3.7-6.7-3.7v-1.8l32,0.5
		c0,0,13.1,0.7,13.1,16.1C112,135.7,86.7,131.9,86.7,131.9z M191.7,103c0,0.5-0.4,0.8-0.8,0.8c-2-0.2-7-0.2-7,3.3v44.2c0,0,0,0,0,0
		c0,0,0.5,4.1,7,3.7c0.4,0,0.8,0.3,0.8,0.8v0.1c0,0.4-0.3,0.8-0.8,0.8h-27.7l0-1.5c0,0,6.2,1.5,6.7-3.6c0.4-3.6,0-43.6,0-43.6
		l-21.2,48.6l-19.8-46.1c-0.3-0.8-1.5-0.5-1.5,0.3c0,0,0.5,38,0.5,40c0,2.8,3.5,4.8,7.3,4.3c0,0.4,0,1,0,1.4h-18.6
		c0-0.7,0-1.1,0-1.7c1.9,0,7.2-0.5,7.2-5c0-5.7,0-41.8,0-41.8s-0.2-4.8-3.7-4.5s-4.3,0-4.3,0v-2.3h22.7l16,36.3l14.7-35.7h21.7
		c0.4,0,0.8,0.3,0.8,0.8V103z"/>
</g>
</svg>
