<?xml version="1.0" encoding="utf-8"?>
<!-- Generator: Adobe Illustrator 21.0.0, SVG Export Plug-In . SVG Version: 6.00 Build 0)  -->
<svg version="1.1" id="Capa_1" xmlns="http://www.w3.org/2000/svg" xmlns:xlink="http://www.w3.org/1999/xlink" x="0px" y="0px"
	 viewBox="0 0 512 512" style="enable-background:new 0 0 512 512;" xml:space="preserve">
<style type="text/css">
	.st0{fill:#FFFFFF;}
</style>
<g id="user">
	<g>
		<path class="st0" d="M325.8,305.7c41.2-43,68.9-116,68.9-167.1C394.7,62,332.6,0,256,0S117.3,62,117.3,138.5
			c0,51.1,27.7,124.2,68.9,167.1C84.8,326.4,21.3,395.6,21.3,512h469.3C490.7,395.6,427.2,326.4,325.8,305.7z M138.7,138.5
			c0-64.6,52.6-117.2,117.3-117.2s117.3,52.6,117.3,117.2c0,51.4-32.3,128.2-74.1,162.9c-13.7,11.3-28.3,18.2-43.2,18.2
			s-29.5-6.9-43.2-18.2C171,266.8,138.7,189.9,138.7,138.5z M206.9,323.7c15.3,10.8,31.8,17.3,49.1,17.3s33.8-6.5,49.1-17.3
			c88.2,12.8,155.5,62.9,163.5,167h-425C51.5,386.6,118.7,336.6,206.9,323.7z"/>
	</g>
</g>
</svg>
